<?xml version="1.0" standalone="no"?>
<!DOCTYPE svg PUBLIC "-//W3C//DTD SVG 20010904//EN"
 "http://www.w3.org/TR/2001/REC-SVG-20010904/DTD/svg10.dtd">
<svg version="1.0" xmlns="http://www.w3.org/2000/svg"
 width="500.000000pt" height="500.000000pt" viewBox="0 0 500.000000 500.000000"
 preserveAspectRatio="xMidYMid meet">

<g transform="translate(0.000000,500.000000) scale(0.100000,-0.100000)"
fill="#000000" stroke="none">
<path d="M0 2500 l0 -2500 2500 0 2500 0 0 2500 0 2500 -2500 0 -2500 0 0
-2500z m2785 1096 c295 -89 542 -283 685 -539 45 -80 30 -84 -19 -6 -72 115
-115 170 -196 248 -141 135 -304 228 -490 278 -92 25 -115 27 -285 27 -168 0
-194 -3 -282 -27 -291 -78 -544 -273 -688 -530 -17 -31 -36 -54 -41 -51 -23
14 107 201 210 305 177 177 370 276 631 323 14 2 106 3 205 2 162 -3 189 -6
270 -30z m-1458 -784 c48 -25 70 -53 79 -100 l7 -32 -73 0 c-65 0 -75 3 -96
25 -26 28 -69 33 -99 11 -28 -20 -12 -41 42 -56 26 -6 74 -19 107 -28 40 -10
69 -26 92 -49 l34 -34 0 141 0 140 114 0 113 0 32 -122 c18 -68 35 -131 39
-141 5 -12 19 27 43 120 l36 138 111 3 112 3 1 -103 c1 -86 3 -96 10 -64 29
121 134 184 293 174 123 -8 209 -66 223 -152 l6 -36 -75 0 c-71 0 -75 1 -96
30 -26 35 -76 47 -127 30 -47 -16 -65 -52 -65 -134 0 -58 3 -69 28 -98 25 -27
36 -32 79 -32 37 -1 57 4 72 18 36 33 27 46 -34 46 l-55 0 0 50 0 50 135 0
135 0 0 -140 0 -140 -41 0 c-32 0 -42 4 -46 20 -7 25 -7 25 -60 -1 -60 -29
-155 -36 -224 -16 -68 20 -115 67 -140 139 l-18 53 -1 -97 0 -98 -80 0 -80 0
-1 148 c-1 113 -3 139 -11 112 -5 -19 -23 -86 -40 -148 l-31 -113 -65 3 -66 3
-38 139 c-20 77 -39 144 -41 149 -2 6 -1 -58 1 -141 l4 -152 -76 0 -76 0 0 53
0 52 -21 -33 c-37 -57 -89 -77 -204 -77 -87 0 -107 3 -149 25 -57 29 -82 59
-92 113 l-6 37 81 0 c74 0 81 -2 81 -20 0 -10 9 -24 19 -30 30 -15 107 -12
121 5 20 24 -3 42 -68 56 -174 35 -238 95 -218 202 16 84 105 130 241 124 57
-3 92 -10 122 -25z m1683 -42 l0 -60 -135 0 -135 0 0 -35 0 -35 115 0 115 0 0
-55 0 -55 -115 0 -115 0 0 -39 0 -40 143 -3 143 -3 70 193 69 192 96 0 97 0
78 -217 79 -218 3 218 2 217 183 0 c153 0 187 -3 217 -18 98 -49 109 -185 20
-254 l-31 -25 19 -34 c11 -19 35 -64 55 -101 l37 -68 -93 0 -93 0 -44 90 c-40
81 -47 90 -72 90 l-28 0 0 -90 0 -90 -164 0 -164 0 -6 35 -7 35 -89 0 -89 0
-9 -32 -8 -33 -287 -3 -287 -2 0 250 0 250 215 0 215 0 0 -60z m-530 -628 l0
-69 -40 -1 c-32 -2 -43 3 -56 23 -15 23 -15 27 0 50 11 17 26 25 46 25 23 0
30 4 30 20 0 11 5 20 10 20 6 0 10 -29 10 -68z m489 20 c-5 -2 -9 -19 -9 -38
0 -24 5 -34 15 -34 8 0 15 -4 15 -10 0 -14 -36 -12 -48 3 -13 16 -19 88 -8
106 6 9 12 8 26 -6 9 -10 13 -19 9 -21z m-839 -41 c0 -62 -22 -93 -63 -89 -41
4 -46 23 -5 23 17 0 33 6 36 14 3 9 -2 11 -18 6 -42 -13 -80 51 -48 83 7 7 31
11 55 10 l43 -1 0 -46z m158 37 c7 -7 12 -29 12 -49 l0 -37 -42 2 c-39 1 -43
3 -43 26 0 21 5 26 33 28 28 3 31 6 22 18 -8 9 -21 12 -38 7 -17 -4 -23 -2
-18 6 9 15 59 14 74 -1z m382 -48 c0 -54 -2 -62 -24 -71 -25 -12 -76 -5 -76
10 0 4 16 8 36 7 23 -1 39 4 42 13 3 9 -1 11 -16 6 -45 -14 -84 34 -62 75 8
15 21 20 55 20 l45 0 0 -60z m168 48 c7 -7 12 -20 12 -30 0 -14 -8 -18 -41
-18 -26 0 -38 -4 -33 -11 3 -6 19 -9 35 -7 18 3 28 0 26 -6 -6 -18 -53 -18
-71 -1 -34 34 -14 85 34 85 14 0 31 -5 38 -12z m-1329 -201 c140 -256 391
-452 687 -534 92 -26 113 -28 284 -28 171 0 192 2 283 28 135 37 225 78 337
152 145 96 300 268 366 408 10 20 24 37 32 37 10 0 3 -20 -23 -67 -144 -263
-391 -459 -690 -549 -121 -36 -384 -46 -516 -20 -339 69 -618 273 -789 579
-21 38 -28 57 -18 57 7 0 28 -28 47 -63z"/>
<path d="M3690 2675 l0 -45 65 0 c53 0 66 3 75 19 23 43 -12 71 -89 71 l-51 0
0 -45z"/>
<path d="M3232 2602 c-12 -44 -22 -82 -22 -86 0 -3 23 -6 51 -6 43 0 50 2 45
18 -3 9 -12 44 -22 77 -9 33 -19 64 -23 68 -4 4 -17 -28 -29 -71z"/>
<path d="M2411 2151 c-7 -5 -11 -19 -9 -32 4 -33 52 -35 56 -2 4 25 -27 46
-47 34z"/>
<path d="M2057 2148 c-24 -13 -21 -45 5 -54 15 -4 25 -1 34 11 23 31 -5 62
-39 43z"/>
<path d="M2230 2101 c0 -18 17 -20 36 -6 18 14 18 14 -8 15 -16 0 -28 -4 -28
-9z"/>
<path d="M2595 2144 c-18 -19 -16 -33 7 -48 12 -7 21 -6 32 3 22 18 20 38 -3
51 -15 7 -24 6 -36 -6z"/>
<path d="M2783 2145 c-17 -13 -16 -14 15 -15 33 0 43 13 18 23 -8 3 -22 -1
-33 -8z"/>
</g>
</svg>
