<?xml version="1.0" standalone="no"?>
<!DOCTYPE svg PUBLIC "-//W3C//DTD SVG 20010904//EN"
 "http://www.w3.org/TR/2001/REC-SVG-20010904/DTD/svg10.dtd">
<svg version="1.0" xmlns="http://www.w3.org/2000/svg"
 width="500.000000pt" height="500.000000pt" viewBox="0 0 500.000000 500.000000"
 preserveAspectRatio="xMidYMid meet">

<g transform="translate(0.000000,500.000000) scale(0.100000,-0.100000)"
fill="#000000" stroke="none">
<path d="M2273 3615 c-261 -47 -509 -196 -671 -402 -64 -81 -132 -186 -132
-204 0 -21 17 -7 34 28 56 117 216 295 344 382 445 302 1042 247 1421 -130 60
-60 144 -170 186 -241 15 -27 31 -48 37 -48 24 0 -105 190 -194 285 -156 168
-413 303 -635 335 -94 13 -303 11 -390 -5z"/>
<path d="M1087 2826 c-112 -31 -161 -148 -96 -230 28 -36 60 -51 160 -76 95
-24 120 -40 99 -64 -8 -11 -30 -16 -64 -16 -55 0 -76 12 -76 42 0 16 -10 18
-79 18 l-78 0 7 -40 c15 -84 71 -123 191 -136 120 -12 207 19 250 90 l19 31 0
-57 0 -58 77 0 76 0 -5 158 -6 157 34 -120 c19 -66 39 -137 45 -157 l10 -38
62 0 63 0 34 128 c60 224 57 222 52 38 l-5 -166 82 0 81 0 1 113 c1 89 3 102
9 66 14 -80 48 -127 120 -165 54 -28 190 -26 251 4 55 27 55 27 62 2 4 -16 14
-20 46 -20 l41 0 0 140 0 140 -135 0 -135 0 0 -50 0 -50 61 0 c52 0 60 -2 55
-16 -3 -9 -6 -17 -6 -20 0 -9 -61 -34 -83 -34 -44 0 -87 22 -102 51 -17 32
-20 151 -5 180 14 25 62 49 100 49 40 0 87 -24 95 -50 6 -18 15 -20 81 -20 86
0 89 6 52 80 -61 120 -310 148 -423 48 -42 -36 -63 -74 -75 -131 -6 -33 -8
-18 -9 71 l-1 112 -110 0 -109 0 -10 -37 c-51 -197 -65 -242 -72 -232 -4 7
-22 70 -40 140 l-33 129 -113 0 -113 0 0 -147 c-1 -131 -2 -145 -14 -123 -19
35 -78 65 -165 84 -90 20 -111 31 -111 55 0 40 88 44 118 6 18 -22 27 -25 91
-25 80 0 81 2 52 66 -14 31 -30 47 -65 63 -57 28 -171 36 -239 17z"/>
<path d="M2580 2580 l0 -250 284 0 284 0 12 35 12 35 87 0 88 0 9 -32 10 -33
162 -3 162 -2 0 90 0 90 31 0 c29 0 33 -5 72 -90 l42 -90 88 0 c48 0 87 3 87
7 0 3 -23 49 -51 101 l-51 95 35 31 c44 39 57 64 57 113 0 55 -28 104 -75 130
-37 21 -52 23 -217 23 l-178 0 -2 -232 -3 -233 -85 233 -85 232 -94 -2 -94 -3
-70 -190 -70 -190 -143 3 -144 3 0 40 0 39 115 0 115 0 0 55 0 55 -115 0 -115
0 0 35 0 35 135 0 135 0 0 60 0 60 -215 0 -215 0 0 -250z m1242 123 c45 -40 4
-83 -79 -83 l-53 0 0 50 0 50 57 0 c38 0 62 -5 75 -17z m-534 -103 c12 -41 22
-78 22 -82 0 -5 -22 -8 -50 -8 -32 0 -50 4 -50 12 0 25 45 167 51 160 3 -4 16
-41 27 -82z"/>
<path d="M2460 2186 c0 -19 -4 -22 -25 -18 -33 6 -55 -14 -55 -48 0 -36 18
-50 63 -48 l37 1 0 69 c0 39 -4 68 -10 68 -5 0 -10 -11 -10 -24z m-16 -32 c22
-9 20 -51 -3 -64 -15 -7 -23 -6 -35 6 -20 19 -20 29 0 48 18 18 17 18 38 10z"/>
<path d="M2932 2178 c-7 -7 -8 -16 -3 -22 5 -6 11 -27 13 -46 2 -29 7 -35 28
-37 25 -3 25 -3 3 7 -30 12 -34 80 -5 81 13 0 14 2 2 6 -8 3 -18 10 -21 14 -3
5 -10 4 -17 -3z"/>
<path d="M2032 2158 c-17 -17 -15 -53 3 -68 8 -7 28 -10 45 -8 32 5 35 1 21
-21 -6 -9 -20 -12 -40 -9 -17 2 -31 1 -31 -4 0 -14 48 -20 69 -8 18 9 21 20
21 68 l0 58 -38 2 c-20 2 -43 -3 -50 -10z m69 -14 c17 -21 0 -49 -32 -49 -18
0 -25 6 -27 24 -6 38 34 55 59 25z"/>
<path d="M2215 2160 c-4 -7 2 -9 17 -5 16 4 29 1 37 -9 12 -14 10 -16 -10 -16
-34 0 -52 -14 -47 -36 2 -15 13 -19 46 -20 40 -2 42 -1 42 28 0 45 -17 68 -50
68 -16 0 -32 -5 -35 -10z m59 -49 c9 -15 -23 -36 -36 -23 -5 5 -7 15 -4 21 9
13 33 14 40 2z"/>
<path d="M2574 2146 c-23 -36 -4 -66 42 -66 24 0 34 -4 31 -12 -2 -8 -19 -13
-41 -12 -37 1 -48 -9 -20 -20 54 -21 84 7 84 78 l0 53 -40 1 c-32 2 -43 -3
-56 -22z m66 -1 c18 -22 8 -50 -19 -50 -32 0 -49 28 -32 49 17 20 35 20 51 1z"/>
<path d="M2766 2154 c-21 -21 -20 -47 2 -67 21 -20 58 -22 68 -5 5 7 1 9 -13
6 -22 -6 -53 7 -53 22 0 6 18 10 40 10 26 0 40 5 40 13 0 35 -56 50 -84 21z
m62 -11 c2 -9 -7 -13 -28 -13 -28 0 -31 2 -20 15 15 18 41 16 48 -2z"/>
<path d="M1465 1999 c12 -37 71 -128 136 -211 142 -181 337 -309 584 -384 85
-26 101 -28 290 -28 162 -1 212 3 265 17 332 91 578 281 740 570 47 83 20 70
-31 -15 -228 -388 -621 -592 -1071 -557 -257 20 -517 145 -695 333 -80 84
-155 186 -189 259 -19 39 -40 51 -29 16z"/>
</g>
</svg>
