<?xml version="1.0" standalone="no"?>
<!DOCTYPE svg PUBLIC "-//W3C//DTD SVG 20010904//EN"
 "http://www.w3.org/TR/2001/REC-SVG-20010904/DTD/svg10.dtd">
<svg version="1.0" xmlns="http://www.w3.org/2000/svg"
 width="503.000000pt" height="394.000000pt" viewBox="0 0 503.000000 394.000000"
 preserveAspectRatio="xMidYMid meet">

<g transform="translate(0.000000,394.000000) scale(0.100000,-0.100000)"
fill="#000000" stroke="none">
<path d="M2364 3640 c-585 -40 -1102 -281 -1514 -706 -424 -437 -669 -1018
-670 -1586 l0 -138 33 0 33 0 -4 83 c-9 166 30 443 87 629 68 221 139 380 251
565 307 505 818 887 1372 1023 206 51 322 64 563 64 246 1 346 -12 570 -69
196 -50 317 -98 490 -193 475 -261 831 -659 1038 -1162 100 -243 167 -569 167
-816 l0 -74 -565 0 -565 0 0 338 c0 289 -2 341 -16 360 -15 22 -18 22 -255 22
l-239 0 0 -59 0 -60 193 1 192 0 3 -301 2 -301 -200 0 -200 0 0 60 0 60 -60 0
-60 0 0 -140 0 -140 60 0 60 0 0 40 0 40 950 0 950 0 0 40 0 40 -94 0 -94 0
-1 115 c-6 501 -219 1052 -561 1444 -165 190 -309 317 -505 446 -345 227 -697
345 -1123 374 -85 6 -159 10 -165 10 -7 -1 -62 -5 -123 -9z"/>
<path d="M1621 2714 c-129 -34 -237 -122 -290 -234 -23 -49 -26 -67 -26 -165
0 -99 3 -116 27 -168 35 -74 114 -157 186 -195 107 -56 136 -60 517 -65 404
-6 418 -8 517 -96 158 -142 128 -376 -60 -468 l-57 -28 -532 -5 c-517 -5 -533
-6 -547 -25 -21 -27 -20 -38 5 -69 l20 -26 503 0 c468 0 508 1 580 20 145 37
256 121 312 235 26 55 29 69 29 165 0 93 -3 111 -27 162 -55 118 -175 213
-314 248 -69 18 -111 20 -410 20 -306 0 -337 2 -398 20 -83 26 -161 87 -196
155 -33 65 -36 179 -5 240 32 64 97 120 167 144 59 20 81 21 554 21 482 0 492
0 518 21 31 25 34 61 6 89 -19 19 -33 20 -522 19 -406 0 -513 -3 -557 -15z"/>
<path d="M285 831 c-55 -15 -80 -29 -107 -57 -34 -37 -48 -74 -48 -130 0 -92
49 -139 185 -178 121 -35 142 -45 165 -74 27 -34 25 -75 -6 -111 -66 -79 -218
-57 -279 41 -7 11 -20 14 -48 11 -36 -5 -38 -7 -32 -32 12 -46 56 -92 114
-119 113 -53 265 -28 327 53 23 31 29 49 32 104 5 113 -32 150 -196 196 -151
42 -187 73 -166 147 27 93 203 105 252 18 16 -29 20 -31 57 -25 21 3 41 7 42
9 7 7 -27 73 -49 92 -56 51 -166 76 -243 55z"/>
<path d="M3124 824 c-67 -21 -140 -77 -176 -136 -57 -93 -68 -238 -25 -339 58
-136 214 -217 364 -190 60 12 146 47 194 82 l30 21 -3 121 -3 122 -137 3 -138
3 0 -41 0 -40 95 0 95 0 0 -59 c0 -57 -2 -61 -36 -87 -77 -59 -205 -63 -286
-9 -81 54 -128 171 -108 273 23 124 101 199 218 209 72 7 149 -23 191 -74 28
-34 30 -35 65 -22 20 7 36 16 36 20 0 4 -15 27 -33 51 -69 90 -219 130 -343
92z"/>
<path d="M2590 726 l0 -65 -42 -3 c-40 -3 -43 -5 -46 -35 -3 -31 -2 -32 44
-35 l47 -3 -2 -147 c-3 -168 7 -216 50 -252 26 -22 40 -26 95 -26 l64 0 0 41
c0 39 -2 41 -24 35 -27 -7 -76 9 -88 27 -4 7 -8 83 -8 170 l0 157 61 0 c52 0
60 2 55 16 -3 9 -6 24 -6 35 0 16 -7 19 -55 19 l-55 0 0 65 0 65 -45 0 -45 0
0 -64z"/>
<path d="M885 656 c-16 -7 -41 -26 -55 -41 l-25 -27 -5 34 c-5 31 -7 33 -45
33 l-40 0 -3 -242 -2 -243 44 0 45 0 3 169 c3 154 5 172 24 198 54 72 130 79
191 18 l33 -33 0 -176 0 -176 45 0 45 0 0 148 c0 81 5 163 10 183 31 111 184
128 231 25 16 -34 19 -67 19 -198 l0 -158 40 0 40 0 0 175 c0 191 -7 225 -57
278 -68 70 -208 59 -277 -24 -26 -31 -29 -32 -39 -13 -41 73 -142 105 -222 70z"/>
<path d="M1748 656 c-60 -22 -88 -45 -108 -89 l-19 -42 42 -3 c27 -2 43 1 46
9 9 27 50 58 85 64 77 15 135 -24 143 -97 l5 -46 -118 -3 c-102 -3 -124 -7
-155 -26 -46 -29 -64 -65 -63 -125 1 -86 64 -141 163 -141 59 0 137 31 148 58
9 25 23 16 23 -15 0 -28 2 -30 40 -30 l40 0 0 185 c0 168 -2 190 -21 226 -37
73 -156 109 -251 75z m188 -308 c-8 -51 -53 -102 -103 -119 -68 -22 -143 17
-143 76 0 59 48 83 169 84 l84 1 -7 -42z"/>
<path d="M2350 654 c-19 -8 -47 -27 -62 -41 l-28 -27 0 38 0 37 -42 -3 -43 -3
-3 -242 -2 -243 45 0 45 0 0 148 c0 120 3 153 18 182 21 43 75 80 117 80 29 0
33 3 38 37 4 20 4 40 1 45 -8 12 -45 9 -84 -8z"/>
<path d="M3800 661 c-64 -20 -122 -66 -149 -119 -7 -13 -17 -50 -22 -84 -27
-169 73 -299 232 -300 97 0 170 37 205 104 19 37 19 38 -22 38 -28 0 -46 -9
-75 -35 -35 -31 -45 -35 -97 -35 -39 0 -67 6 -90 20 -37 23 -72 75 -72 108 l0
22 196 0 197 0 -6 60 c-8 74 -33 125 -86 173 -56 51 -139 70 -211 48z m140
-82 c37 -21 70 -72 70 -109 0 -19 -8 -20 -150 -20 -165 0 -163 -1 -136 63 35
82 134 112 216 66z"/>
<path d="M4340 661 c-72 -22 -111 -59 -126 -115 -6 -25 -4 -26 35 -26 30 0 43
5 51 21 15 27 69 59 101 59 72 0 119 -45 119 -114 l0 -36 -98 1 c-119 1 -179
-20 -212 -73 -63 -104 16 -221 149 -221 61 0 91 11 134 51 l27 26 0 -32 c0
-31 1 -32 45 -32 l45 0 0 168 c0 181 -8 226 -46 271 -41 49 -150 74 -224 52z
m180 -303 c0 -101 -135 -171 -217 -113 -30 21 -39 70 -19 100 21 31 62 43 159
44 l77 1 0 -32z"/>
<path d="M4935 656 c-16 -7 -41 -25 -54 -40 -24 -25 -42 -34 -40 -18 1 4 1 19
0 35 -1 25 -4 27 -41 27 l-40 0 0 -245 0 -245 40 0 c35 0 40 3 40 23 1 191 8
285 24 315 22 42 71 72 119 72 l37 0 0 45 c0 43 -2 45 -27 45 -16 -1 -41 -7
-58 -14z"/>
</g>
</svg>
