<?xml version="1.0" standalone="no"?>
<!DOCTYPE svg PUBLIC "-//W3C//DTD SVG 20010904//EN"
 "http://www.w3.org/TR/2001/REC-SVG-20010904/DTD/svg10.dtd">
<svg version="1.0" xmlns="http://www.w3.org/2000/svg"
 width="866.000000pt" height="831.000000pt" viewBox="0 0 866.000000 831.000000"
 preserveAspectRatio="xMidYMid meet">

<g transform="translate(0.000000,831.000000) scale(0.100000,-0.100000)"
fill="#000000" stroke="none">
<path d="M585 8292 c49 -20 224 -21 3588 -25 2083 -2 2359 -4 2367 -17 8 -12
12 -13 19 -2 6 11 11 11 24 -2 8 -9 20 -16 26 -16 16 0 13 -26 -5 -44 -18 -18
-39 -22 -28 -5 4 7 1 10 -7 7 -8 -3 -14 -17 -14 -33 -1 -16 -10 -35 -24 -46
-14 -12 -18 -19 -10 -20 8 0 3 -6 -11 -12 -14 -6 -31 -17 -38 -24 -7 -7 -29
-13 -47 -13 -19 0 -37 -5 -40 -10 -4 -6 -15 -8 -25 -5 -11 3 -20 0 -24 -10 -3
-9 -10 -13 -16 -10 -5 3 -15 3 -22 -1 -8 -5 -7 -9 6 -13 16 -6 15 -8 -2 -26
-19 -20 -22 -27 -22 -45 0 -5 -9 -10 -20 -10 -11 0 -20 7 -20 15 0 10 -10 15
-32 15 -18 0 -43 3 -56 6 -18 5 -24 2 -29 -15 -4 -16 -13 -21 -39 -21 -32 0
-33 -2 -36 -42 -2 -24 0 -77 3 -118 5 -77 3 -101 -8 -62 -8 34 -20 17 -22 -30
0 -24 -3 -52 -5 -63 -3 -11 -5 -27 -5 -36 -1 -11 -17 -21 -47 -29 -26 -8 -40
-16 -34 -20 7 -4 -3 -10 -23 -14 -24 -4 -34 -12 -33 -23 0 -10 -8 -19 -19 -21
-40 -7 -50 -12 -37 -21 10 -6 10 -18 3 -53 -10 -44 -13 -99 -12 -206 1 -52 -7
-73 -41 -121 -10 -13 -18 -41 -18 -62 0 -32 -4 -39 -19 -39 -21 0 -31 -19 -31
-56 0 -13 -4 -24 -10 -24 -5 0 -10 -5 -10 -11 0 -7 -12 -23 -27 -37 -18 -16
-23 -27 -15 -30 27 -9 12 -86 -28 -135 -12 -15 -12 -20 -1 -26 9 -6 12 -25 10
-57 -4 -87 -1 -104 21 -104 19 0 20 -7 20 -120 0 -111 -1 -120 -19 -120 -11 0
-21 -9 -25 -23 -4 -16 -12 -23 -28 -23 -14 1 -24 -6 -27 -20 -12 -43 -47 -74
-85 -74 -31 0 -36 -3 -36 -24 0 -13 -9 -30 -20 -37 -11 -8 -23 -27 -26 -44 -5
-31 -23 -59 -32 -51 -2 3 -13 1 -23 -5 -15 -8 -19 -21 -19 -65 0 -50 -2 -55
-27 -65 -15 -6 -42 -8 -60 -4 -30 5 -33 4 -33 -20 0 -18 -5 -25 -19 -25 -10 0
-22 -7 -25 -16 -4 -12 -14 -14 -37 -9 -27 6 -31 4 -42 -24 -11 -31 -20 -35
-66 -31 -22 2 -23 -1 -16 -39 6 -39 -6 -57 -19 -28 -5 10 -7 10 -12 0 -3 -7
-12 -13 -19 -13 -7 0 -15 -7 -19 -15 -3 -8 -10 -15 -16 -15 -5 0 -10 7 -10 15
0 8 -4 15 -10 15 -5 0 -10 -7 -10 -15 0 -8 -9 -15 -20 -15 -11 0 -20 7 -20 15
0 8 -7 15 -15 15 -8 0 -15 -6 -15 -14 0 -8 -9 -18 -20 -21 -27 -8 -47 -45 -25
-45 16 0 20 -18 7 -35 -13 -19 -82 -1 -82 21 0 8 -4 14 -10 14 -5 0 -10 -7
-10 -15 0 -10 -11 -15 -35 -15 -24 0 -35 -5 -35 -15 0 -8 -9 -15 -20 -15 -11
0 -20 -7 -20 -15 0 -10 11 -15 35 -15 25 0 35 -4 35 -16 0 -13 -12 -15 -75
-12 -71 3 -75 2 -75 -18 0 -19 7 -22 68 -27 101 -9 165 -18 182 -24 8 -3 20
-7 25 -8 6 -1 12 -3 15 -4 7 -3 68 -8 175 -15 50 -3 133 -10 185 -15 52 -5
167 -17 255 -25 88 -9 203 -20 255 -26 52 -5 190 -19 305 -30 371 -36 547 -76
720 -162 116 -58 191 -115 290 -220 154 -163 225 -349 225 -586 0 -181 -25
-285 -107 -447 -49 -97 -107 -180 -174 -249 -34 -34 -55 -64 -52 -72 4 -10 0
-12 -11 -8 -9 3 -16 1 -16 -5 0 -6 4 -11 9 -11 5 0 11 -10 13 -22 2 -15 9 -22
21 -22 13 1 17 -6 18 -35 0 -20 3 -30 6 -23 2 6 15 12 29 12 16 0 22 -4 18
-15 -4 -9 3 -19 20 -26 18 -8 29 -25 36 -51 6 -21 15 -38 20 -38 4 0 14 -16
20 -35 6 -19 15 -35 19 -35 15 0 85 -176 76 -191 -3 -4 -2 -9 3 -11 15 -6 57
-83 54 -100 -4 -23 47 -75 87 -89 17 -6 31 -17 31 -25 0 -8 8 -14 18 -14 16 0
62 -58 62 -79 0 -5 6 -14 14 -20 7 -6 16 -28 19 -49 5 -29 17 -46 53 -76 26
-22 57 -40 69 -42 20 -2 129 -74 145 -96 3 -4 18 -12 33 -17 16 -6 25 -15 22
-21 -3 -5 -1 -10 4 -10 6 0 11 -20 11 -46 0 -25 4 -43 9 -39 5 3 18 -6 29 -20
19 -24 24 -25 113 -23 110 2 259 -11 259 -22 0 -13 227 -28 270 -18 14 4 41 7
61 7 31 1 38 5 43 26 7 27 26 34 26 10 0 -18 1 -18 37 -4 l28 11 -29 23 c-15
12 -36 21 -45 18 -10 -2 -23 3 -30 11 -8 9 -20 16 -27 16 -8 0 -14 5 -14 10 0
6 -12 10 -27 10 -16 0 -35 5 -43 10 -13 9 -13 11 0 20 19 13 4 13 -20 0 -13
-7 -21 -6 -30 5 -7 8 -19 15 -26 15 -19 0 -18 10 4 26 16 13 16 13 0 14 -13 0
-18 8 -18 26 0 22 -3 24 -14 15 -12 -10 -17 -6 -27 23 -14 37 -24 45 -32 24
-3 -7 -6 -3 -6 8 -1 14 -9 24 -25 28 -14 3 -28 16 -32 28 -3 12 -16 32 -28 45
-12 13 -30 50 -39 83 -11 37 -24 60 -33 60 -8 0 -15 11 -16 28 0 15 -2 32 -3
37 -2 6 -3 18 -4 27 0 9 -8 23 -16 32 -8 8 -19 26 -25 40 -5 15 -15 25 -21 24
-16 -4 -21 92 -6 121 11 22 15 23 78 17 l67 -7 -14 47 c-8 26 -14 61 -14 78
-1 33 -27 101 -30 76 -1 -8 -6 -4 -11 10 -10 25 -14 275 -4 290 10 17 -7 41
-25 35 -27 -8 -31 6 -33 104 -2 82 -1 87 17 83 15 -4 18 -1 13 12 -4 9 -1 27
5 41 9 20 17 24 42 20 17 -2 38 -4 46 -4 8 -1 40 -24 70 -52 30 -28 70 -59 87
-71 18 -11 33 -25 33 -32 0 -19 40 -53 83 -71 32 -13 59 -15 148 -9 l109 7 0
2358 0 2359 -4057 -1 c-3785 0 -4055 -2 -4018 -17z m6734 -31 c14 -9 20 -24
25 -66 1 -11 6 -32 10 -46 6 -21 2 -32 -19 -53 -14 -14 -31 -40 -37 -57 -8
-22 -13 -27 -19 -17 -7 10 -15 10 -43 -6 -34 -18 -61 -15 -53 7 8 21 -12 45
-32 40 -11 -3 -36 8 -61 26 -32 23 -46 28 -56 20 -9 -7 -14 -5 -19 9 -3 11
-17 23 -30 26 -19 5 -25 13 -25 33 0 14 -3 23 -7 20 -3 -4 -12 2 -20 13 -8 11
-21 20 -29 20 -21 0 -13 24 11 32 31 10 388 9 404 -1z m468 -61 c14 -72 15
-210 2 -210 -5 0 -9 5 -9 10 0 6 -5 10 -11 10 -6 0 -9 -7 -5 -15 4 -10 -1 -15
-14 -15 -11 0 -20 5 -20 10 0 6 -11 10 -25 10 -15 0 -23 -5 -20 -12 3 -7 -4
-24 -15 -38 -19 -23 -21 -24 -34 -7 -7 9 -16 17 -19 17 -3 0 -8 -8 -10 -17 -3
-10 -5 -3 -6 15 -1 19 4 32 12 32 9 0 9 2 -1 8 -7 5 -10 16 -6 25 4 13 1 17
-15 17 -12 0 -21 6 -20 13 4 25 -13 48 -32 42 -16 -5 -19 -1 -19 28 0 25 -5
36 -19 40 -25 6 -52 62 -38 76 8 8 5 11 -8 12 -16 1 -15 3 5 9 14 5 90 8 170
7 l145 -2 12 -65z m-280 -56 c-3 -3 -12 -4 -19 -1 -8 3 -5 6 6 6 11 1 17 -2
13 -5z m-1430 -391 c-2 -16 -4 -5 -4 22 0 28 2 40 4 28 2 -13 2 -35 0 -50z
m-297 -732 c0 -6 -4 -13 -10 -16 -5 -3 -10 1 -10 9 0 9 5 16 10 16 6 0 10 -4
10 -9z m-893 -1503 c-3 -8 -6 -5 -6 6 -1 11 2 17 5 13 3 -3 4 -12 1 -19z
m3110 -1870 c-3 -8 -6 -5 -6 6 -1 11 2 17 5 13 3 -3 4 -12 1 -19z m-123 -143
c6 -25 46 -56 46 -35 0 19 29 10 35 -11 8 -25 4 -30 -26 -32 -32 -2 -85 -63
-81 -94 3 -23 -11 -32 -23 -13 -4 6 -7 55 -8 110 l-2 100 26 0 c20 0 28 -6 33
-25z m-64 -5 c0 -5 -4 -10 -10 -10 -5 0 -10 5 -10 10 0 6 5 10 10 10 6 0 10
-4 10 -10z m230 -141 c0 -5 -4 -9 -10 -9 -5 0 -10 7 -10 16 0 8 5 12 10 9 6
-3 10 -10 10 -16z m-140 -289 c0 -5 -2 -10 -4 -10 -3 0 -8 5 -11 10 -3 6 -1
10 4 10 6 0 11 -4 11 -10z m40 -21 c0 -10 7 -19 15 -19 8 0 15 -7 15 -15 0
-22 -27 -19 -40 4 -13 25 -13 64 0 56 6 -3 10 -15 10 -26z"/>
<path d="M1566 8173 c-22 -8 -45 -21 -52 -31 -13 -17 -14 -85 -1 -98 4 -4 7
-22 7 -41 0 -18 13 -88 29 -155 17 -68 32 -139 35 -158 8 -58 34 -192 46 -240
6 -25 16 -70 21 -100 5 -30 11 -66 14 -80 4 -14 10 -52 15 -85 10 -69 20 -106
30 -120 5 -5 11 -41 15 -80 4 -38 14 -95 22 -125 8 -30 16 -66 18 -80 18 -113
34 -201 39 -208 3 -6 10 -38 15 -73 9 -56 27 -149 72 -369 15 -74 54 -169 84
-202 18 -22 33 -28 62 -28 21 0 43 4 49 8 35 22 22 203 -31 437 -8 39 -20 99
-25 135 -6 35 -16 67 -22 71 -6 4 -8 15 -4 24 3 9 2 33 -3 54 -10 40 -29 125
-35 157 -2 11 -9 38 -15 60 -15 57 -24 97 -25 114 -1 8 -6 33 -13 55 -13 45
-44 203 -50 254 -2 19 -8 42 -13 52 -6 10 -10 32 -10 49 0 17 -5 41 -11 52
-15 28 -38 125 -39 160 0 15 -9 56 -19 90 -10 35 -26 97 -34 138 -29 148 -77
343 -87 356 -17 19 -42 21 -84 7z"/>
<path d="M3666 7800 c-9 -48 -8 -50 17 -50 29 0 57 29 57 58 0 24 -33 31 -46
11 -5 -8 -9 -8 -14 1 -4 7 -10 -1 -14 -20z"/>
<path d="M4867 7464 c-4 -4 -7 -18 -7 -30 0 -13 -13 -33 -32 -48 -25 -20 -30
-28 -19 -35 9 -6 10 -14 4 -27 -6 -11 -11 -168 -11 -364 -2 -412 8 -490 59
-490 11 0 19 -4 19 -10 0 -5 17 -10 38 -10 35 0 38 3 49 40 10 29 10 65 4 137
-6 54 -15 206 -21 338 -6 132 -17 274 -25 315 -8 42 -15 102 -15 134 0 49 -2
57 -14 47 -10 -9 -15 -9 -18 -1 -2 6 -7 8 -11 4z m20 -96 c-2 -13 -4 -3 -4 22
0 25 2 35 4 23 2 -13 2 -33 0 -45z"/>
<path d="M3112 7193 c-24 -30 -30 -91 -10 -111 7 -7 8 -12 4 -12 -17 0 18 -32
50 -45 35 -14 44 -14 85 3 19 8 30 24 43 65 17 53 17 55 -4 91 -22 35 -23 36
-84 36 -56 0 -65 -3 -84 -27z"/>
<path d="M615 6918 c-9 -5 -13 -23 -12 -48 1 -37 3 -39 27 -33 38 9 60 33 60
65 0 25 -3 28 -30 26 -17 -1 -37 -6 -45 -10z"/>
<path d="M178 6178 c-52 -30 -56 -81 -12 -146 33 -49 45 -54 94 -43 65 14 90
44 90 105 0 57 -4 64 -42 89 -37 23 -85 21 -130 -5z"/>
<path d="M3732 6119 c-29 -9 -31 -12 -21 -30 7 -14 9 -70 5 -167 -19 -477 -19
-515 0 -529 21 -15 131 -17 169 -3 31 12 42 36 27 61 -6 10 -16 48 -22 86 -6
37 -14 77 -19 88 -5 11 -14 62 -21 114 -7 51 -18 109 -26 128 -8 18 -12 38 -8
44 3 6 -2 19 -11 29 -10 11 -12 20 -6 24 13 8 3 102 -16 139 -7 15 -15 27 -16
26 -1 0 -17 -5 -35 -10z"/>
<path d="M2872 5345 c-6 -8 -19 -12 -26 -9 -10 4 -16 -2 -18 -18 -2 -15 -9
-22 -20 -20 -21 3 -24 -28 -7 -77 10 -29 14 -32 53 -29 57 3 106 54 106 110 0
22 -5 40 -12 42 -42 13 -64 13 -76 1z"/>
<path d="M3210 5290 c-56 -16 -68 -23 -80 -45 -7 -13 -18 -21 -25 -19 -7 3
-15 -1 -18 -9 -3 -8 -22 -18 -42 -21 -45 -9 -85 -26 -85 -38 0 -4 -9 -8 -19
-8 -11 0 -23 -4 -26 -10 -3 -5 -16 -10 -28 -10 -22 -1 -57 -21 -57 -34 0 -16
-38 -41 -58 -38 -16 2 -29 -4 -39 -18 -10 -14 -21 -19 -34 -15 -11 4 -19 2
-19 -5 0 -6 -5 -8 -10 -5 -6 4 -10 14 -8 23 4 27 -10 40 -37 34 -24 -4 -36
-22 -15 -22 18 0 11 -20 -7 -21 -15 0 -15 -2 2 -9 19 -7 18 -9 -8 -19 -16 -6
-34 -11 -42 -11 -7 0 -25 -15 -40 -32 -28 -34 -69 -63 -140 -98 -58 -30 -79
-43 -88 -57 -4 -7 -19 -13 -33 -13 -14 0 -23 -4 -19 -10 3 -6 -2 -13 -11 -17
-10 -3 -29 -20 -44 -36 -24 -27 -28 -28 -63 -19 -20 6 -37 7 -37 2 0 -16 -56
-27 -127 -25 -65 3 -72 1 -77 -18 -4 -15 -9 -18 -16 -11 -11 11 -121 -5 -200
-31 -25 -8 -79 -17 -120 -19 -104 -7 -180 -24 -180 -42 0 -8 -10 -14 -25 -14
-14 0 -25 -5 -25 -11 0 -6 -6 -9 -12 -6 -7 2 -20 -1 -28 -8 -8 -7 -28 -15 -45
-16 -16 -2 -35 -7 -42 -12 -7 -5 -16 -6 -21 -3 -6 3 -15 -1 -22 -9 -7 -8 -23
-15 -35 -15 -12 0 -29 -10 -37 -21 -10 -16 -25 -22 -60 -23 -44 -1 -48 -3 -61
-38 -19 -47 -7 -64 51 -73 32 -5 42 -4 42 7 0 10 24 13 98 15 54 1 110 7 125
12 15 6 57 13 94 16 38 3 84 10 103 15 19 5 73 16 120 25 47 10 94 19 105 22
11 3 58 10 105 16 47 7 96 20 109 29 17 12 28 14 37 8 6 -6 19 -8 28 -4 21 8
20 -8 -3 -54 -41 -81 -72 -203 -78 -311 -14 -245 68 -463 246 -654 27 -29 41
-51 35 -57 -5 -5 -65 -20 -134 -34 -266 -54 -499 -107 -595 -136 -188 -56
-212 -60 -321 -49 -54 5 -151 6 -215 3 -145 -8 -154 -4 -164 72 -4 31 -13 74
-20 95 -8 21 -17 58 -20 81 -3 24 -15 85 -25 136 -11 51 -19 96 -18 100 1 4
-1 14 -5 22 -6 15 -24 96 -31 140 -2 14 -14 77 -26 140 -13 70 -19 129 -15
150 14 76 14 101 -2 107 -12 5 -12 7 -2 14 8 4 10 11 6 16 -11 10 -177 12
-197 2 -8 -4 -44 -16 -79 -26 -35 -10 -80 -30 -99 -45 -19 -16 -41 -28 -49
-28 -8 0 -13 -6 -10 -12 2 -7 -5 -31 -17 -53 -16 -31 -21 -63 -24 -155 -2 -63
-9 -124 -15 -135 -6 -11 -12 -76 -14 -145 -3 -149 -11 -230 -23 -230 -5 0 -7
-7 -4 -15 4 -8 1 -15 -5 -15 -6 0 -11 -8 -11 -18 0 -10 -3 -22 -7 -26 -13 -13
-16 -52 -20 -268 l-4 -218 25 0 c37 0 56 10 56 30 0 24 27 30 136 30 106 0
184 9 184 21 0 5 -11 9 -24 9 -13 0 -26 6 -29 14 -4 11 -23 13 -79 10 -40 -2
-85 -6 -100 -9 -15 -2 -30 0 -33 5 -3 6 -3 10 2 11 4 0 60 5 123 10 63 5 145
12 183 15 39 4 72 2 80 -4 6 -5 20 -8 30 -7 9 2 17 -1 17 -6 0 -15 -31 -23
-49 -12 -9 6 -25 7 -36 2 -17 -7 -16 -8 8 -8 53 -2 26 -21 -30 -21 -31 0 -53
-3 -49 -7 4 -4 56 -6 116 -5 114 3 133 -5 83 -32 l-28 -15 40 5 c22 3 51 9 65
13 14 4 61 8 105 10 44 2 81 7 83 12 2 5 8 9 13 9 4 0 6 -7 2 -16 -6 -15 1
-16 63 -11 75 7 153 -4 122 -18 -10 -4 -25 -5 -33 -1 -9 3 -15 0 -15 -10 0 -8
-7 -17 -15 -20 -32 -12 -12 -21 55 -26 39 -3 91 -2 116 3 40 8 48 6 67 -14 28
-30 56 -40 72 -27 9 8 15 8 20 0 3 -6 10 -8 15 -5 5 3 11 1 15 -5 3 -5 25 -10
48 -10 31 0 45 -5 55 -20 7 -11 21 -20 31 -20 23 0 37 -16 19 -23 -10 -3 -9
-9 4 -23 17 -19 11 -48 -9 -42 -5 2 -25 -14 -45 -34 -20 -22 -45 -38 -58 -38
-13 0 -24 -7 -27 -19 -3 -12 -14 -18 -35 -19 -33 -1 -51 -12 -30 -19 19 -7 14
-23 -8 -23 -11 0 -20 -4 -20 -8 0 -12 -49 -34 -60 -27 -4 3 -32 -13 -61 -35
-30 -22 -59 -40 -66 -40 -7 0 -17 -8 -22 -19 -6 -10 -25 -24 -43 -30 -76 -28
-186 -87 -191 -101 -2 -9 -24 -22 -48 -30 -24 -7 -56 -22 -71 -32 -14 -10 -34
-18 -45 -18 -10 0 -40 -11 -67 -23 l-50 -23 21 -21 c29 -29 121 -58 253 -80
19 -3 39 -12 43 -19 5 -8 12 -12 18 -9 5 4 19 -1 31 -9 12 -9 30 -16 40 -16
21 0 22 -4 7 -31 -7 -15 -7 -24 1 -34 9 -11 21 -9 71 8 39 13 55 23 47 28 -9
6 -7 10 7 15 11 4 22 10 25 14 6 8 92 34 103 32 4 -1 10 5 13 13 9 21 74 21
74 -1 0 -18 16 -36 49 -53 28 -15 36 -9 22 17 -13 25 3 33 87 41 7 0 11 5 7
11 -3 5 -12 7 -20 3 -8 -3 -15 0 -15 6 0 6 9 11 20 11 11 0 20 5 20 10 0 6 6
10 13 10 7 0 23 9 35 20 12 11 29 20 38 20 11 0 15 6 11 19 -3 14 -1 18 9 14
8 -3 14 0 14 6 0 6 9 11 20 11 11 0 34 14 52 30 17 17 35 30 40 30 5 0 6 5 3
10 -4 6 7 13 25 16 17 4 33 11 36 15 3 5 17 6 31 3 22 -6 24 -4 18 15 -7 23 4
28 23 9 9 -9 12 -8 12 4 0 9 7 19 16 22 22 9 26 8 18 -6 -4 -7 -3 -8 5 -4 6 4
9 11 6 16 -7 12 33 52 45 45 5 -3 14 4 20 15 6 11 15 20 21 20 6 0 7 -4 4 -10
-3 -5 1 -10 9 -10 9 0 16 9 16 20 0 22 15 27 26 8 9 -14 34 18 34 44 0 10 5
18 10 18 6 0 10 -9 10 -20 0 -22 15 -27 27 -7 4 6 19 12 33 12 20 0 25 5 25
25 0 16 6 26 18 28 14 3 18 -2 17 -20 -3 -38 -1 -50 10 -43 6 4 8 11 5 16 -4
5 -1 9 5 9 6 0 9 4 6 9 -4 5 -3 17 1 27 6 16 7 15 20 -2 14 -18 15 -18 28 -1
7 10 21 17 32 15 13 -2 19 4 21 24 4 30 32 48 33 20 0 -14 2 -14 10 3 10 21
57 48 69 40 4 -2 22 0 40 5 25 7 39 6 61 -7 23 -14 30 -14 43 -4 13 11 23 10
55 -6 22 -10 40 -22 39 -28 -2 -25 3 -34 16 -29 7 3 16 -1 19 -9 3 -8 20 -22
38 -31 39 -20 39 -20 39 -1 0 8 5 15 10 15 6 0 10 5 10 11 0 6 -7 9 -14 6 -10
-4 -13 -1 -10 7 5 14 -14 39 -44 55 -13 8 -14 12 -3 25 11 13 11 16 0 16 -8 0
-5 5 6 14 16 11 23 12 37 1 24 -16 69 -8 61 11 -3 9 1 14 12 14 11 0 15 -5 11
-15 -7 -18 24 -21 42 -3 9 9 15 9 24 0 7 -7 27 -12 46 -12 18 0 31 -3 28 -8
-2 -4 13 -7 35 -5 31 1 42 -3 59 -25 12 -14 27 -27 34 -28 7 -1 42 -29 77 -63
49 -47 69 -60 84 -55 11 3 29 6 40 5 11 0 15 3 10 7 -16 11 -12 91 5 103 11 7
7 8 -14 3 -34 -8 -28 12 8 26 17 7 17 9 4 9 -19 1 -26 21 -8 21 6 0 10 7 10
16 0 8 5 12 11 9 6 -4 8 -14 5 -22 -4 -8 -2 -11 5 -7 6 4 15 0 20 -7 7 -9 7
-5 3 14 -6 28 4 35 24 15 9 -9 18 -6 37 12 l26 24 6 -23 c5 -21 8 -22 85 -16
48 4 84 2 91 -4 13 -10 101 -9 127 2 8 4 86 8 173 11 127 3 157 1 153 -9 -2
-7 2 -21 9 -32 8 -10 15 -30 15 -45 0 -17 6 -28 18 -31 10 -3 7 -5 -10 -6 -20
-1 -26 -5 -21 -16 3 -10 1 -15 -8 -13 -7 2 -19 -10 -27 -25 -7 -16 -21 -31
-30 -35 -10 -3 -37 -20 -62 -37 -25 -17 -56 -36 -70 -43 -14 -7 -47 -28 -74
-47 -26 -18 -54 -31 -60 -29 -7 3 -23 -7 -36 -21 -13 -14 -30 -25 -37 -25 -8
0 -19 -5 -26 -10 -37 -31 -95 -63 -117 -64 -14 0 -27 -3 -30 -6 -41 -42 -106
-63 -120 -39 -6 8 -13 2 -24 -19 -22 -42 -80 -85 -104 -77 -15 4 -25 -3 -42
-30 -20 -32 -26 -35 -51 -30 -22 5 -29 3 -29 -9 0 -14 -58 -66 -75 -66 -14 0
-105 -45 -105 -52 0 -5 -8 -8 -19 -8 -10 0 -24 -6 -30 -13 -6 -8 -29 -20 -52
-27 -23 -8 -43 -19 -46 -26 -2 -7 -17 -17 -31 -23 -15 -6 -58 -29 -97 -51 -38
-21 -81 -44 -95 -50 -14 -6 -41 -19 -60 -29 -43 -23 -163 -51 -245 -58 -33 -2
-78 -11 -100 -18 -22 -8 -60 -16 -84 -19 -24 -3 -49 -10 -55 -14 -6 -5 -26 -7
-44 -5 -18 1 -43 -4 -55 -12 -21 -13 -65 -26 -97 -27 -8 0 -22 -6 -30 -13 -8
-7 -37 -17 -65 -21 -27 -4 -67 -18 -89 -31 -21 -14 -45 -26 -55 -28 -9 -2 -31
-8 -49 -14 -18 -5 -40 -7 -47 -4 -8 2 -22 -2 -30 -11 -9 -9 -22 -16 -28 -16
-7 0 -17 -10 -22 -22 -6 -13 -24 -30 -41 -38 -31 -15 -64 -50 -95 -100 -17
-27 -30 -82 -34 -144 -2 -24 -9 -42 -20 -48 -12 -7 -15 -17 -10 -35 3 -14 1
-31 -6 -40 -10 -12 -10 -16 2 -24 8 -5 21 -8 29 -6 8 1 23 -10 33 -26 11 -18
22 -25 30 -20 20 12 60 3 84 -20 24 -21 31 -71 13 -82 -6 -3 -10 -12 -10 -19
0 -16 37 -28 46 -15 3 5 0 9 -5 9 -14 0 -14 10 -1 30 18 27 28 -8 23 -71 -6
-64 -7 -64 33 -49 23 9 26 8 22 -8 -4 -15 0 -17 30 -14 28 4 34 2 29 -11 -4
-10 1 -17 14 -20 14 -4 23 1 29 16 7 20 9 20 15 4 5 -12 18 -17 45 -17 34 0
37 2 32 25 -2 14 1 32 8 40 10 12 10 15 0 15 -9 0 -10 9 -5 33 3 17 8 39 9 47
1 8 17 19 34 25 18 5 32 15 32 21 0 7 10 16 23 19 50 15 77 31 77 46 0 25 29
76 46 83 12 5 15 14 10 36 -7 38 1 60 24 60 10 0 23 7 30 15 10 12 10 15 -4
15 -9 0 -16 5 -16 10 0 7 6 7 19 0 25 -13 51 -13 51 0 0 6 -7 10 -15 10 -8 0
-15 7 -15 16 0 12 6 15 25 10 27 -7 32 3 13 22 -9 9 -9 12 0 12 6 0 20 9 31
21 11 12 24 18 30 14 6 -3 11 -1 11 4 0 6 -5 11 -12 11 -6 0 -3 7 8 15 17 13
17 14 2 15 -25 0 -23 16 2 23 12 3 20 1 19 -6 -3 -24 3 -52 8 -39 2 6 12 12
21 12 15 0 15 2 2 10 -11 7 -12 10 -2 10 8 0 27 10 44 21 25 18 32 19 39 8 8
-12 12 -11 23 4 7 9 20 15 29 12 13 -5 48 10 136 60 10 6 16 16 13 23 -2 6 3
12 12 12 9 0 15 5 13 12 -1 6 9 14 23 18 18 4 26 14 28 34 3 23 7 27 24 23 14
-4 22 0 25 14 6 23 21 25 29 4 4 -8 10 -15 15 -15 4 0 6 7 3 15 -5 11 1 15 25
15 19 0 30 5 28 12 -1 7 7 13 18 13 11 0 30 4 43 9 13 4 28 3 35 -2 13 -11
108 3 140 19 12 7 22 5 33 -6 9 -8 20 -15 26 -15 5 0 23 -11 40 -25 31 -26 58
-33 58 -14 0 19 35 56 48 51 7 -2 19 1 27 8 8 7 20 8 27 4 7 -5 21 -7 31 -6 9
2 17 -2 17 -7 0 -6 8 -11 18 -11 23 0 96 -66 87 -80 -3 -5 -1 -10 4 -10 6 0
11 4 11 10 0 11 46 -6 71 -27 20 -17 29 -16 29 1 0 8 -9 18 -20 21 -11 3 -20
13 -20 21 0 8 -11 19 -24 24 -13 5 -27 18 -30 28 -4 13 -19 22 -43 25 -52 9
-145 77 -103 77 5 0 21 12 35 27 14 15 25 23 25 16 0 -8 9 -9 30 -3 27 8 32 6
42 -16 6 -13 17 -24 24 -24 20 0 27 -19 12 -37 -12 -14 -10 -16 15 -11 22 4
35 -1 58 -23 17 -17 26 -34 23 -44 -4 -10 0 -15 12 -15 46 1 59 38 32 92 -24
49 -38 56 -60 28 -18 -22 -18 -22 -18 -1 0 12 -5 21 -11 21 -8 0 -8 4 -1 13 6
7 10 26 9 43 -2 24 2 29 20 29 11 0 29 9 40 21 10 11 26 23 36 27 9 3 17 11
17 17 0 15 -16 12 -30 -4 -13 -17 -37 -12 -37 8 0 8 8 11 19 8 10 -2 18 1 18
7 0 7 -4 9 -10 6 -5 -3 -7 0 -4 9 5 12 10 13 30 4 13 -6 24 -15 24 -20 0 -4 7
-8 15 -8 19 0 19 14 1 29 -13 11 -12 15 6 33 12 12 28 18 40 15 29 -8 48 2 41
20 -4 11 -2 14 5 9 6 -4 21 3 33 15 17 17 26 20 39 11 14 -9 16 -7 12 14 -3
16 1 26 14 31 10 4 19 2 22 -5 6 -19 30 -14 37 8 5 14 15 20 37 20 26 0 30 3
26 23 -4 20 -1 23 19 19 18 -3 22 -1 17 12 -8 21 25 59 40 47 18 -13 86 -21
86 -9 0 5 -9 12 -20 15 -11 3 -17 10 -14 15 3 5 13 6 23 3 21 -9 49 -16 86
-22 29 -5 29 -4 10 10 -11 8 -23 13 -28 10 -9 -5 -37 15 -37 27 0 4 11 5 25 3
14 -3 31 1 40 11 12 12 21 13 35 6 10 -6 27 -10 37 -10 15 0 14 4 -7 20 l-25
20 33 0 c20 0 31 -4 27 -10 -3 -5 1 -10 9 -10 21 0 20 9 -1 27 -16 13 -16 14
9 9 14 -3 34 -9 43 -12 11 -5 16 -2 15 7 -5 30 1 38 33 42 29 4 30 5 10 12
-13 4 -20 11 -18 16 3 4 21 1 40 -7 43 -18 49 -18 41 1 -3 9 0 15 9 15 8 0 15
-4 15 -9 0 -14 49 -10 61 5 7 8 9 17 5 21 -3 3 -6 1 -6 -5 0 -7 -11 -12 -25
-12 -16 0 -25 6 -25 16 0 11 6 14 20 9 14 -5 20 -2 20 9 0 20 19 20 47 1 13
-9 24 -11 28 -6 3 5 -8 18 -25 27 -16 10 -30 22 -30 26 0 14 31 9 46 -7 9 -8
21 -15 27 -15 7 0 4 5 -5 11 -10 5 -22 18 -27 28 -9 16 -7 17 15 13 15 -3 29
1 34 8 6 10 13 8 31 -9 29 -26 43 -27 29 -1 -9 17 -8 19 7 13 10 -3 25 -11 33
-17 16 -13 54 -31 83 -40 28 -9 20 22 -10 38 -16 8 -36 24 -45 35 -17 20 -16
22 13 56 17 19 26 35 19 35 -6 0 -8 5 -5 10 3 6 17 7 31 4 18 -5 24 -2 24 11
0 12 5 15 19 10 28 -9 36 14 9 24 -19 8 -15 10 25 10 28 1 47 6 47 12 0 8 12
10 35 6 33 -5 94 16 103 35 2 4 19 10 38 14 19 3 34 10 34 15 0 5 11 9 23 9
44 0 179 40 196 58 9 9 26 16 39 14 12 -2 22 1 22 6 0 15 -38 22 -130 22 -84
1 -198 16 -137 19 16 1 26 5 22 11 -3 6 0 10 7 11 7 0 0 7 -17 14 -16 7 -33
11 -37 8 -5 -2 -8 3 -8 11 0 19 -20 22 -21 4 0 -7 -5 -3 -11 10 -6 12 -16 22
-23 22 -6 0 -17 6 -23 12 -7 7 -32 17 -55 23 -28 7 -45 17 -52 33 -5 12 -18
25 -27 28 -10 3 -18 9 -18 13 0 5 -18 28 -40 52 -22 24 -40 38 -40 30 0 -8 -3
-11 -7 -7 -5 4 -8 13 -8 19 0 6 -11 14 -25 17 -16 4 -24 12 -22 23 3 16 -6 20
-38 18 -8 0 -10 2 -4 5 7 3 9 17 5 37 -6 26 -11 31 -29 29 -12 -2 -22 2 -22 8
0 6 -8 13 -17 17 -27 9 -63 45 -64 62 0 11 -2 12 -6 4 -6 -17 -123 -18 -123
-2 0 8 -11 9 -32 5 -24 -4 -29 -3 -18 4 11 7 0 10 -40 11 -68 1 -110 12 -92
23 7 4 10 12 7 17 -11 16 -25 10 -25 -11 0 -17 -7 -20 -45 -20 -26 0 -60 7
-77 16 -27 14 -38 15 -65 5 -35 -13 -73 -2 -73 22 0 14 -49 39 -62 31 -5 -3
-6 7 -3 23 5 21 4 24 -4 13 -7 -10 -11 -11 -11 -2 0 6 -4 12 -9 12 -13 0 -22
-43 -10 -50 5 -4 -4 -7 -20 -7 -28 0 -29 2 -13 13 32 22 46 85 32 143 -13 57
-55 120 -91 139 -13 6 -136 29 -272 50 -228 35 -250 37 -279 23 -46 -22 -88
-128 -58 -146 6 -3 10 4 10 17 1 17 5 12 15 -17 9 -24 11 -41 5 -43 -18 -6
-11 -28 18 -54 46 -45 70 -51 381 -98 139 -20 175 -34 127 -46 -14 -3 -26 -10
-26 -15 0 -5 -7 -9 -16 -9 -11 0 -15 6 -12 18 3 10 0 19 -6 20 -76 5 -143 13
-178 21 -30 7 -46 7 -57 -2 -11 -9 -13 -9 -8 0 10 16 -12 28 -26 14 -16 -16
-37 -14 -31 4 4 8 1 15 -5 15 -6 0 -11 -6 -11 -12 0 -9 -3 -9 -8 -2 -4 6 -29
16 -57 24 -27 7 -61 19 -74 27 -13 8 -20 10 -17 4 11 -17 -5 -13 -26 6 -10 9
-18 11 -18 5 0 -6 6 -13 13 -15 9 -4 9 -6 -1 -6 -7 -1 -23 4 -34 10 -16 9 -19
8 -13 -2 6 -9 3 -11 -9 -6 -10 4 -31 7 -47 7 -22 0 -29 5 -29 20 0 13 -9 22
-27 26 -55 12 -59 14 -43 24 13 8 12 10 -2 10 -10 0 -18 7 -18 16 0 14 -11 16
-75 12 -41 -2 -75 0 -75 4 0 5 -9 8 -19 8 -10 0 -21 7 -25 15 -4 11 3 15 27
16 l32 1 -34 10 c-23 6 -49 6 -84 -3 -40 -9 -51 -9 -58 2 -12 20 -89 19 -89
-1 0 -12 -3 -12 -16 2 -15 14 -15 18 1 42 22 33 13 70 -20 92 -21 14 -28 14
-41 3 -18 -15 -12 -52 17 -91 l20 -28 -22 0 c-23 0 -58 36 -59 62 0 9 -6 19
-12 21 -10 4 -10 8 1 15 7 5 10 15 7 21 -4 6 0 14 8 17 21 8 10 24 -17 24 -16
0 -18 3 -9 9 11 7 11 9 -2 14 -10 4 -16 18 -16 36 0 16 -4 32 -9 35 -4 3 -6
17 -4 31 4 17 0 27 -11 31 -9 3 -16 13 -16 21 0 8 5 11 10 8 19 -11 10 46 -12
86 -20 34 -21 41 -8 50 11 8 12 12 3 16 -7 2 -13 11 -13 18 0 7 -6 15 -12 18
-8 2 -1 10 15 17 31 15 34 31 11 55 -14 13 -14 23 -5 60 6 24 11 60 11 79 0
19 5 38 10 41 6 3 10 17 10 29 0 13 7 29 15 36 8 7 15 22 15 34 0 12 9 28 20
36 11 8 20 24 20 35 0 11 17 41 38 67 22 26 44 59 51 75 7 18 26 35 50 45 30
13 40 24 45 49 3 18 9 29 13 26 3 -4 17 0 30 9 13 8 34 14 46 14 35 -3 44 1
22 10 -11 5 -50 9 -86 9 -36 1 -68 3 -71 6 -12 12 5 55 22 55 10 0 21 7 24 16
5 13 2 15 -14 11 -11 -3 -20 -1 -20 4 0 14 37 29 74 29 19 0 41 7 50 15 8 8
24 15 35 15 12 0 21 6 21 15 0 8 6 16 13 17 6 0 17 2 22 2 36 4 96 32 100 47
4 13 18 19 48 21 23 2 40 7 39 13 -2 5 17 18 42 30 25 11 56 30 68 40 13 11
39 22 58 23 42 5 73 20 65 33 -4 5 6 9 20 9 15 0 24 4 20 10 -7 11 -97 11
-135 0z m-1110 -634 c0 -3 -4 -8 -10 -11 -5 -3 -10 -1 -10 4 0 6 5 11 10 11 6
0 10 -2 10 -4z m1202 -978 c-7 -7 -12 -8 -12 -2 0 6 3 14 7 17 3 4 9 5 12 2 2
-3 -1 -11 -7 -17z m35 -65 c-3 -10 -5 -4 -5 12 0 17 2 24 5 18 2 -7 2 -21 0
-30z m83 -14 c0 -5 -4 -9 -10 -9 -5 0 -10 7 -10 16 0 8 5 12 10 9 6 -3 10 -10
10 -16z m-456 -65 c35 -13 4 -30 -34 -18 -13 5 -13 6 0 14 18 12 15 11 34 4z
m463 -20 c-3 -3 -12 -4 -19 -1 -8 3 -5 6 6 6 11 1 17 -2 13 -5z m-117 -98 c0
-2 -7 -6 -15 -10 -8 -3 -15 -1 -15 4 0 6 7 10 15 10 8 0 15 -2 15 -4z m640
-91 c14 -17 13 -17 -47 -20 -20 0 -33 4 -33 11 0 25 61 32 80 9z m-117 -22
c-7 -2 -19 -2 -25 0 -7 3 -2 5 12 5 14 0 19 -2 13 -5z m0 -30 c-7 -2 -21 -2
-30 0 -10 3 -4 5 12 5 17 0 24 -2 18 -5z m647 -43 c0 -5 -4 -10 -10 -10 -5 0
-10 5 -10 10 0 6 5 10 10 10 6 0 10 -4 10 -10z m-3470 -141 c0 -9 -69 -10 -85
-1 -14 8 35 19 63 14 12 -2 22 -8 22 -13z m-234 -4 c-22 -16 -101 -20 -110 -6
-9 14 12 19 74 20 50 0 53 -1 36 -14z m-148 -12 c-10 -2 -26 -2 -35 0 -10 3
-2 5 17 5 19 0 27 -2 18 -5z m410 -38 c11 -10 -15 -25 -59 -34 -24 -5 -38 -9
-31 -10 6 -1 12 -10 12 -20 0 -18 -7 -20 -58 -19 -32 0 -67 -2 -79 -6 -12 -4
-24 -2 -27 3 -4 5 -22 7 -42 4 -31 -5 -35 -3 -32 13 2 16 -5 20 -42 24 l-45 6
53 12 c29 7 63 12 75 12 13 0 27 4 33 9 5 5 20 12 34 14 31 7 200 0 208 -8z
m-705 -2 c-7 -2 -19 -2 -25 0 -7 3 -2 5 12 5 14 0 19 -2 13 -5z m787 -9 c0
-10 -7 -14 -22 -12 -32 5 -35 28 -4 28 17 0 26 -5 26 -16z m60 -4 c0 -5 -4
-10 -9 -10 -6 0 -13 5 -16 10 -3 6 1 10 9 10 9 0 16 -4 16 -10z m-552 -21 c-2
-6 -8 -10 -13 -10 -5 0 -11 4 -13 10 -2 6 4 11 13 11 9 0 15 -5 13 -11z m-453
-49 c3 -5 1 -10 -4 -10 -6 0 -11 5 -11 10 0 6 2 10 4 10 3 0 8 -4 11 -10z m88
3 c-13 -2 -33 -2 -45 0 -13 2 -3 4 22 4 25 0 35 -2 23 -4z m952 -53 c3 -5 1
-10 -4 -10 -6 0 -11 5 -11 10 0 6 2 10 4 10 3 0 8 -4 11 -10z m40 -20 c3 -5
-3 -10 -15 -10 -12 0 -18 5 -15 10 3 6 10 10 15 10 5 0 12 -4 15 -10z m1015
-305 c0 -2 -9 -9 -20 -15 -16 -9 -18 -8 -14 5 5 13 34 22 34 10z m-180 -82
c-1 -12 -90 -54 -90 -43 0 5 17 18 38 29 42 22 52 24 52 14z m-291 -183 c-54
-36 -71 -39 -40 -6 21 22 36 29 75 35 5 0 -11 -12 -35 -29z m-74 -40 c-3 -5
-11 -10 -16 -10 -6 0 -7 5 -4 10 3 6 11 10 16 10 6 0 7 -4 4 -10z m-95 -79 c0
-14 -23 -29 -55 -35 -17 -3 -23 -3 -15 1 8 3 21 14 28 25 13 18 42 25 42 9z
m2580 -61 c0 -5 -7 -10 -16 -10 -8 0 -12 5 -9 10 3 6 10 10 16 10 5 0 9 -4 9
-10z m-373 -196 c-3 -3 -12 -4 -19 -1 -8 3 -5 6 6 6 11 1 17 -2 13 -5z m-62
-44 c-3 -5 -10 -10 -16 -10 -5 0 -9 5 -9 10 0 6 7 10 16 10 8 0 12 -4 9 -10z
m-40 -20 c4 -6 -5 -10 -20 -10 -15 0 -24 4 -20 10 3 6 12 10 20 10 8 0 17 -4
20 -10z m-178 -166 c-3 -3 -12 -4 -19 -1 -8 3 -5 6 6 6 11 1 17 -2 13 -5z
m-67 -49 c-7 -8 -16 -15 -21 -15 -5 0 -6 7 -3 15 4 8 13 15 21 15 13 0 13 -3
3 -15z m-55 -175 c3 -5 -1 -10 -9 -10 -9 0 -16 5 -16 10 0 6 4 10 9 10 6 0 13
-4 16 -10z"/>
<path d="M865 2990 c3 -5 8 -10 11 -10 2 0 4 5 4 10 0 6 -5 10 -11 10 -5 0 -7
-4 -4 -10z"/>
<path d="M755 2980 c3 -5 12 -10 20 -10 8 0 17 5 20 10 4 6 -5 10 -20 10 -15
0 -24 -4 -20 -10z"/>
<path d="M828 2983 c7 -3 16 -2 19 1 4 3 -2 6 -13 5 -11 0 -14 -3 -6 -6z"/>
<path d="M5694 5109 c-18 -20 -18 -20 21 -17 28 2 41 8 43 21 5 25 -40 22 -64
-4z"/>
<path d="M4478 5023 c6 -2 18 -2 25 0 6 3 1 5 -13 5 -14 0 -19 -2 -12 -5z"/>
<path d="M898 4335 c-3 -14 -2 -25 2 -25 11 0 20 39 10 45 -4 3 -10 -6 -12
-20z"/>
<path d="M6846 4029 c-42 -39 -76 -78 -76 -86 0 -8 7 -22 16 -30 10 -10 13
-24 9 -37 -6 -19 -8 -34 -19 -116 -1 -14 -8 -38 -15 -54 -14 -35 -11 -71 6
-71 14 0 160 140 174 167 11 20 -6 52 -28 54 -28 2 -32 5 -38 32 -7 35 9 82
29 82 8 0 22 8 32 17 15 16 17 16 29 0 16 -22 25 -3 18 39 -7 44 -24 74 -44
74 -9 0 -51 -32 -93 -71z m-1 -197 c2 -9 7 -26 10 -37 6 -22 -28 -85 -46 -85
-7 0 -8 12 -4 33 4 21 3 28 -3 18 -10 -14 -7 54 4 108 l5 24 15 -22 c8 -11 17
-29 19 -39z"/>
<path d="M2447 4083 c-11 -10 -8 -43 3 -43 6 0 10 11 10 25 0 26 -2 29 -13 18z"/>
<path d="M2720 3620 c0 -5 18 -10 40 -10 22 0 40 5 40 10 0 6 -18 10 -40 10
-22 0 -40 -4 -40 -10z"/>
<path d="M3215 3470 c3 -5 8 -10 11 -10 2 0 4 5 4 10 0 6 -5 10 -11 10 -5 0
-7 -4 -4 -10z"/>
<path d="M4647 3434 c-4 -4 -7 -22 -7 -39 0 -40 39 -80 69 -70 24 7 29 60 9
88 -15 18 -60 32 -71 21z"/>
<path d="M4827 3403 c-26 -25 19 -106 57 -101 28 4 35 62 10 89 -17 19 -54 26
-67 12z"/>
<path d="M5014 3375 c-8 -21 15 -74 37 -86 26 -14 59 6 59 34 0 49 -81 92 -96
52z"/>
<path d="M6710 3341 c0 -5 -8 -12 -17 -16 -30 -10 -110 -88 -131 -129 -15 -28
-18 -44 -12 -62 6 -15 6 -24 0 -24 -6 0 -10 -11 -10 -25 0 -14 -4 -25 -9 -25
-6 0 -8 9 -6 20 5 26 -11 26 -18 0 -8 -32 22 -103 60 -137 42 -39 43 -39 43
-13 0 11 7 23 15 26 20 8 53 67 61 111 4 21 11 47 17 58 13 24 15 36 23 143 5
58 4 82 -5 82 -6 0 -11 -4 -11 -9z m7 -43 c-3 -8 -6 -5 -6 6 -1 11 2 17 5 13
3 -3 4 -12 1 -19z"/>
<path d="M4548 3273 c7 -3 16 -2 19 1 4 3 -2 6 -13 5 -11 0 -14 -3 -6 -6z"/>
<path d="M8132 3130 c0 -14 2 -19 5 -12 2 6 2 18 0 25 -3 6 -5 1 -5 -13z"/>
<path d="M6470 3069 c0 -5 5 -7 10 -4 6 3 10 8 10 11 0 2 -4 4 -10 4 -5 0 -10
-5 -10 -11z"/>
<path d="M8040 3020 c0 -5 5 -10 10 -10 6 0 10 5 10 10 0 6 -4 10 -10 10 -5 0
-10 -4 -10 -10z"/>
<path d="M390 2990 c-12 -8 -11 -10 8 -10 12 0 22 5 22 10 0 13 -11 13 -30 0z"/>
<path d="M288 2903 c6 -2 18 -2 25 0 6 3 1 5 -13 5 -14 0 -19 -2 -12 -5z"/>
<path d="M203 2893 c15 -2 37 -2 50 0 12 2 0 4 -28 4 -27 0 -38 -2 -22 -4z"/>
<path d="M84 2881 c-16 -16 12 -21 123 -21 159 0 155 17 -5 22 -63 2 -116 1
-118 -1z"/>
<path d="M1210 2820 c0 -5 7 -10 15 -10 8 0 15 5 15 10 0 6 -7 10 -15 10 -8 0
-15 -4 -15 -10z"/>
<path d="M3060 2600 c20 -13 33 -13 25 0 -3 6 -14 10 -23 10 -15 0 -15 -2 -2
-10z"/>
<path d="M2841 2487 c-7 -9 -10 -21 -6 -27 7 -11 76 -42 82 -37 1 2 -12 21
-30 42 -29 33 -34 36 -46 22z"/>
<path d="M2910 2401 c0 -5 5 -13 10 -16 6 -3 10 -2 10 4 0 5 -4 13 -10 16 -5
3 -10 2 -10 -4z"/>
<path d="M2945 2393 c6 -4 16 -20 24 -35 8 -16 18 -28 22 -28 14 0 -26 63 -41
68 -9 2 -11 0 -5 -5z"/>
<path d="M3008 2303 c6 -2 18 -2 25 0 6 3 1 5 -13 5 -14 0 -19 -2 -12 -5z"/>
<path d="M3045 2270 c3 -5 8 -10 11 -10 2 0 4 5 4 10 0 6 -5 10 -11 10 -5 0
-7 -4 -4 -10z"/>
<path d="M4230 2090 c0 -5 9 -10 20 -10 11 0 20 5 20 10 0 6 -9 10 -20 10 -11
0 -20 -4 -20 -10z"/>
<path d="M4039 2030 c-16 -11 -12 -15 24 -24 31 -7 36 4 9 21 -11 6 -24 8 -33
3z"/>
<path d="M1460 1981 c13 -25 27 -34 40 -26 8 5 8 11 1 19 -6 7 -8 16 -4 19 3
4 -6 7 -21 7 -23 0 -25 -2 -16 -19z"/>
<path d="M1560 1960 c0 -5 5 -10 10 -10 6 0 10 5 10 10 0 6 -4 10 -10 10 -5 0
-10 -4 -10 -10z"/>
<path d="M7816 1951 c-9 -14 4 -62 14 -56 5 3 11 -1 14 -7 3 -7 4 5 3 26 -2
38 -19 58 -31 37z"/>
<path d="M1435 1888 c3 -18 1 -28 -6 -28 -8 0 -8 -4 1 -15 15 -18 42 -19 58
-3 9 9 8 16 -5 30 -9 10 -22 18 -29 18 -7 0 -15 6 -18 13 -3 6 -4 0 -1 -15z"/>
<path d="M1480 1807 c0 -8 8 -21 19 -31 16 -15 19 -15 31 -1 8 10 9 15 1 15
-6 0 -11 7 -11 15 0 8 -9 15 -20 15 -11 0 -20 -6 -20 -13z"/>
<path d="M3685 1800 c3 -5 13 -10 21 -10 8 0 14 5 14 10 0 6 -9 10 -21 10 -11
0 -17 -4 -14 -10z"/>
<path d="M1140 1680 c0 -21 5 -30 16 -30 9 0 18 -9 21 -20 9 -36 28 -15 25 26
-4 40 -15 54 -44 54 -13 0 -18 -8 -18 -30z"/>
<path d="M6341 1642 c-10 -18 -9 -23 4 -28 25 -10 37 9 21 31 -13 18 -14 18
-25 -3z"/>
<path d="M5770 1642 c-15 -7 -65 -41 -129 -87 -18 -14 -43 -35 -55 -47 -11
-13 -39 -34 -61 -48 -37 -23 -48 -24 -150 -22 -128 3 -372 -29 -422 -56 -12
-7 -29 -12 -39 -12 -15 0 -77 -29 -164 -77 -19 -10 -55 -27 -80 -38 -25 -10
-65 -33 -90 -50 -25 -18 -53 -35 -62 -38 -30 -11 -222 -129 -263 -162 -22 -18
-51 -36 -65 -40 -14 -4 -31 -16 -38 -26 -7 -11 -18 -19 -23 -19 -10 0 -88 -58
-155 -116 -31 -26 -99 -63 -119 -64 -5 0 -19 -15 -30 -32 -13 -21 -35 -36 -62
-45 -24 -9 -45 -22 -48 -33 -9 -29 -79 -85 -125 -100 -22 -7 -45 -19 -51 -27
-6 -7 -16 -13 -22 -13 -16 0 -147 -69 -184 -96 -17 -13 -36 -24 -42 -24 -6 0
-11 -4 -11 -9 0 -5 -13 -14 -30 -21 -16 -7 -30 -16 -30 -21 0 -5 -4 -9 -10 -9
-5 0 -32 -16 -59 -35 -26 -19 -55 -35 -63 -35 -9 0 -28 -10 -43 -22 -15 -12
-80 -48 -144 -80 -64 -33 -120 -66 -124 -74 -4 -8 -14 -14 -22 -14 -8 0 -31
-11 -51 -25 l-37 -25 460 0 c454 0 460 0 479 21 32 35 53 42 78 25 23 -15 23
-15 19 27 -5 40 -3 43 31 59 20 10 36 22 36 28 0 5 6 10 13 10 8 0 24 11 37
25 28 30 46 32 55 5 8 -24 23 -26 32 -3 4 10 0 21 -9 26 -20 13 -3 49 35 70
41 24 61 22 54 -4 -7 -24 17 -54 34 -43 6 3 9 17 6 30 -5 26 10 33 19 9 8 -19
24 -19 24 0 0 18 12 19 28 3 9 -9 12 -9 12 0 0 7 12 12 28 12 15 0 35 9 45 20
9 11 23 20 31 20 8 0 18 9 21 20 3 11 10 20 15 20 4 0 10 9 13 20 4 18 11 19
54 13 26 -3 52 -12 56 -20 4 -7 12 -13 17 -13 16 0 12 36 -5 50 -8 7 -15 21
-15 31 0 11 -7 19 -15 19 -8 0 -15 5 -15 10 0 6 8 10 18 10 12 0 13 3 4 8 -9
6 -7 13 8 30 11 12 20 24 20 27 0 3 0 8 0 11 0 3 7 -2 16 -10 11 -12 20 -13
34 -6 11 6 23 10 27 9 21 -4 33 2 33 16 0 8 7 15 15 15 8 0 15 5 15 11 0 6 9
9 20 6 14 -4 20 0 20 11 0 10 7 30 15 46 8 15 15 35 15 42 0 12 19 19 43 15 9
-1 9 3 -3 33 -6 17 -6 26 0 26 6 0 10 -4 10 -10 0 -5 9 -10 21 -10 15 0 19 4
15 15 -20 50 -20 48 2 36 12 -7 22 -21 22 -32 0 -11 4 -18 9 -15 4 3 6 16 4
30 -4 19 1 26 26 37 18 8 29 19 26 26 -3 7 -8 20 -11 28 -7 17 4 19 25 6 8 -5
10 -14 6 -22 -5 -8 1 -6 12 4 11 9 29 17 41 17 17 0 22 6 23 28 0 22 2 23 8 9
6 -17 8 -17 20 -3 7 9 21 16 30 16 9 0 25 14 35 31 14 24 23 29 40 25 15 -4
28 1 39 14 20 24 5 27 -17 4 -23 -22 -19 -4 4 25 11 13 26 21 34 18 8 -3 17 1
20 9 3 8 16 14 28 14 33 0 55 15 34 23 -9 4 -16 10 -16 15 0 13 61 75 67 68 3
-3 15 1 27 9 11 8 26 15 33 15 15 0 53 31 53 43 0 11 50 51 65 53 5 1 21 2 33
3 15 1 26 9 29 21 5 19 40 28 83 21 8 -2 37 -2 63 -1 27 0 55 -4 62 -10 9 -8
17 -6 30 6 11 11 19 13 23 7 13 -20 68 -24 108 -9 21 8 48 17 59 22 11 4 26 6
33 5 6 -1 12 3 12 9 0 6 4 9 9 5 5 -3 12 -1 16 5 3 5 1 10 -4 10 -19 0 -12 17
9 23 20 5 21 10 24 87 1 33 3 35 34 32 26 -3 32 0 32 16 0 11 -7 25 -15 32 -8
7 -15 10 -15 7 0 -3 -20 3 -45 14 -30 13 -58 18 -85 15 -22 -2 -42 0 -46 5 -6
10 -32 11 -54 1z m-1030 -777 c0 -12 -19 -12 -23 0 -4 9 -1 12 9 8 7 -3 14 -7
14 -8z"/>
<path d="M952 1444 c-14 -16 -5 -18 17 -5 7 5 9 11 5 14 -5 3 -15 -1 -22 -9z"/>
<path d="M855 1440 c-16 -4 -41 -5 -55 -3 -16 3 -39 -5 -63 -21 -21 -14 -47
-26 -59 -26 -12 0 -35 -4 -52 -10 -34 -10 -160 -39 -331 -75 -60 -13 -130 -30
-154 -39 -24 -9 -58 -16 -76 -16 -67 0 -65 7 -65 -201 0 -113 4 -189 10 -189
12 0 63 23 70 31 8 10 80 18 80 9 0 -4 12 -5 27 -1 22 6 28 14 30 37 0 16 6
49 12 72 10 36 16 42 39 42 41 0 96 18 118 37 45 41 139 73 215 73 88 0 259
35 259 52 0 4 -11 8 -25 8 -14 0 -25 -5 -25 -11 0 -5 -4 -8 -8 -5 -5 3 -45 7
-89 10 -44 3 -93 10 -109 16 l-29 11 35 29 c30 25 32 30 18 35 -40 16 -13 25
72 25 50 0 98 4 108 9 9 5 26 13 37 16 13 5 15 9 7 12 -21 8 -3 22 23 17 14
-2 25 0 25 6 0 5 -4 10 -10 10 -5 0 -10 4 -10 8 0 5 10 8 22 8 14 -1 24 6 26
17 4 19 -17 21 -73 7z m-35 -28 c0 -5 -7 -9 -15 -9 -8 0 -12 4 -9 9 3 4 9 8
15 8 5 0 9 -4 9 -8z"/>
<path d="M3190 1397 c0 -14 31 -47 43 -47 4 0 25 -18 47 -40 22 -22 42 -40 43
-40 2 0 1 20 -3 45 -5 30 -3 45 4 46 6 1 0 4 -14 8 -14 4 -30 4 -37 -1 -7 -6
-20 0 -37 17 -28 28 -46 32 -46 12z"/>
<path d="M5488 1343 c6 -2 18 -2 25 0 6 3 1 5 -13 5 -14 0 -19 -2 -12 -5z"/>
<path d="M2525 1250 c-3 -5 -1 -10 4 -10 6 0 11 5 11 10 0 6 -2 10 -4 10 -3 0
-8 -4 -11 -10z"/>
<path d="M2480 1225 c-11 -13 -10 -14 4 -9 9 3 16 10 16 15 0 13 -6 11 -20 -6z"/>
<path d="M7216 1194 c-9 -23 -8 -24 17 -24 13 0 28 -5 35 -12 9 -9 12 -8 12 6
0 37 -52 62 -64 30z"/>
<path d="M7212 1060 c-11 -17 -10 -23 3 -36 29 -29 55 -2 39 40 -8 22 -27 20
-42 -4z"/>
<path d="M7015 860 c-3 -5 -19 -10 -34 -10 -28 0 -61 -26 -61 -48 0 -7 -4 -12
-9 -12 -16 0 -20 -45 -7 -83 16 -49 25 -56 39 -32 10 18 12 16 18 -20 5 -31 3
-47 -13 -72 -24 -40 -18 -61 30 -114 37 -40 57 -46 121 -33 24 5 35 15 47 42
17 40 14 80 -7 96 -8 6 -23 28 -34 49 -11 20 -25 37 -32 37 -9 0 -11 20 -6 80
5 64 3 84 -11 105 -17 26 -31 31 -41 15z"/>
<path d="M23 843 c-18 -4 -21 -11 -21 -49 0 -24 4 -44 9 -44 5 0 9 7 9 15 0 7
8 19 18 24 14 9 15 12 3 20 -12 8 -12 12 -2 25 8 9 12 15 10 15 -2 -1 -14 -4
-26 -6z"/>
<path d="M500 735 c0 -17 -16 -20 -25 -5 -8 13 -45 13 -45 0 0 -6 -12 -15 -26
-20 -14 -6 -23 -13 -20 -18 7 -12 134 -6 150 7 12 10 20 9 38 -4 l23 -17 -27
6 c-38 9 -42 -7 -7 -33 16 -12 27 -27 23 -32 -4 -7 -10 -7 -17 0 -6 6 -15 11
-21 11 -5 0 3 -11 19 -24 34 -29 26 -54 -10 -30 -14 9 -29 12 -37 8 -15 -10
-132 -14 -165 -7 -25 6 -32 23 -10 23 8 0 13 13 14 35 1 33 -9 46 -21 26 -3
-4 -16 -6 -29 -4 -16 3 -41 -5 -68 -23 l-44 -27 30 -9 c17 -4 39 -5 50 -2 19
5 19 4 2 -6 -10 -7 -25 -9 -33 -6 -8 3 -14 2 -14 -3 0 -10 117 -32 136 -24 7
3 14 0 14 -6 0 -6 -9 -11 -21 -11 -29 0 -119 -31 -119 -41 0 -4 -15 -9 -32
-11 -18 -2 -31 -7 -30 -12 5 -13 -16 -23 -65 -31 -38 -6 -43 -4 -43 12 0 10
-7 29 -16 41 -9 13 -13 29 -10 37 3 10 -1 15 -13 15 -14 0 -18 -5 -14 -19 3
-10 0 -22 -6 -25 -7 -5 -11 -88 -11 -257 l0 -249 219 0 c177 0 221 3 230 14 7
8 30 18 53 21 28 5 42 13 45 26 3 10 9 16 14 13 5 -3 9 -1 9 5 0 13 79 53 91
46 4 -3 11 1 16 8 4 8 33 20 63 27 l55 14 -47 13 c-25 8 -49 20 -52 28 -4 12
7 15 64 15 58 0 103 8 200 35 8 3 31 9 50 14 25 6 2 8 -80 5 -154 -5 -220 -12
-235 -24 -7 -6 -46 -14 -86 -20 -41 -5 -81 -12 -90 -15 -8 -3 -48 1 -88 10
-40 8 -87 15 -106 15 -49 0 -54 26 -7 47 20 10 46 25 57 35 12 10 44 20 75 23
37 3 61 12 75 26 l20 21 -33 -4 c-43 -6 -59 19 -38 59 8 16 15 22 16 16 0 -21
44 -15 58 7 11 18 19 20 63 14 40 -5 49 -4 47 7 -2 10 7 13 34 12 28 -2 44 4
64 22 15 14 23 25 18 25 -5 0 -17 7 -28 15 -24 18 -12 39 14 23 28 -18 32 -6
10 36 -24 49 -86 96 -125 95 -16 0 -24 -3 -17 -6 6 -2 12 -9 12 -14 0 -11 -49
-1 -68 14 -11 9 -11 12 5 18 17 7 16 8 -2 8 -12 1 -26 -4 -32 -10 -8 -8 -13
-8 -17 0 -10 16 -26 13 -26 -4z m-15 -33 c-9 -2 -24 -1 -33 3 -13 5 -14 8 -3
15 9 5 22 3 33 -3 16 -10 16 -12 3 -15z m185 4 c0 -3 -4 -8 -10 -11 -5 -3 -10
-1 -10 4 0 6 5 11 10 11 6 0 10 -2 10 -4z"/>
<path d="M797 655 c16 -22 33 -32 33 -20 0 7 -39 45 -45 45 -3 0 2 -11 12 -25z"/>
<path d="M385 610 c-3 -5 -1 -10 4 -10 6 0 11 5 11 10 0 6 -2 10 -4 10 -3 0
-8 -4 -11 -10z"/>
<path d="M6463 487 c-3 -5 0 -13 7 -17 8 -5 0 -12 -24 -20 -19 -6 -40 -9 -45
-6 -5 4 -12 2 -16 -3 -3 -6 -13 -7 -21 -4 -23 9 -34 -15 -34 -74 0 -45 3 -53
19 -53 10 0 22 8 26 18 7 16 8 15 15 -3 6 -14 9 -15 9 -4 2 29 25 65 50 77 17
8 27 9 29 2 7 -19 39 -10 50 15 6 14 16 25 21 25 5 0 12 8 14 18 4 16 5 16 6
0 0 -10 6 -18 11 -18 12 0 13 10 1 29 -11 17 -109 32 -118 18z"/>
<path d="M6312 390 c0 -14 2 -19 5 -12 2 6 2 18 0 25 -3 6 -5 1 -5 -13z"/>
<path d="M7933 323 c-7 -2 -13 -11 -13 -20 0 -22 31 -71 49 -77 61 -23 71 -24
71 -10 0 8 5 14 10 14 6 0 10 18 10 40 0 29 -5 42 -19 50 -20 10 -86 12 -108
3z"/>
<path d="M7440 301 c0 -6 -7 -11 -15 -11 -18 0 -31 -24 -40 -70 -5 -31 -2 -38
27 -61 35 -27 109 -42 161 -32 25 5 27 8 27 58 0 40 4 54 17 59 32 13 -18 42
-82 48 -33 4 -68 9 -77 13 -11 4 -18 3 -18 -4z"/>
<path d="M3940 245 c0 -8 2 -15 4 -15 2 0 11 -3 20 -6 12 -4 16 0 16 15 0 14
-6 21 -20 21 -11 0 -20 -7 -20 -15z"/>
<path d="M6280 214 c-25 -7 -57 -16 -72 -19 -26 -5 -28 -9 -28 -54 0 -27 6
-53 13 -59 22 -18 71 -23 97 -9 16 8 43 10 73 7 36 -5 50 -2 56 9 5 8 15 11
24 8 21 -8 30 7 22 34 -5 15 -10 17 -19 10 -16 -14 -36 5 -36 35 0 15 -10 28
-32 38 -36 19 -38 19 -98 0z"/>
<path d="M3840 160 c0 -13 5 -18 15 -14 8 4 15 10 15 14 0 4 -7 10 -15 14 -10
4 -15 -1 -15 -14z"/>
<path d="M3725 80 c-3 -5 1 -10 9 -10 8 0 18 5 21 10 3 6 -1 10 -9 10 -8 0
-18 -4 -21 -10z"/>
<path d="M3660 10 c0 -5 7 -10 16 -10 8 0 12 5 9 10 -3 6 -10 10 -16 10 -5 0
-9 -4 -9 -10z"/>
</g>
</svg>
