<?xml version="1.0" standalone="no"?>
<!DOCTYPE svg PUBLIC "-//W3C//DTD SVG 20010904//EN"
 "http://www.w3.org/TR/2001/REC-SVG-20010904/DTD/svg10.dtd">
<svg version="1.0" xmlns="http://www.w3.org/2000/svg"
 width="860.000000pt" height="813.000000pt" viewBox="0 0 860.000000 813.000000"
 preserveAspectRatio="xMidYMid meet">

<g transform="translate(0.000000,813.000000) scale(0.100000,-0.100000)"
fill="#000000" stroke="none">
<path d="M3330 8101 c0 -16 7 -83 15 -148 24 -185 43 -346 60 -493 8 -74 20
-174 25 -222 8 -68 8 -92 -2 -109 -14 -22 -59 -47 -143 -80 -30 -12 -75 -43
-112 -78 -42 -40 -74 -61 -98 -65 -20 -4 -35 -13 -35 -21 0 -7 -5 -15 -12 -17
-18 -6 1 -28 25 -28 14 0 28 11 39 30 10 17 25 33 35 37 10 3 27 14 38 23 11
9 47 25 80 35 33 10 66 20 73 23 8 3 12 -6 12 -24 0 -40 19 -11 21 31 0 17 3
24 6 17 4 -10 9 -8 20 7 13 19 21 21 76 15 34 -3 64 -6 67 -7 3 0 20 3 38 7
24 6 40 3 57 -8 13 -9 31 -16 38 -16 18 0 88 65 80 74 -10 9 -94 7 -131 -4
-29 -8 -37 -6 -56 13 -19 19 -25 44 -40 172 -17 147 -30 248 -60 470 -8 61
-23 174 -32 253 l-18 142 -33 0 c-30 0 -33 -3 -33 -29z"/>
<path d="M4670 8111 c0 -24 43 -33 89 -18 61 21 50 37 -23 37 -58 0 -66 -2
-66 -19z"/>
<path d="M4812 8118 c7 -19 40 -21 63 -4 19 14 17 15 -23 16 -31 0 -42 -4 -40
-12z"/>
<path d="M5140 8088 c0 -24 7 -49 17 -60 15 -17 15 -19 0 -36 -10 -11 -17 -36
-17 -60 0 -35 -3 -42 -20 -42 -17 0 -20 -7 -20 -40 0 -22 -4 -40 -10 -40 -6 0
-10 -33 -10 -80 0 -47 4 -80 10 -80 6 0 10 -17 10 -38 0 -28 -7 -45 -26 -62
-20 -19 -27 -22 -33 -11 -9 15 -5 17 -86 -54 -21 -19 -43 -35 -47 -35 -4 0 -8
-9 -8 -20 0 -22 -15 -27 -23 -7 -3 6 -6 2 -6 -9 -1 -12 -8 -27 -16 -34 -12
-10 -16 -9 -21 4 -6 15 -8 14 -18 -6 -9 -18 -23 -24 -66 -30 -30 -3 -56 -12
-58 -18 -3 -7 -12 -20 -21 -29 -15 -14 -15 -19 -2 -42 22 -38 3 -56 -67 -64
-53 -6 -104 -32 -101 -52 4 -22 -3 -33 -20 -33 -11 0 -26 -9 -34 -20 -8 -12
-34 -31 -58 -43 -24 -12 -45 -30 -47 -39 -4 -21 29 -39 77 -43 50 -5 148 -22
196 -36 22 -6 60 -14 85 -18 25 -4 55 -16 67 -28 30 -30 75 -38 112 -18 17 8
31 22 31 30 0 18 12 19 29 3 9 -8 15 -9 17 -3 7 19 107 9 146 -15 21 -12 36
-26 33 -30 -9 -14 13 -21 78 -27 50 -4 66 -2 76 11 7 9 19 16 26 16 7 0 15 9
18 20 4 16 -1 21 -32 26 -20 4 -55 8 -78 8 -24 1 -43 4 -43 8 0 3 -3 13 -6 22
-5 13 1 16 25 16 57 0 122 24 147 53 13 16 22 33 18 38 -5 8 5 10 79 13 16 1
31 7 35 13 4 6 16 13 27 17 11 3 0 4 -25 2 l-45 -4 34 15 c44 19 76 14 76 -12
0 -30 54 -37 77 -10 13 16 19 17 29 8 17 -17 -18 -56 -43 -50 -12 4 -24 -6
-38 -29 l-21 -33 23 -40 c13 -22 39 -49 58 -59 19 -10 34 -23 34 -28 -1 -5 -5
-23 -9 -41 -6 -30 -4 -33 31 -48 20 -8 43 -15 51 -15 24 0 80 30 106 56 14 14
38 24 58 26 33 2 106 27 82 28 -7 0 -13 5 -13 10 0 6 8 10 18 8 19 -3 41 -34
42 -60 0 -9 13 -21 29 -26 23 -8 28 -15 24 -35 -3 -17 2 -32 15 -45 28 -28 44
-106 26 -129 -28 -37 -10 -123 26 -123 11 0 37 9 57 20 45 24 88 27 80 6 -5
-12 34 -66 86 -118 9 -10 17 -22 17 -27 0 -5 18 -27 41 -49 22 -22 39 -46 38
-54 -5 -27 14 -94 37 -135 13 -23 19 -43 14 -45 -6 -2 -8 -21 -4 -49 l6 -47
39 5 c44 6 99 -13 99 -34 0 -8 10 -24 23 -36 36 -34 40 -55 17 -93 l-21 -33
23 -15 c13 -8 39 -16 58 -17 19 -2 38 -8 41 -13 4 -4 21 0 38 10 30 18 31 18
55 -5 14 -13 30 -39 36 -56 9 -27 18 -34 48 -40 20 -4 39 -10 42 -14 3 -4 30
-27 60 -52 55 -44 111 -92 136 -117 18 -17 120 -74 164 -92 78 -30 196 -88
210 -102 10 -10 46 -17 105 -21 l89 -6 -29 19 c-17 11 -57 40 -90 65 -93 69
-136 97 -142 91 -3 -2 -15 6 -27 18 -11 13 -32 26 -46 29 -14 4 -52 32 -85 63
-33 31 -75 69 -92 86 -18 16 -33 36 -33 44 0 8 -4 14 -9 14 -12 0 -36 61 -33
82 5 29 -17 60 -39 55 -22 -6 -58 41 -99 128 -13 28 -30 56 -37 63 -12 13 -15
22 -18 63 0 9 -7 24 -14 33 -8 10 -11 28 -8 46 4 16 0 44 -8 64 -18 44 -19 80
-2 94 21 18 19 67 -3 87 -20 18 -20 17 -21 -21 -1 -27 -3 -31 -6 -14 -3 14
-12 54 -21 90 -17 67 -15 159 3 150 6 -3 12 45 16 130 8 158 7 150 17 149 19
-3 45 2 39 8 -4 3 -1 11 7 17 16 13 33 100 35 181 1 33 13 106 27 162 13 57
24 127 24 156 0 40 5 57 20 70 13 10 20 29 20 50 0 20 9 44 20 57 11 13 20 29
20 35 0 7 11 16 25 19 16 4 25 13 25 25 0 11 5 21 11 23 7 2 15 30 20 61 5 39
16 67 33 88 14 17 26 39 26 48 0 10 13 33 29 51 16 19 26 40 23 48 -10 27 17
2 35 -31 9 -18 23 -37 31 -43 13 -10 10 -18 -24 -60 -52 -65 -64 -88 -64 -123
0 -20 -6 -31 -17 -34 -12 -3 -8 -7 14 -12 42 -10 49 -20 56 -80 10 -76 17
-109 28 -120 6 -5 33 -10 62 -10 76 0 64 -20 -13 -22 -165 -4 -181 -5 -177
-17 2 -6 33 -12 76 -14 64 -3 72 -5 66 -20 -13 -30 -16 -255 -4 -284 9 -21 8
-35 -1 -59 -11 -26 -11 -33 3 -47 15 -14 26 -15 105 -3 102 14 122 11 212 -37
89 -48 150 -94 250 -190 47 -45 108 -98 136 -117 l51 -35 56 14 c91 24 110 18
229 -71 31 -24 60 -43 66 -43 5 0 17 -9 27 -20 29 -32 35 -24 35 45 0 36 -4
65 -8 65 -14 0 -176 168 -184 191 -11 30 -2 36 22 14 24 -21 26 -8 5 31 -17
33 -19 54 -6 54 5 0 12 -6 14 -12 3 -7 6 6 6 30 1 30 -2 41 -11 36 -6 -4 -8
-3 -4 4 3 5 1 12 -5 14 -6 2 -10 11 -8 21 6 28 27 5 38 -43 6 -25 14 -80 17
-122 5 -69 10 -83 41 -125 19 -27 46 -56 59 -66 l24 -18 0 771 0 770 -389 0
c-336 0 -390 -2 -395 -15 -3 -8 -10 -15 -16 -15 -5 0 -10 7 -10 15 0 13 -154
15 -1325 15 l-1325 0 0 -42z m-10 -318 c0 -22 5 -40 10 -40 6 0 10 -18 10 -40
0 -40 -5 -45 -34 -34 -23 9 -24 154 -1 154 11 0 15 -11 15 -40z m45 -520 c-10
-16 7 -39 38 -49 33 -12 28 -25 -14 -35 -28 -6 -39 10 -39 62 0 12 -6 22 -12
22 -9 0 -8 3 2 9 16 11 33 4 25 -9z m-422 -37 c-7 -2 -19 -2 -25 0 -7 3 -2 5
12 5 14 0 19 -2 13 -5z m474 1 c-3 -3 -12 -4 -19 -1 -8 3 -5 6 6 6 11 1 17 -2
13 -5z m-124 -68 c15 -23 15 -25 -9 -41 -24 -16 -26 -15 -40 2 -19 26 -17 38
9 51 12 6 23 11 23 11 1 1 9 -10 17 -23z m-323 -56 c24 0 27 -35 4 -44 -32
-12 -74 -6 -96 16 l-22 22 32 8 c17 5 34 13 38 19 5 8 10 6 16 -5 5 -9 18 -16
28 -16z m3630 -21 c0 -5 -4 -9 -10 -9 -5 0 -10 7 -10 16 0 8 5 12 10 9 6 -3
10 -10 10 -16z m-2590 -129 c0 -5 -10 -10 -22 -10 -19 0 -20 2 -8 10 19 13 30
13 30 0z m-913 -6 c-3 -3 -12 -4 -19 -1 -8 3 -5 6 6 6 11 1 17 -2 13 -5z
m3343 -134 c0 -5 -4 -10 -10 -10 -5 0 -10 5 -10 10 0 6 5 10 10 10 6 0 10 -4
10 -10z m-1475 -970 c3 -5 2 -10 -4 -10 -5 0 -13 5 -16 10 -3 6 -2 10 4 10 5
0 13 -4 16 -10z m40 -30 c7 -12 -2 -12 -30 0 -19 8 -19 9 2 9 12 1 25 -3 28
-9z"/>
<path d="M5107 8086 c-4 -15 -6 -31 -2 -34 10 -10 16 6 13 35 l-3 28 -8 -29z"/>
<path d="M4563 8087 c-4 -8 -17 -17 -28 -21 l-20 -8 20 -9 c14 -6 8 -7 -17 -3
-44 7 -55 -7 -39 -49 9 -24 16 -27 55 -27 57 0 131 32 139 59 3 14 0 21 -8 21
-7 0 -27 11 -43 25 -34 28 -47 31 -59 12z"/>
<path d="M2291 7976 c-43 -44 -51 -78 -20 -84 29 -5 106 86 95 113 -9 25 -30
17 -75 -29z"/>
<path d="M4665 7960 c-8 -13 4 -70 15 -70 5 0 6 17 3 38 -7 43 -9 47 -18 32z"/>
<path d="M4732 7783 c-6 -10 -18 -18 -28 -18 -9 0 -19 -6 -21 -12 -3 -9 7 -13
29 -13 40 0 88 20 88 37 0 7 -7 10 -15 7 -8 -4 -22 -1 -29 5 -11 10 -17 8 -24
-6z"/>
<path d="M231 7631 c-18 -12 -5 -31 20 -31 14 0 19 6 17 17 -4 20 -18 26 -37
14z"/>
<path d="M2010 7600 c19 -13 30 -13 30 0 0 6 -10 10 -22 10 -19 0 -20 -2 -8
-10z"/>
<path d="M4535 7283 c-11 -3 -25 -9 -31 -14 -6 -5 -33 -12 -59 -16 -45 -6 -85
-27 -85 -45 0 -5 12 -13 26 -19 21 -7 31 -6 44 6 10 9 40 18 68 22 36 4 61 14
82 33 26 23 28 29 15 34 -18 7 -29 6 -60 -1z"/>
<path d="M1888 7273 c-55 -14 -35 -163 23 -163 35 0 69 30 69 60 0 38 -26 96
-45 104 -17 6 -20 6 -47 -1z"/>
<path d="M4235 7200 c-11 -5 -35 -9 -53 -9 -18 -1 -40 -5 -50 -10 -9 -5 -39
-15 -65 -22 -26 -6 -44 -15 -40 -19 4 -4 36 -13 71 -18 59 -10 65 -10 88 11
14 12 46 28 70 35 27 8 44 18 41 25 -5 15 -36 19 -62 7z"/>
<path d="M3825 7113 c-31 -8 -42 -22 -25 -33 24 -16 120 10 120 32 0 8 -61 9
-95 1z"/>
<path d="M3924 6958 c-37 -9 -73 -56 -54 -68 12 -8 35 -44 46 -71 15 -41 110
-53 144 -17 22 24 26 53 10 63 -8 5 -7 11 1 21 6 8 10 16 8 17 -2 1 -19 13
-37 25 -45 32 -80 41 -118 30z"/>
<path d="M5400 6946 c0 -9 7 -12 20 -9 11 3 20 9 20 14 0 5 -9 9 -20 9 -11 0
-20 -6 -20 -14z"/>
<path d="M3272 6898 c-26 -26 -7 -48 41 -48 40 0 49 14 27 38 -23 24 -50 28
-68 10z"/>
<path d="M7117 6853 c-3 -5 6 -9 19 -9 13 -1 21 2 18 7 -6 11 -31 12 -37 2z"/>
<path d="M4623 6800 c-36 -15 -27 -30 17 -30 28 0 40 4 40 14 0 11 -24 29 -33
25 -1 0 -12 -4 -24 -9z"/>
<path d="M4208 6763 c7 -3 16 -2 19 1 4 3 -2 6 -13 5 -11 0 -14 -3 -6 -6z"/>
<path d="M4296 6696 c-9 -57 -23 -73 -71 -81 -37 -5 -42 -4 -58 24 -13 22 -31
35 -65 45 -47 14 -47 14 -79 -17 -33 -31 -42 -60 -23 -72 6 -4 17 -1 25 5 10
8 33 10 77 4 35 -4 77 -9 93 -10 17 -1 45 -5 64 -8 37 -6 76 17 67 40 -2 6 4
26 15 43 22 36 12 71 -20 71 -14 0 -20 -10 -25 -44z"/>
<path d="M4463 6713 c-7 -3 -13 -19 -13 -36 0 -29 1 -30 16 -15 18 18 15 57
-3 51z"/>
<path d="M3648 6699 c-22 -12 -23 -45 -3 -53 29 -11 114 -18 139 -12 19 5 26
13 26 31 0 25 -2 26 -105 39 -22 3 -48 1 -57 -5z"/>
<path d="M5390 6703 c-38 -12 -59 -27 -64 -46 -4 -18 -1 -19 47 -13 29 3 75 6
102 7 28 0 44 3 37 6 -6 2 -9 9 -6 15 16 25 -67 48 -116 31z"/>
<path d="M2600 6645 c-39 -20 -90 -75 -90 -96 0 -7 40 -22 53 -20 4 1 27 -12
50 -27 49 -34 83 -47 91 -34 3 5 6 26 7 48 2 26 11 48 27 66 l25 27 -26 10
c-14 6 -35 19 -47 31 -25 25 -34 24 -90 -5z"/>
<path d="M4573 6643 c-7 -2 -13 -13 -13 -23 0 -23 18 -36 58 -42 41 -6 51 12
28 47 -16 24 -43 31 -73 18z"/>
<path d="M4410 6610 c0 -5 -6 -10 -13 -10 -8 0 -19 -12 -26 -26 -9 -20 -17
-25 -32 -21 -17 5 -20 2 -16 -15 9 -31 -3 -48 -32 -48 -37 -1 -111 -36 -111
-53 0 -8 11 -18 25 -21 16 -4 22 -11 19 -21 -4 -9 3 -16 23 -21 15 -4 38 -14
51 -22 16 -11 22 -11 22 -2 0 7 10 22 23 34 12 11 30 31 38 44 15 21 20 22 64
12 56 -13 66 -7 37 19 -32 27 -28 51 8 51 19 0 33 6 37 16 7 20 -13 34 -49 34
-23 0 -28 5 -28 24 0 13 -7 27 -16 30 -21 8 -24 8 -24 -4z"/>
<path d="M3592 6584 c-32 -22 -28 -50 8 -62 22 -8 36 -8 52 1 48 26 49 26 32
53 -19 28 -58 32 -92 8z"/>
<path d="M2960 6500 c0 -13 7 -20 20 -20 13 0 20 7 20 20 0 13 -7 20 -20 20
-13 0 -20 -7 -20 -20z"/>
<path d="M4600 6485 c0 -8 4 -15 10 -15 5 0 7 7 4 15 -4 8 -8 15 -10 15 -2 0
-4 -7 -4 -15z"/>
<path d="M5020 6459 c0 -24 21 -25 41 0 15 17 15 18 -12 19 -22 0 -29 -4 -29
-19z"/>
<path d="M2210 6395 c-19 -13 -41 -24 -47 -24 -7 -1 -70 -31 -140 -67 -101
-52 -140 -78 -185 -125 -32 -33 -61 -58 -65 -57 -29 8 -155 -39 -174 -65 -3
-4 -42 -9 -87 -11 -64 -2 -86 0 -107 14 -29 19 -113 16 -128 -4 -5 -6 -6 9 -3
34 3 25 3 39 0 33 -3 -7 -19 -13 -35 -13 -16 0 -29 5 -29 13 0 8 -4 7 -10 -3
-6 -10 -10 -11 -10 -2 0 7 -13 12 -29 12 -30 0 -41 -14 -41 -56 0 -13 -4 -24
-10 -24 -5 0 -10 9 -10 20 0 26 -27 37 -51 22 -15 -9 -17 -9 -13 2 4 10 -6 16
-35 21 -37 6 -41 10 -41 36 0 27 -2 29 -40 29 -33 0 -40 -3 -40 -20 0 -12 -9
-22 -23 -25 -16 -4 -23 -13 -23 -28 1 -13 -6 -23 -16 -25 -12 -2 -18 3 -18 13
0 12 -5 15 -17 10 -10 -4 -32 -13 -49 -19 -37 -13 -64 -39 -64 -60 0 -8 -4
-18 -10 -21 -6 -4 -10 5 -10 19 0 17 -5 26 -16 26 -14 0 -14 -3 -4 -15 7 -9
11 -17 9 -19 -14 -12 -70 -36 -81 -34 -6 2 -15 -10 -18 -27 -4 -21 -11 -29
-22 -27 -10 1 -19 -7 -23 -19 -5 -15 -10 -18 -15 -10 -5 10 -16 9 -44 -3 -20
-8 -40 -15 -44 -16 -4 0 -7 -10 -7 -22 -1 -30 -38 -40 -112 -32 -41 4 -63 3
-63 -4 0 -6 8 -12 18 -14 9 -3 -2 -8 -25 -12 -24 -4 -43 -12 -43 -18 0 -7 -16
-8 -45 -5 -46 7 -67 -5 -46 -26 21 -21 11 -27 -29 -21 l-40 7 0 -2337 0 -2336
39 0 c22 0 41 -5 44 -12 4 -10 7 -10 17 -1 11 10 10 14 -4 19 -10 4 -15 13
-11 24 3 10 -2 25 -10 34 -14 14 -14 16 -1 16 8 0 18 -4 21 -10 3 -5 18 -10
33 -10 15 0 40 -9 56 -19 16 -11 35 -17 42 -14 8 3 14 -1 14 -9 0 -10 8 -13
29 -10 23 3 29 0 34 -19 5 -19 9 -21 19 -11 19 19 30 14 26 -12 -2 -17 8 -34
39 -62 50 -47 63 -51 63 -22 0 15 3 19 10 12 14 -14 70 -5 70 10 0 7 -5 17
-12 24 -18 18 18 27 49 13 15 -7 29 -8 32 -4 8 11 61 13 61 2 0 -5 13 -9 29
-9 16 0 31 -5 33 -12 3 -7 10 -8 17 -3 11 6 9 10 -5 19 -11 5 -23 11 -29 12
-5 0 -15 2 -21 2 -6 1 -16 14 -22 28 -7 14 -16 23 -21 20 -15 -10 -40 5 -34
20 4 10 -3 14 -26 14 -17 0 -31 5 -31 10 0 6 8 10 18 10 28 0 34 11 16 31 -15
16 -17 16 -35 1 -10 -9 -19 -23 -19 -32 0 -29 -17 -43 -44 -36 -14 3 -26 13
-26 20 0 8 -13 17 -29 21 -44 9 -56 28 -36 58 15 23 14 26 -10 56 -20 23 -26
40 -24 65 2 23 -3 42 -15 55 -11 12 -14 21 -9 21 6 0 16 -7 23 -15 16 -19 40
-19 40 0 0 8 -7 15 -15 15 -23 0 -18 14 15 38 30 22 66 30 55 12 -4 -6 7 -10
24 -10 26 0 31 -4 31 -25 0 -29 21 -33 44 -10 14 14 18 14 46 0 16 -8 30 -23
30 -33 0 -11 6 -6 16 13 8 16 13 37 11 47 -10 35 52 57 85 30 9 -7 29 -12 45
-10 24 3 28 7 26 33 -1 16 -7 31 -13 33 -5 2 -10 7 -10 10 0 13 121 13 176 1
66 -15 81 -6 59 37 -13 26 -13 29 3 36 11 4 12 7 3 7 -7 1 -29 -8 -47 -20 -27
-16 -37 -18 -54 -9 -12 7 -18 16 -13 23 4 7 6 20 5 30 -2 9 4 20 12 23 9 3 14
10 11 14 -5 8 49 40 67 40 4 0 8 -7 8 -15 0 -8 5 -15 10 -15 6 0 10 7 10 15 0
7 7 18 17 23 21 13 10 42 -17 42 -11 0 -32 7 -45 16 -13 9 -29 13 -35 9 -6 -4
-10 4 -10 19 0 21 -5 26 -27 27 -17 1 -21 3 -10 6 34 9 18 30 -25 32 -149 7
-201 6 -206 -8 -3 -7 1 -17 9 -22 20 -12 29 -11 24 4 -6 15 42 19 67 6 23 -13
23 -26 -2 -39 -14 -8 -26 -8 -40 0 -14 8 -20 8 -20 0 0 -7 -8 -9 -19 -5 -11 3
-30 8 -42 10 -36 7 -44 22 -20 37 11 7 21 20 21 30 0 10 9 18 22 20 17 2 24
11 26 31 2 16 9 27 19 27 11 0 14 7 10 26 -12 66 95 73 119 7 9 -26 10 -26
137 -30 85 -3 127 -1 127 6 0 6 11 11 24 11 18 0 26 -7 31 -27 3 -15 11 -31
17 -34 16 -10 38 1 38 17 0 8 11 20 25 26 18 8 25 19 25 40 0 28 2 29 39 27
21 -2 46 3 55 10 22 18 39 4 32 -28 -6 -23 -5 -24 7 -9 19 24 30 23 22 -3 -7
-20 -6 -19 20 3 15 13 36 37 46 53 11 17 19 24 19 18 0 -7 3 -12 8 -12 27 5
32 -2 18 -23 -24 -40 -29 -68 -11 -68 8 0 19 -8 22 -17 9 -24 23 -33 53 -33
19 0 30 -10 43 -37 13 -26 15 -38 7 -43 -9 -6 -9 -9 0 -15 7 -4 16 -1 21 6 6
10 9 11 9 2 0 -7 10 -13 23 -13 12 0 28 -9 35 -20 22 -36 79 -27 130 20 23 21
42 44 42 49 0 5 8 10 18 10 54 2 91 14 95 33 3 11 0 21 -9 25 -17 6 -115 -2
-151 -13 -20 -5 -23 -3 -23 20 0 20 -5 26 -22 26 -59 0 -69 10 -68 59 3 83 1
91 -20 91 -12 0 -20 -7 -20 -16 0 -9 -5 -14 -12 -12 -25 9 -18 26 19 48 36 21
37 23 16 31 -12 4 -27 17 -33 28 -16 31 -33 26 -28 -9 8 -54 -36 -23 -54 38
-5 18 -3 22 8 18 8 -3 23 0 34 6 14 9 22 9 35 -2 10 -8 19 -10 23 -4 15 20 99
58 125 56 29 -2 34 7 16 25 -15 15 -3 33 23 33 11 0 22 -8 25 -20 3 -11 9 -20
14 -20 12 0 11 37 -1 45 -16 10 -11 35 7 35 15 0 15 1 -1 19 -13 15 -28 17
-76 15 -48 -3 -60 -1 -60 11 0 9 9 15 23 15 20 1 20 2 5 11 -26 15 -25 89 0
89 10 0 22 4 28 8 5 5 32 7 60 4 50 -4 52 -5 57 -35 3 -20 0 -35 -8 -40 -23
-13 -3 -60 33 -77 22 -10 32 -22 32 -38 0 -17 5 -23 17 -20 10 2 18 10 19 18
2 31 5 35 14 20 7 -12 11 -10 18 10 7 20 10 15 16 -36 4 -38 3 -60 -4 -62 -5
-2 -10 -10 -10 -18 0 -12 4 -12 20 -4 14 7 20 21 20 43 0 18 4 39 10 47 5 8 5
17 0 20 -5 3 -11 35 -13 70 -3 36 -8 76 -12 90 -16 59 -13 65 31 62 34 -2 42
1 40 14 0 9 4 19 10 21 12 4 54 -68 54 -93 0 -18 24 -29 42 -18 18 12 58 14
58 4 0 -6 -11 -12 -25 -16 -21 -5 -25 -12 -25 -41 0 -26 7 -40 30 -60 33 -27
37 -44 16 -63 -8 -6 -17 -21 -19 -33 -4 -18 -5 -18 -6 5 0 15 -6 30 -12 34 -8
5 -10 -1 -7 -20 3 -15 2 -44 -3 -64 -6 -28 -5 -39 6 -45 19 -10 9 -128 -11
-140 -8 -4 -14 -16 -14 -26 0 -10 -7 -24 -15 -31 -14 -12 -13 -15 5 -32 22
-20 26 -43 10 -53 -5 -3 -10 -13 -10 -20 0 -16 -30 -55 -42 -55 -5 0 -8 15 -8
34 0 44 -15 54 -28 19 -6 -16 -11 -22 -11 -15 -1 6 -5 12 -11 12 -13 0 -13
-97 0 -105 6 -3 7 -17 4 -31 -3 -13 -2 -30 4 -37 7 -8 8 -35 2 -77 -4 -37 -3
-73 2 -83 5 -9 8 -36 7 -60 -1 -23 3 -54 9 -69 6 -15 14 -57 18 -93 4 -36 13
-70 20 -76 7 -6 16 -27 20 -48 4 -20 15 -53 26 -74 10 -21 16 -41 14 -46 -3
-5 1 -23 10 -40 8 -17 17 -54 20 -82 3 -29 7 -56 10 -61 4 -5 -3 -20 -15 -32
l-21 -23 20 -23 c24 -27 26 -53 5 -74 -17 -17 -21 -61 -4 -50 8 4 9 0 4 -15
-4 -14 -2 -21 7 -21 8 0 6 -4 -4 -11 -25 -14 -22 -36 5 -43 14 -3 23 -14 24
-27 1 -14 -3 -19 -12 -15 -8 3 -14 0 -12 -7 1 -7 -7 -12 -18 -13 -40 -1 -55
-14 -49 -43 4 -14 11 -30 15 -36 12 -13 11 -45 -1 -45 -5 0 -10 10 -10 23 -1
21 -1 21 -11 3 -14 -23 5 -38 39 -29 21 5 22 3 16 -23 -7 -33 -51 -84 -71 -84
-7 0 -13 -4 -13 -10 0 -18 -33 -48 -46 -43 -10 3 -14 -3 -14 -21 0 -15 -8 -30
-20 -36 -21 -11 -28 -63 -11 -89 10 -16 -1 -31 -36 -49 -12 -7 -42 -29 -66
-50 l-44 -38 58 -2 59 -2 0 30 c0 17 5 30 10 30 6 0 10 -13 10 -30 0 -29 1
-30 50 -30 47 0 50 2 50 25 0 32 27 34 32 3 l3 -23 481 -3 482 -2 5 21 c10 37
-3 79 -24 79 -14 0 -19 -7 -19 -29 0 -17 -4 -33 -10 -36 -5 -3 -10 -1 -10 4 0
6 -14 11 -31 11 -17 0 -42 9 -56 20 -14 11 -32 20 -39 20 -8 0 -14 5 -14 10 0
6 7 10 15 10 31 0 92 45 75 55 -26 16 -6 23 28 9 20 -9 42 -18 48 -20 6 -3 26
11 44 30 19 19 40 32 47 29 7 -3 24 -2 38 1 34 9 32 34 -5 89 -35 52 -39 96
-10 122 21 19 21 19 -12 30 -35 12 -62 5 -64 -17 0 -7 -2 -25 -2 -40 -2 -29
-32 -41 -32 -13 0 8 -4 15 -10 15 -19 0 -10 39 10 45 11 3 19 12 17 18 -1 7
11 13 26 15 25 3 27 6 15 19 -10 13 -10 17 0 20 6 3 12 20 12 38 0 34 17 49
45 39 8 -4 15 -1 15 5 0 6 -9 11 -20 11 -13 0 -21 7 -21 20 -1 11 -2 26 -3 33
-1 8 13 11 47 9 44 -4 62 8 37 23 -14 9 -3 25 17 25 9 0 13 -6 9 -15 -4 -11 1
-15 18 -15 14 0 31 -3 39 -6 10 -3 17 4 21 22 5 20 2 30 -13 40 -15 11 -18 20
-12 42 16 60 8 65 -89 60 -48 -3 -92 -3 -97 1 -6 3 -13 18 -17 33 -8 33 -31
28 -31 -7 0 -17 6 -25 17 -25 9 0 36 -18 60 -40 23 -22 46 -40 51 -40 4 0 7
-4 7 -10 0 -5 -6 -7 -14 -4 -9 3 -17 -3 -21 -15 -3 -12 -15 -21 -25 -21 -10 0
-25 -11 -33 -24 -19 -28 -80 -42 -75 -17 2 8 17 19 33 24 20 6 38 22 53 48 12
21 18 39 12 39 -5 0 -10 -5 -10 -12 0 -6 -10 -2 -23 10 -25 24 -53 29 -59 10
-2 -6 -12 -9 -21 -5 -20 7 -39 50 -26 55 12 5 11 52 -1 52 -5 0 -10 7 -10 15
0 8 -4 15 -10 15 -5 0 -10 9 -10 20 0 11 5 20 11 20 5 0 15 14 20 30 6 17 15
30 20 30 15 0 10 27 -6 34 -8 3 -15 12 -15 20 0 8 -9 21 -20 29 -17 12 -19 19
-11 39 8 23 7 24 -20 20 -29 -4 -37 6 -20 23 5 6 11 21 14 35 3 17 5 13 6 -15
1 -36 3 -38 13 -20 7 11 13 25 14 30 6 44 17 56 48 50 l31 -6 -35 16 c-34 16
-34 17 -15 31 16 12 17 17 7 23 -11 6 -8 14 11 35 18 19 27 23 30 14 4 -8 6
-7 6 4 1 12 6 15 19 11 12 -4 11 -1 -6 14 l-22 21 35 16 c19 10 40 14 45 11 6
-3 10 -2 10 4 0 5 -6 11 -12 14 -7 2 11 7 40 11 56 8 65 22 35 52 -17 17 -17
17 6 11 14 -3 31 -1 38 5 20 16 28 1 14 -26 -7 -12 -11 -34 -9 -47 2 -20 10
-25 43 -29 34 -4 40 -8 41 -30 1 -41 24 -100 40 -100 7 0 16 -11 19 -25 3 -14
7 -36 10 -50 3 -14 1 -34 -5 -45 -9 -17 -7 -20 15 -26 14 -3 25 -10 25 -15 0
-5 6 -6 14 -3 8 3 29 -11 50 -32 28 -29 40 -35 61 -30 14 4 25 2 25 -4 0 -5
11 -10 25 -10 16 0 25 -6 25 -16 0 -14 -3 -14 -15 -4 -13 11 -15 8 -15 -17 0
-27 -2 -29 -30 -25 -16 2 -30 3 -30 1 0 -2 7 -22 15 -44 10 -28 14 -33 15 -17
0 12 5 22 10 22 6 0 10 -10 10 -22 0 -18 2 -20 9 -9 8 12 15 13 35 3 21 -9 28
-8 41 4 10 11 24 14 45 9 40 -9 39 8 -1 46 -26 24 -29 32 -19 44 11 13 16 13
41 -1 16 -8 29 -19 29 -24 0 -6 7 -10 16 -10 8 0 29 -14 46 -31 24 -23 28 -33
18 -39 -7 -4 -20 -5 -29 -2 -9 3 -2 -11 17 -35 17 -22 32 -46 32 -52 0 -8 6
-9 18 -3 9 5 32 7 50 5 24 -4 32 -2 32 10 0 9 -5 19 -11 22 -6 4 -8 13 -5 21
3 7 1 16 -5 20 -7 4 -6 10 1 19 9 10 4 15 -20 20 -23 5 -30 12 -30 30 0 12 -7
25 -15 29 -8 3 -15 12 -15 21 0 8 -6 15 -14 15 -8 0 -17 14 -21 31 -4 17 -16
35 -28 40 -19 9 -22 17 -19 58 3 42 7 50 27 53 33 7 52 -7 60 -42 7 -31 31
-40 52 -19 8 8 17 8 31 0 17 -9 20 -7 26 20 3 17 10 28 15 25 5 -3 9 0 8 7 -2
52 25 97 57 97 19 0 23 59 4 78 -9 9 -9 15 0 24 9 9 12 7 12 -10 0 -30 18 -28
30 3 11 30 18 31 36 8 12 -17 14 -17 31 0 14 14 15 21 6 35 -6 9 -17 16 -24
14 -9 -2 -7 3 4 16 18 20 14 34 -9 25 -20 -7 -17 4 7 38 26 37 47 25 42 -23
l-3 -33 15 33 c14 30 18 32 49 27 19 -4 36 -2 40 3 7 11 96 -7 96 -20 0 -4
-12 -8 -27 -9 l-28 0 23 -16 c12 -8 22 -24 22 -35 0 -10 4 -17 9 -14 11 7 32
-17 35 -41 2 -10 12 -19 24 -21 31 -5 45 -29 44 -75 -1 -30 -8 -46 -22 -56
-11 -7 -20 -18 -20 -24 0 -6 -8 -29 -19 -51 -32 -70 -44 -106 -37 -113 3 -3 6
1 6 10 0 10 4 17 8 17 4 0 16 22 26 49 10 28 24 55 32 62 12 10 64 96 137 231
24 44 52 111 99 238 11 30 23 64 28 75 4 11 15 38 23 60 25 64 31 88 18 81 -6
-4 -11 -14 -11 -21 0 -20 -32 -85 -42 -85 -4 0 -8 10 -9 23 0 18 -3 16 -13
-11 -6 -18 -15 -30 -19 -25 -5 4 -12 1 -17 -7 -9 -14 -7 -40 6 -110 3 -19 2
-21 -5 -10 -9 13 -12 12 -25 -5 -8 -11 -18 -17 -22 -13 -4 4 -13 3 -21 -4 -9
-7 -17 -8 -23 -2 -15 15 -80 4 -80 -12 0 -8 -5 -14 -11 -14 -7 0 -9 -12 -7
-31 3 -22 0 -33 -13 -39 -14 -8 -19 -4 -28 20 -5 17 -17 30 -25 30 -9 0 -16 7
-16 16 0 10 6 14 15 10 18 -6 45 2 45 15 0 5 -6 9 -14 9 -8 0 -16 10 -18 23
-2 15 -10 22 -25 22 -11 0 -25 4 -30 9 -5 5 0 6 11 2 15 -5 17 -4 7 8 -7 8 -8
17 -3 20 15 9 12 158 -4 174 -22 22 -17 42 11 42 15 0 24 5 22 13 -1 7 8 12
21 12 13 0 33 13 47 30 16 20 24 25 25 15 0 -9 -5 -21 -11 -27 -13 -13 -2 -36
13 -27 5 3 18 26 28 50 11 24 24 44 30 44 5 0 13 18 16 40 4 25 14 45 25 51
18 9 27 39 11 39 -14 0 -33 41 -27 60 3 10 16 20 28 22 20 4 22 1 19 -34 -4
-36 -3 -38 25 -38 16 0 34 -5 41 -12 9 -9 12 -9 12 0 0 7 -4 12 -9 12 -16 0
-7 69 9 75 8 3 11 3 7 -1 -4 -4 3 -18 15 -32 19 -19 23 -36 24 -88 0 -35 4
-67 7 -71 12 -12 21 7 23 50 3 59 3 59 15 51 6 -3 9 -22 7 -40 -2 -19 -1 -34
4 -34 4 0 14 -12 21 -26 14 -26 14 -26 59 67 41 85 88 200 88 216 0 4 -6 -2
-14 -12 -11 -16 -13 -8 -8 58 2 42 1 82 -4 89 -6 7 -9 29 -9 48 0 19 -4 38 -9
41 -5 4 1 10 13 14 21 6 29 39 11 50 -16 10 9 49 44 67 33 16 34 16 45 -5 6
-12 10 -32 9 -44 -2 -18 -5 -20 -17 -10 -12 10 -13 7 -8 -22 4 -18 7 -37 7
-42 0 -5 5 -9 10 -9 6 0 10 8 10 18 0 9 13 60 29 112 17 52 33 107 36 122 3
15 14 30 26 33 17 6 19 9 8 16 -11 6 -14 40 -14 146 0 121 -3 146 -24 203 -28
76 -83 154 -126 179 -84 50 -205 53 -298 7 -32 -15 -84 -53 -117 -85 -33 -31
-60 -55 -60 -54 0 2 4 11 10 21 5 9 19 41 31 70 12 28 25 52 29 52 4 0 11 12
14 28 8 30 15 47 67 166 35 78 41 84 79 75 21 -6 26 42 6 53 -9 5 -16 15 -16
22 0 13 79 177 90 186 3 3 12 24 18 47 12 39 11 45 -10 78 -13 19 -26 35 -31
35 -4 0 -60 -26 -125 -59 -64 -32 -144 -68 -177 -81 -33 -13 -63 -26 -67 -29
-4 -4 -1 -41 8 -83 16 -79 10 -179 -14 -256 -9 -28 -9 -33 3 -29 27 11 55
-127 32 -164 -10 -16 -9 -21 2 -29 12 -7 12 -11 2 -23 -6 -9 -8 -18 -3 -21 5
-3 7 -20 4 -38 -4 -32 -4 -32 12 -13 16 19 16 19 5 -7 -7 -15 -15 -25 -19 -23
-11 7 -42 -74 -34 -87 5 -7 -2 -9 -18 -6 -23 4 -27 1 -32 -33 -3 -21 -13 -44
-21 -53 -9 -8 -16 -19 -16 -23 -1 -17 -32 -73 -40 -73 -5 0 -9 -20 -9 -45 0
-33 -3 -43 -14 -39 -9 4 -15 -7 -20 -35 -3 -22 -12 -46 -20 -53 -7 -7 -11 -20
-9 -29 3 -10 -6 -27 -21 -40 -14 -12 -26 -28 -26 -35 0 -33 -67 -38 -100 -7
-8 8 -22 19 -32 26 -12 9 -14 18 -7 35 8 20 14 23 39 17 23 -5 30 -3 30 9 0
10 -9 16 -23 16 -17 0 -27 9 -37 35 -10 26 -18 34 -31 30 -10 -4 -19 1 -23 12
-6 15 -8 15 -16 3 -8 -12 -10 -12 -10 4 0 13 5 17 20 13 21 -5 27 6 34 63 2
14 7 33 11 43 4 9 4 33 1 52 -8 42 26 99 55 90 23 -8 32 22 11 35 -14 9 -14
10 6 5 18 -5 22 -2 22 14 0 12 -4 21 -10 21 -5 0 -10 5 -10 10 0 6 8 5 20 -2
27 -17 38 -3 41 50 2 32 9 49 27 63 30 23 54 25 46 4 -9 -23 25 -31 41 -9 8
11 14 14 15 7 0 -7 7 -13 15 -13 20 0 10 46 -16 73 -17 18 -19 18 -76 -20 -65
-44 -103 -62 -183 -88 -30 -10 -75 -26 -100 -35 -25 -10 -141 -48 -258 -86
l-213 -68 -66 -88 c-36 -49 -67 -88 -70 -88 -5 0 5 18 63 104 19 28 32 52 30
54 -2 2 -33 -8 -68 -22 -57 -22 -88 -31 -181 -51 -15 -3 -25 -10 -22 -15 4 -6
-8 -11 -27 -11 -33 -1 -33 -1 -5 -8 l29 -6 -31 -39 c-17 -21 -31 -49 -31 -62
0 -25 -17 -40 -41 -36 -23 4 -56 -35 -41 -50 9 -9 12 -7 12 10 0 12 6 22 14
22 11 0 12 -8 6 -37 -5 -20 -6 -42 -2 -47 3 -6 -1 -5 -10 2 -13 10 -15 9 -11
-12 7 -32 -30 -45 -58 -20 -17 15 -19 15 -19 1 0 -9 5 -19 11 -22 6 -4 8 -13
5 -21 -3 -8 -1 -14 4 -14 6 0 10 -4 10 -10 0 -5 -7 -10 -15 -10 -8 0 -15 -4
-15 -9 0 -6 -12 -6 -31 1 -34 12 -34 12 -43 -19 -6 -20 -4 -23 18 -23 14 0 26
-4 26 -10 0 -13 -47 -13 -55 1 -4 5 -19 8 -33 6 -15 -2 -21 -2 -14 0 15 5 16
19 2 28 -5 3 -10 17 -10 31 0 13 -4 24 -10 24 -5 0 -14 8 -19 19 -8 15 -5 24
15 46 22 23 27 25 37 13 17 -21 45 -29 53 -16 4 7 8 28 8 47 1 32 4 36 29 39
25 3 27 7 27 48 0 24 4 44 9 44 5 0 7 19 4 43 -6 59 4 69 57 61 37 -6 40 -8
22 -15 -14 -6 -22 -17 -22 -33 0 -24 16 -36 51 -36 17 0 20 6 17 33 -2 17 -7
35 -13 39 -10 8 15 12 49 8 36 -4 6 17 -33 23 -72 9 -145 51 -231 133 -100 97
-143 168 -200 334 -88 258 -141 411 -216 625 -203 584 -216 623 -221 704 -4
48 -1 99 7 132 14 60 51 139 73 157 13 11 13 8 0 -30 -17 -51 -12 -84 25 -158
27 -56 136 -179 148 -167 3 3 -4 23 -16 43 -35 55 -50 135 -40 201 11 67 37
110 98 164 l47 41 -82 -4 c-54 -3 -90 -10 -107 -22 -14 -9 -26 -12 -26 -6 0 8
52 53 120 103 14 10 0 5 -29 -10 -180 -92 -271 -278 -236 -483 16 -99 16 -96
90 -305 31 -88 108 -311 172 -495 63 -184 137 -400 165 -480 27 -80 52 -152
54 -160 4 -12 -32 -27 -158 -67 -90 -29 -182 -57 -206 -62 -24 -5 -46 -11 -48
-14 -9 -9 13 -82 24 -80 8 2 9 -4 3 -20 -4 -12 -8 -53 -9 -92 -1 -76 -33 -195
-57 -215 -9 -7 -14 -19 -11 -27 3 -8 1 -11 -4 -8 -6 4 -24 -5 -41 -19 -17 -14
-35 -26 -40 -26 -5 0 -8 -6 -6 -12 1 -7 -6 -12 -15 -12 -18 2 -20 -16 -3 -28
6 -5 4 -8 -4 -8 -8 0 -20 8 -27 18 -8 10 -13 12 -14 5 0 -7 -7 -13 -16 -13 -8
0 -12 5 -9 10 8 12 13 13 -70 -5 -82 -18 -131 -27 -495 -95 -296 -55 -335 -57
-443 -21 -82 26 -145 68 -218 140 -72 72 -119 148 -149 238 -20 59 -157 450
-212 603 -16 47 -59 166 -93 265 -35 99 -107 302 -160 450 -116 324 -118 330
-113 425 8 127 58 200 173 251 39 17 93 25 269 40 122 10 331 28 465 40 141
12 266 18 295 14 68 -9 189 -58 248 -101 44 -31 78 -38 62 -13 -3 5 -9 7 -14
4 -4 -3 -7 6 -6 18 1 22 3 23 38 13 20 -6 40 -14 44 -18 7 -7 -14 -32 -31 -37
-35 -11 -36 -14 -8 -45 40 -42 101 -139 109 -171 11 -44 47 -54 119 -34 31 9
36 13 22 18 -17 6 -16 8 6 18 24 11 25 14 14 42 -9 25 -14 28 -29 20 -10 -6
-23 -7 -28 -4 -6 3 -10 0 -10 -8 0 -19 -45 -30 -69 -18 -10 6 -21 8 -24 4 -4
-3 -4 11 -2 31 5 37 -8 49 -20 19 -6 -16 -8 -15 -16 5 -4 12 -5 30 -2 39 5 12
2 15 -10 10 -11 -4 -20 1 -27 16 -9 18 -8 19 2 6 11 -16 14 -16 47 0 42 19 52
30 46 52 -3 8 4 34 15 57 15 30 26 42 43 42 61 1 91 6 94 18 3 7 -5 12 -21 12
-23 0 -26 3 -20 25 5 19 2 25 -10 26 -9 1 -22 2 -28 3 -7 0 -18 17 -25 36 -11
35 -11 35 28 53 46 21 49 39 11 77 -32 32 -99 48 -131 31 -11 -6 -38 -11 -60
-11 -34 0 -41 3 -41 20 0 27 -25 25 -45 -2 -13 -19 -25 -23 -75 -24 -33 -1
-65 -6 -72 -11 -21 -16 -62 -23 -78 -13 -19 12 -4 27 30 32 22 3 25 7 23 41
-2 23 2 37 9 37 21 0 68 53 68 77 0 24 -19 30 -37 12 -10 -10 -63 -2 -63 10 0
3 18 22 40 41 42 36 50 57 26 66 -11 4 -9 10 8 28 40 44 66 78 66 87 0 5 51 9
113 9 126 0 157 11 157 57 0 22 3 24 26 19 32 -8 144 12 165 30 8 8 30 19 47
25 25 8 31 16 27 29 -5 15 3 20 48 30 51 12 56 11 76 -9 15 -15 33 -21 66 -21
61 0 69 21 25 62 -30 27 -39 30 -79 25 -37 -4 -53 -1 -78 16 -18 12 -33 28
-33 34 0 7 -18 16 -39 19 -30 5 -41 12 -44 28 -2 11 -5 3 -6 -20 0 -26 -8 -47
-19 -58 -18 -15 -20 -15 -46 9 -15 14 -31 25 -37 25 -17 0 -68 -64 -69 -86 0
-24 -39 -64 -63 -64 -9 0 -17 -4 -17 -10 0 -5 9 -10 20 -10 22 0 26 -10 10
-26 -8 -8 -25 -7 -57 1 -39 10 -47 16 -50 38 -2 15 1 27 7 27 5 0 10 5 10 12
0 6 -3 8 -6 5 -4 -3 -15 -2 -26 4 -14 8 -25 7 -42 -5 -25 -16 -40 -63 -22 -70
6 -2 -4 -5 -22 -5 -18 -1 -42 4 -53 9 -26 14 -16 56 22 91 20 18 29 35 29 56
0 87 24 114 76 86 16 -7 40 -13 54 -11 25 3 25 6 13 49 -4 13 5 19 39 24 23 4
48 11 54 16 6 5 33 11 59 14 47 5 93 11 148 21 15 3 27 11 27 19 0 21 42 43
67 34 11 -4 24 -12 28 -18 8 -14 52 -14 60 -1 10 16 -29 91 -59 117 -23 20
-25 28 -19 68 7 53 -3 57 -57 20z m-1002 -336 c-3 -8 -7 -3 -11 10 -4 17 -3
21 5 13 5 -5 8 -16 6 -23z m232 -59 c0 -5 -7 -10 -15 -10 -8 0 -15 5 -15 10 0
6 7 10 15 10 8 0 15 -4 15 -10z m107 -415 c2 -6 -7 -16 -18 -23 -18 -11 -23
-12 -30 -1 -4 8 -3 19 3 27 12 14 39 13 45 -3z m73 -369 c0 -3 -4 -8 -10 -11
-5 -3 -10 -1 -10 4 0 6 5 11 10 11 6 0 10 -2 10 -4z m120 -256 c0 -5 -2 -10
-4 -10 -3 0 -8 5 -11 10 -3 6 -1 10 4 10 6 0 11 -4 11 -10z m2957 -1222 c-3
-7 -5 -2 -5 12 0 14 2 19 5 13 2 -7 2 -19 0 -25z m-30 -280 c-3 -7 -5 -2 -5
12 0 14 2 19 5 13 2 -7 2 -19 0 -25z m-197 -34 c0 -8 -5 -12 -10 -9 -6 4 -8
11 -5 16 9 14 15 11 15 -7z m200 -44 c0 -5 -5 -10 -11 -10 -5 0 -7 5 -4 10 3
6 8 10 11 10 2 0 4 -4 4 -10z m-2170 -200 c-6 -11 -13 -20 -16 -20 -2 0 0 9 6
20 6 11 13 20 16 20 2 0 0 -9 -6 -20z m610 -180 c0 -5 -4 -10 -10 -10 -5 0
-10 5 -10 10 0 6 5 10 10 10 6 0 10 -4 10 -10z m-36 -100 c-4 -19 -2 -30 5
-30 6 0 11 -5 11 -11 0 -7 -12 -8 -32 -4 -40 9 -37 5 -44 43 -6 31 -6 32 30
32 34 0 35 -1 30 -30z m-241 -26 c4 -23 2 -25 -18 -21 -21 3 -22 2 -14 -21 11
-29 6 -37 -16 -29 -8 4 -15 16 -15 27 0 11 -5 20 -10 20 -6 0 -3 11 6 25 22
34 60 34 67 -1z m609 -26 c-16 -24 -57 -96 -90 -160 -33 -65 -73 -137 -90
-160 -16 -24 -48 -74 -72 -111 -42 -67 -44 -68 -56 -45 -7 13 -13 30 -14 39 0
36 220 334 232 312 3 -4 3 -2 2 5 -5 17 6 43 16 37 4 -2 13 8 21 23 25 50 62
102 71 102 5 0 -4 -19 -20 -42z m-1002 -32 c0 -3 -4 -8 -10 -11 -5 -3 -10 -1
-10 4 0 6 5 11 10 11 6 0 10 -2 10 -4z m130 -32 c0 -9 -5 -14 -12 -12 -18 6
-21 28 -4 28 9 0 16 -7 16 -16z m1623 -37 c14 -9 29 -17 32 -17 9 0 40 -32 40
-41 0 -4 3 -11 7 -15 4 -4 5 -17 2 -29 -3 -13 1 -37 10 -53 10 -19 12 -33 6
-37 -6 -3 -10 -21 -10 -38 0 -60 -67 -207 -95 -207 -7 0 -16 -8 -19 -17 -12
-34 -39 -78 -57 -94 -14 -12 -15 -19 -7 -27 8 -8 8 -12 2 -12 -14 0 -59 -39
-59 -51 0 -5 -4 -13 -10 -17 -5 -4 -21 -28 -35 -54 -13 -27 -31 -48 -38 -48
-7 0 -11 -4 -8 -8 3 -5 -3 -16 -12 -25 -26 -25 -42 -45 -42 -56 0 -5 -7 -11
-15 -15 -8 -3 -15 -1 -15 4 0 6 -9 5 -20 -2 -15 -9 -19 -20 -15 -36 4 -18 0
-25 -23 -35 -16 -7 -30 -15 -30 -20 -1 -4 -5 -15 -10 -23 -13 -24 -25 1 -12
25 15 28 15 28 -42 21 -56 -7 -93 -39 -83 -71 4 -11 -2 -23 -15 -32 -14 -9
-17 -17 -11 -22 17 -10 13 -21 -14 -33 -21 -10 -25 -19 -25 -52 0 -48 -17 -54
-22 -7 -3 28 -6 32 -28 28 -14 -1 -27 -6 -30 -10 -10 -15 -64 -25 -187 -36
-76 -6 -97 5 -41 21 26 8 33 15 35 39 1 16 -3 33 -10 37 -6 4 -8 10 -4 15 5 4
16 -2 25 -13 22 -27 52 -38 52 -20 0 8 6 16 13 19 10 4 10 7 0 18 -14 14 -18
50 -5 47 11 -4 91 36 92 45 0 16 -38 48 -59 50 -12 1 -21 8 -21 17 0 14 -12
27 -49 49 -7 5 -10 14 -7 20 10 16 56 13 62 -4 4 -8 15 -15 26 -15 10 0 16 -4
13 -10 -3 -5 -1 -10 4 -10 6 0 11 5 11 10 0 6 11 10 25 10 14 0 25 -4 25 -10
0 -5 6 -10 13 -10 8 0 19 -11 25 -25 9 -19 19 -25 42 -25 20 0 30 -5 30 -15 0
-19 24 -19 40 0 15 18 3 37 -20 30 -22 -7 -29 10 -23 53 5 32 18 42 26 20 2
-7 8 -9 13 -5 5 4 2 12 -5 16 -19 12 -4 51 20 51 10 0 19 -4 19 -9 0 -5 10 -7
21 -4 16 5 29 -3 50 -27 16 -18 32 -30 36 -27 3 4 8 24 10 46 3 33 0 42 -18
51 -11 7 -38 9 -58 7 -20 -3 -28 -3 -18 0 13 3 17 13 15 31 -2 21 -9 28 -30
30 -24 3 -27 6 -21 33 4 22 2 29 -10 29 -9 0 -19 -4 -22 -10 -3 -5 -16 -10
-28 -10 -21 1 -21 1 -4 14 17 13 17 16 -8 52 -19 28 -25 47 -21 67 3 15 1 27
-5 27 -17 0 -6 65 11 66 30 2 35 4 22 13 -23 14 -22 74 0 109 22 35 48 41 73
16 15 -16 18 -15 45 5 34 25 50 27 50 6 0 -8 5 -15 11 -15 6 0 8 9 4 20 -4 13
-2 20 7 20 20 0 21 -90 2 -111 -9 -10 -13 -23 -9 -29 7 -12 47 23 58 50 3 8 6
-4 6 -27 1 -24 -4 -43 -9 -43 -7 0 -7 -7 0 -21 7 -13 19 -19 33 -17 19 3 22 9
20 48 -2 30 1 40 7 30 14 -22 23 -5 10 19 -6 12 -7 21 -1 21 5 0 12 -6 14 -12
3 -7 6 -3 6 9 1 12 -4 23 -10 25 -8 3 -8 10 2 26 12 19 12 24 1 31 -11 7 -10
10 3 15 26 10 65 7 65 -5 0 -6 -5 -19 -10 -29 -12 -22 7 -41 20 -20 6 10 9 9
12 -1 3 -9 10 -3 19 16 9 17 22 29 32 29 9 -1 14 2 11 7 -3 5 1 9 9 9 19 0 31
131 14 142 -9 6 -9 8 0 8 6 0 18 3 27 6 11 4 16 1 16 -10 0 -9 7 -16 15 -16 8
0 29 -9 47 -20 18 -11 39 -20 46 -20 23 0 -4 34 -45 55 -25 14 -37 27 -35 38
2 11 -2 15 -13 11 -19 -8 -48 3 -41 15 9 14 60 7 89 -12z m1044 1 c-3 -8 -6
-5 -6 6 -1 11 2 17 5 13 3 -3 4 -12 1 -19z m-122 -8 c3 -5 1 -10 -4 -10 -6 0
-11 5 -11 10 0 6 2 10 4 10 3 0 8 -4 11 -10z m-2382 -87 c-6 -15 -62 -18 -64
-3 -1 6 -2 16 -3 23 -2 19 58 26 65 7 3 -8 4 -21 2 -27z m2332 38 c-3 -6 2
-14 11 -19 21 -12 10 -32 -18 -32 -16 0 -19 -5 -15 -21 3 -12 0 -22 -9 -26 -8
-3 -14 -11 -14 -19 0 -7 -8 -19 -18 -26 -10 -7 -24 -22 -30 -33 -11 -19 -11
-19 -12 3 0 18 -5 23 -22 20 -25 -4 -37 -28 -14 -28 19 0 21 -16 4 -23 -7 -2
-10 -8 -6 -12 4 -4 14 -3 21 3 18 15 29 4 18 -17 -4 -9 -7 -27 -7 -41 1 -20 8
-26 44 -33 27 -5 42 -14 42 -23 0 -8 5 -12 10 -9 6 4 10 -10 10 -35 0 -25 4
-39 10 -35 14 9 12 -14 -5 -50 -9 -20 -14 -24 -14 -12 -1 9 -6 16 -12 15 -11
-3 -23 14 -33 45 -4 11 -16 17 -36 17 -35 0 -37 6 -12 33 16 19 16 20 -5 8
-13 -6 -23 -17 -23 -22 0 -20 -52 1 -89 36 -20 19 -42 35 -48 35 -19 0 -16 21
5 36 26 20 42 17 42 -10 0 -28 21 -39 52 -26 22 8 22 9 2 9 -15 1 -20 7 -20
24 1 15 -5 23 -20 25 -18 3 -20 10 -21 67 0 36 3 65 8 65 5 0 9 7 9 16 0 12 6
15 26 10 20 -5 31 -1 52 22 29 31 60 50 101 63 36 10 43 10 36 0z m-735 -42
c0 -5 -4 -9 -10 -9 -5 0 -10 7 -10 16 0 8 5 12 10 9 6 -3 10 -10 10 -16z
m-472 -12 c-1 -2 3 -11 10 -19 20 -24 -9 -44 -40 -27 -14 8 -18 14 -10 17 6 2
12 10 12 18 0 9 5 12 10 9 6 -3 10 -1 10 6 0 7 3 10 6 7 3 -4 4 -8 2 -11z
m-1795 -41 c3 -8 3 -16 0 -19 -9 -10 -33 5 -33 19 0 18 26 18 33 0z m1857 -6
c0 -5 -5 -10 -11 -10 -5 0 -7 5 -4 10 3 6 8 10 11 10 2 0 4 -4 4 -10z m-972
-88 c2 -18 -1 -32 -7 -32 -6 0 -11 13 -11 29 0 16 -6 32 -12 35 -7 3 -4 5 7 3
15 -2 21 -11 23 -35z m592 18 c0 -5 -2 -10 -4 -10 -3 0 -8 5 -11 10 -3 6 -1
10 4 10 6 0 11 -4 11 -10z m-1497 -40 c15 0 18 -3 10 -11 -14 -14 -55 -8 -61
10 -3 10 0 12 12 8 10 -4 27 -7 39 -7z m367 -131 c-7 -11 -14 -18 -17 -15 -8
8 5 36 17 36 7 0 7 -6 0 -21z m-877 -56 c-8 -2 -13 -22 -13 -44 0 -35 -3 -39
-25 -39 -17 0 -25 5 -25 18 0 20 46 72 63 71 9 0 9 -2 0 -6z m177 -7 c0 -2 -9
-6 -20 -9 -11 -3 -20 -1 -20 4 0 5 9 9 20 9 11 0 20 -2 20 -4z m1391 -53 c-7
-33 -42 -93 -53 -93 -4 0 -8 -6 -8 -13 0 -7 -9 -13 -20 -14 -28 -2 -25 14 10
49 17 17 37 45 45 64 17 41 35 45 26 7z m-1771 -80 c0 -33 -43 -50 -48 -19 -2
11 -8 27 -14 33 -6 7 -7 25 -4 39 l7 27 30 -29 c16 -15 29 -38 29 -51z m-130
-57 c30 -8 59 -12 65 -9 5 3 4 0 -2 -8 -7 -7 -13 -23 -13 -36 0 -26 -18 -31
-26 -8 -4 8 -10 15 -15 15 -5 0 -9 -7 -9 -15 0 -19 -9 -19 -34 0 -15 11 -16
15 -5 16 8 0 2 5 -13 11 -24 8 -28 15 -28 46 0 31 2 34 13 19 6 -9 37 -23 67
-31z m2042 -26 c7 -11 16 -20 21 -20 26 0 73 -87 50 -91 -5 -1 -19 -3 -33 -4
-13 -1 -26 -8 -28 -14 -7 -20 -17 -12 -18 14 -3 44 -12 55 -44 55 -29 0 -31 2
-28 33 2 23 7 31 20 29 9 -1 19 2 23 8 10 16 24 12 37 -10z m-1586 -17 c-10
-10 -19 5 -10 18 6 11 8 11 12 0 2 -7 1 -15 -2 -18z m1157 -16 c6 4 21 8 34 9
19 2 23 -2 23 -27 0 -17 4 -28 9 -24 15 8 23 -13 11 -27 -6 -7 -17 -21 -24
-32 -11 -16 -16 -17 -35 -6 l-23 12 21 19 c22 21 27 39 11 39 -5 0 -10 -7 -10
-15 0 -26 -16 -16 -28 18 -11 32 -16 66 -5 39 2 -6 10 -9 16 -5z m-1518 -17
c3 -5 1 -10 -4 -10 -6 0 -11 5 -11 10 0 6 2 10 4 10 3 0 8 -4 11 -10z m1505
-42 c0 -16 -3 -19 -11 -11 -6 6 -8 16 -5 22 11 17 16 13 16 -11z m793 -36 c-3
-12 -12 -22 -19 -22 -19 0 -17 17 4 30 12 8 13 13 5 16 -7 3 -13 13 -13 22 0
13 3 12 14 -4 8 -12 12 -31 9 -42z m167 48 c0 -5 -2 -10 -4 -10 -3 0 -8 5 -11
10 -3 6 -1 10 4 10 6 0 11 -4 11 -10z m-590 -41 c0 -14 -47 -10 -53 4 -4 10 3
12 24 9 16 -2 29 -8 29 -13z m-310 -59 c0 -12 -3 -12 -34 0 -15 5 -26 6 -26 1
0 -5 6 -11 12 -13 9 -3 8 -9 -5 -22 -9 -10 -17 -12 -17 -6 0 7 -8 9 -22 5 -19
-6 -21 -5 -10 6 17 18 15 32 -4 25 -9 -3 -12 -2 -9 5 4 5 16 7 27 4 14 -5 21
-1 25 14 5 19 7 19 34 5 16 -8 29 -19 29 -24z m463 -130 c-3 -11 -9 -17 -14
-15 -10 7 -1 35 11 35 5 0 6 -9 3 -20z m-2708 -63 c61 -22 70 -28 73 -52 4
-34 -7 -82 -16 -69 -19 25 -109 53 -125 38 -11 -11 18 -44 39 -44 23 0 34 -17
34 -51 0 -23 -17 -23 -119 -1 -85 19 -102 36 -82 79 l13 28 24 -30 c24 -29 25
-29 39 -11 17 23 19 36 5 36 -21 0 -26 1 -45 14 -12 8 -30 16 -40 18 -14 4 -7
8 20 13 32 5 44 13 54 37 15 34 15 34 126 -5z m1772 18 c8 -9 13 -19 9 -22 -7
-7 -36 16 -36 28 0 13 10 11 27 -6z m-1412 -15 c3 -5 1 -10 -4 -10 -6 0 -11 5
-11 10 0 6 2 10 4 10 3 0 8 -4 11 -10z m1965 -4 c0 -3 -4 -8 -10 -11 -5 -3
-10 -1 -10 4 0 6 5 11 10 11 6 0 10 -2 10 -4z m1540 -7 c0 -5 4 -8 9 -4 5 3
22 -6 37 -20 32 -29 28 -31 -26 -9 -36 14 -56 44 -30 44 6 0 10 -5 10 -11z
m-1266 -20 c-3 -5 -10 -7 -15 -3 -5 3 -7 10 -3 15 3 5 10 7 15 3 5 -3 7 -10 3
-15z m-2404 -58 c9 -9 25 -21 36 -28 17 -11 16 -12 -11 -12 -17 -1 -35 3 -40
8 -6 6 -25 4 -47 -4 l-38 -13 0 33 c0 32 1 33 42 32 23 0 49 -8 58 -16z m2390
-21 c0 -5 -6 -10 -14 -10 -8 0 -18 5 -21 10 -3 6 3 10 14 10 12 0 21 -4 21
-10z m-2440 -61 c0 -22 -13 -25 -29 -6 -8 10 -7 17 1 25 15 15 28 6 28 -19z
m2820 9 c0 -13 -4 -29 -9 -36 -11 -18 -24 13 -16 39 9 26 25 24 25 -3z m-223
-14 c-3 -3 -12 -4 -19 -1 -8 3 -5 6 6 6 11 1 17 -2 13 -5z m-50 -20 c-3 -3
-12 -4 -19 -1 -8 3 -5 6 6 6 11 1 17 -2 13 -5z m-50 -30 c-3 -3 -12 -4 -19 -1
-8 3 -5 6 6 6 11 1 17 -2 13 -5z m737 -47 c-7 -20 -34 -23 -34 -4 0 19 22 39
32 29 5 -5 6 -16 2 -25z m-3684 1 l9 -23 0 23 c1 20 20 33 22 15 0 -5 2 -17 4
-28 3 -14 -6 -27 -30 -43 -19 -12 -35 -29 -35 -37 0 -8 -8 -14 -17 -13 -40 3
-55 -2 -49 -17 6 -16 2 -18 -31 -9 -30 8 -29 20 2 28 21 5 25 12 25 46 0 36 4
42 27 39 4 0 10 9 15 20 10 28 46 27 58 -1z m3800 12 c0 -5 -5 -10 -11 -10 -5
0 -7 5 -4 10 3 6 8 10 11 10 2 0 4 -4 4 -10z m-14 -61 c-3 -17 -6 -38 -6 -46
0 -8 -4 -12 -9 -9 -4 3 -14 -7 -22 -22 l-13 -27 -4 28 c-3 27 -27 37 -34 15
-9 -26 -39 19 -32 47 6 26 24 45 24 25 0 -6 9 -20 20 -32 l19 -21 17 37 c23
46 49 50 40 5z m-3961 -39 c3 -5 1 -10 -4 -10 -6 0 -11 5 -11 10 0 6 2 10 4
10 3 0 8 -4 11 -10z m10 -90 c10 -11 28 -20 40 -20 25 0 39 -14 48 -48 5 -22
3 -23 -26 -16 -41 8 -47 12 -47 29 0 7 -8 16 -17 19 -14 6 -15 9 -4 15 9 6 5
10 -13 15 -15 4 -24 11 -21 16 9 15 20 12 40 -10z m3935 -30 c0 -5 -5 -10 -11
-10 -5 0 -7 5 -4 10 3 6 8 10 11 10 2 0 4 -4 4 -10z m-3600 -180 c0 -13 -11
-13 -30 0 -12 8 -11 10 8 10 12 0 22 -4 22 -10z m40 -20 c0 -5 -4 -10 -10 -10
-5 0 -10 5 -10 10 0 6 5 10 10 10 6 0 10 -4 10 -10z m1904 -118 c3 -5 2 -19
-1 -31 l-6 -22 -12 23 c-6 13 -10 26 -8 31 5 9 21 9 27 -1z m197 -190 c11 -12
24 -22 28 -22 13 0 51 -68 51 -90 0 -16 -7 -19 -40 -17 -39 1 -50 10 -30 22
14 9 12 47 -4 68 -9 11 -27 17 -52 17 -24 0 -34 3 -26 8 7 5 10 15 7 23 -9 23
42 16 66 -9z m123 -188 c16 -16 19 -74 4 -74 -4 0 -8 -4 -8 -10 0 -5 7 -10 16
-10 9 0 14 -7 12 -17 -2 -11 -11 -17 -21 -15 -9 2 -17 -2 -17 -8 0 -6 -4 -8
-10 -5 -5 3 -10 1 -10 -4 0 -17 -40 -13 -46 4 -8 20 -61 19 -72 -1 -10 -18
-72 -31 -72 -15 0 6 -9 11 -20 11 -11 0 -20 7 -20 15 0 8 9 15 19 15 21 0 61
44 61 66 0 8 12 15 28 15 57 3 71 7 97 28 33 25 39 26 59 5z m156 -63 c6 -12
6 -22 1 -26 -13 -7 33 -56 56 -59 18 -3 21 -42 4 -59 -11 -11 -39 2 -44 21 -4
14 -6 13 -12 -5 -8 -27 -6 -26 -39 -13 -16 6 -26 17 -26 30 0 13 -7 20 -20 20
-24 0 -26 16 -4 38 14 13 14 17 3 21 -19 6 -28 21 -22 38 3 8 22 13 49 13 33
0 46 -5 54 -19z m-480 -97 c-19 -9 -43 -20 -52 -25 -26 -14 -48 -11 -48 6 0 8
6 15 13 15 9 0 9 2 0 8 -7 4 18 8 55 9 l67 2 -35 -15z m190 -33 c0 -6 -4 -13
-10 -16 -5 -3 -10 1 -10 9 0 9 5 16 10 16 6 0 10 -4 10 -9z m27 -13 c-3 -8 -6
-5 -6 6 -1 11 2 17 5 13 3 -3 4 -12 1 -19z m158 12 c-3 -5 -11 -10 -16 -10 -6
0 -7 5 -4 10 3 6 11 10 16 10 6 0 7 -4 4 -10z m506 -30 c10 0 10 -3 1 -12 -9
-9 -15 -8 -27 8 -8 10 -14 24 -14 29 0 6 6 2 13 -7 7 -10 19 -18 27 -18z
m-761 16 c0 -3 -4 -8 -10 -11 -5 -3 -10 -1 -10 4 0 6 5 11 10 11 6 0 10 -2 10
-4z m180 -26 c0 -15 -7 -20 -25 -20 -29 0 -33 15 -7 29 25 15 32 13 32 -9z
m380 -20 c0 -5 -9 -10 -21 -10 -11 0 -17 5 -14 10 3 6 13 10 21 10 8 0 14 -4
14 -10z m-620 -15 c0 -8 -5 -15 -11 -15 -6 0 -9 -7 -5 -15 3 -8 1 -15 -4 -15
-11 0 -13 21 -4 44 8 20 24 21 24 1z m45 -14 c3 -5 -4 -13 -16 -16 -23 -8 -34
-1 -24 14 8 13 32 14 40 2z m-215 -25 c0 -9 -40 -13 -46 -5 -3 5 6 9 20 9 14
0 26 -2 26 -4z"/>
<path d="M3755 2360 c3 -5 13 -10 21 -10 8 0 14 5 14 10 0 6 -9 10 -21 10 -11
0 -17 -4 -14 -10z"/>
<path d="M3658 2353 c7 -3 16 -2 19 1 4 3 -2 6 -13 5 -11 0 -14 -3 -6 -6z"/>
<path d="M3860 2221 c0 -5 10 -11 23 -15 36 -9 42 -7 21 9 -21 16 -44 19 -44
6z"/>
<path d="M3507 1829 c-9 -33 -9 -49 2 -49 12 0 19 32 11 55 -6 17 -7 17 -13
-6z"/>
<path d="M4880 2499 c0 -5 5 -7 10 -4 6 3 10 8 10 11 0 2 -4 4 -10 4 -5 0 -10
-5 -10 -11z"/>
<path d="M4915 2370 c3 -5 15 -10 26 -10 11 0 17 5 14 10 -3 6 -15 10 -26 10
-11 0 -17 -4 -14 -10z"/>
<path d="M2683 443 c9 -2 23 -2 30 0 6 3 -1 5 -18 5 -16 0 -22 -2 -12 -5z"/>
<path d="M2864 361 c3 -5 15 -7 26 -4 28 7 25 13 -6 13 -14 0 -23 -4 -20 -9z"/>
<path d="M3780 6382 c0 -33 25 -55 66 -57 21 -1 54 -8 71 -16 40 -16 59 -3 49
35 -5 21 -13 26 -36 26 -16 0 -39 4 -52 9 -13 4 -40 11 -60 15 -33 6 -38 4
-38 -12z"/>
<path d="M3248 6357 c-24 -18 -51 -36 -60 -40 -10 -3 -18 -13 -18 -22 0 -8 -9
-24 -21 -36 -44 -44 33 -67 101 -29 19 10 54 28 78 40 46 23 47 25 30 81 -9
33 -15 39 -39 39 -16 0 -46 -14 -71 -33z"/>
<path d="M2925 6278 c-31 -18 -36 -32 -13 -41 37 -13 91 13 81 39 -6 17 -40
18 -68 2z"/>
<path d="M4152 6256 c-35 -51 -17 -74 86 -109 30 -11 45 -11 61 -3 l21 11 -21
35 c-27 44 -64 80 -84 80 -8 0 -15 5 -15 10 0 21 -26 8 -48 -24z"/>
<path d="M4135 6270 c4 -6 11 -8 16 -5 14 9 11 15 -7 15 -8 0 -12 -5 -9 -10z"/>
<path d="M4447 6206 c-26 -21 -28 -27 -22 -67 10 -72 47 -87 106 -43 19 14 40
29 48 33 10 6 2 20 -33 55 -26 25 -52 46 -59 46 -6 -1 -25 -11 -40 -24z"/>
<path d="M3067 6174 c-13 -13 -7 -24 14 -24 11 0 19 5 17 12 -5 14 -22 21 -31
12z"/>
<path d="M2493 6123 c-23 -8 -14 -20 20 -28 17 -5 37 -9 44 -9 31 -3 21 -16
-20 -27 -44 -10 -64 -30 -51 -50 3 -5 29 -9 59 -9 30 0 66 -5 82 -11 61 -23
192 25 177 65 -6 17 -48 36 -77 36 -13 0 -47 6 -77 14 -63 16 -139 25 -157 19z"/>
<path d="M2050 6071 l0 -41 39 0 c22 0 43 5 46 10 11 18 -5 48 -28 53 -12 2
-30 8 -39 12 -16 6 -18 1 -18 -34z"/>
<path d="M1880 6069 c0 -5 5 -7 10 -4 6 3 10 8 10 11 0 2 -4 4 -10 4 -5 0 -10
-5 -10 -11z"/>
<path d="M3286 5985 c-62 -14 -77 -26 -69 -56 6 -20 43 -30 108 -27 22 0 50
-2 63 -7 17 -6 22 -4 22 10 0 9 8 30 17 46 16 26 16 31 3 39 -20 13 -71 11
-144 -5z"/>
<path d="M6328 5959 c-3 -9 -3 -20 0 -25 10 -13 32 -16 32 -4 0 6 -4 10 -9 10
-5 0 -11 8 -13 18 -3 15 -4 15 -10 1z"/>
<path d="M6090 5927 c-31 -16 -53 -57 -39 -73 15 -18 114 -13 114 6 0 8 6 25
13 38 7 12 10 27 7 32 -9 14 -65 12 -95 -3z"/>
<path d="M6485 5926 c-12 -8 -16 -19 -12 -30 8 -20 26 -17 41 7 16 24 -5 41
-29 23z"/>
<path d="M2569 5833 c-16 -42 -8 -58 26 -55 17 2 43 11 58 21 l29 18 -27 22
c-39 30 -73 28 -86 -6z"/>
<path d="M3403 5839 c-6 -6 -9 -17 -7 -23 3 -7 -10 -19 -29 -28 -44 -21 -136
-80 -167 -108 -14 -12 -45 -39 -70 -59 -25 -20 -46 -39 -48 -43 -2 -5 -12 -8
-23 -8 -11 0 -19 -7 -19 -18 0 -9 -10 -29 -22 -42 -13 -14 -32 -36 -43 -49
l-20 -24 29 7 c16 4 144 48 285 98 l256 91 110 1 c99 1 117 -2 180 -28 39 -16
73 -34 78 -40 5 -8 10 -6 18 4 9 13 10 13 6 -2 -8 -22 31 -47 58 -38 11 4 25
5 32 3 15 -6 21 61 9 102 -11 38 -32 55 -67 55 -15 0 -29 5 -31 12 -3 8 -25
12 -68 10 -59 -3 -67 0 -121 38 -44 31 -78 45 -151 61 -51 12 -94 26 -96 30
-5 13 -66 11 -79 -2z"/>
<path d="M4366 5772 c-4 -7 -22 -12 -39 -12 -38 0 -68 -34 -40 -44 13 -5 8
-12 -23 -33 -81 -54 -136 -107 -189 -183 -30 -43 -55 -83 -55 -89 0 -21 32
-61 49 -61 22 0 207 76 289 118 70 36 71 41 47 132 -8 30 -15 75 -16 100 -1
54 -12 89 -23 72z"/>
<path d="M2092 5735 c-11 -13 -9 -15 13 -15 16 0 25 5 23 12 -6 18 -21 19 -36
3z"/>
<path d="M1798 5633 c-24 -6 -23 -35 2 -51 17 -11 23 -10 37 4 27 26 0 57 -39
47z"/>
<path d="M1813 5463 c-3 -10 -8 -21 -10 -26 -2 -4 8 -12 23 -17 35 -14 56 4
43 38 -10 26 -47 30 -56 5z"/>
<path d="M3390 5461 c-138 -28 -166 -187 -60 -348 32 -48 77 -90 86 -80 3 3
-5 25 -17 49 -14 28 -24 68 -27 114 -4 62 -1 79 21 125 26 57 51 88 94 116 23
16 24 17 7 24 -23 9 -57 9 -104 0z"/>
<path d="M1911 5417 c-14 -17 -5 -27 24 -27 24 0 49 22 38 33 -11 12 -50 8
-62 -6z"/>
<path d="M1760 5345 c0 -8 7 -15 15 -15 8 0 15 4 15 9 0 5 -7 11 -15 15 -9 3
-15 0 -15 -9z"/>
<path d="M2162 5309 c-13 -5 -21 -13 -17 -19 3 -5 -8 -24 -24 -41 -29 -30 -30
-32 -13 -55 21 -29 39 -30 47 -4 6 18 56 39 95 40 18 1 50 24 50 37 0 10 -84
53 -103 52 -6 0 -22 -4 -35 -10z"/>
<path d="M2460 5265 c0 -27 6 -30 29 -16 17 11 7 41 -14 41 -9 0 -15 -9 -15
-25z"/>
<path d="M7346 5271 c-3 -5 1 -11 9 -15 8 -3 15 -1 15 4 0 13 -18 22 -24 11z"/>
<path d="M6415 5193 c-15 -35 -15 -39 1 -50 40 -29 64 -8 68 57 1 20 -4 26
-26 28 -23 3 -30 -2 -43 -35z"/>
<path d="M2155 5170 c-8 -24 21 -64 37 -53 6 3 14 -1 19 -8 6 -9 9 1 7 31 -3
40 -6 45 -30 48 -20 2 -28 -2 -33 -18z"/>
<path d="M7195 5170 c-8 -13 13 -50 28 -50 19 0 37 21 37 42 0 13 -8 18 -29
18 -17 0 -33 -4 -36 -10z"/>
<path d="M6560 5040 c0 -5 12 -10 26 -10 14 0 23 4 19 10 -3 6 -15 10 -26 10
-10 0 -19 -4 -19 -10z"/>
<path d="M7397 5038 c-15 -5 -26 -15 -24 -21 6 -20 50 -37 92 -37 68 0 77 18
25 53 -27 19 -52 20 -93 5z"/>
<path d="M6774 5029 c-47 -13 -55 -28 -42 -72 6 -20 15 -37 20 -37 20 0 58 34
58 51 0 10 4 20 9 23 10 6 3 47 -8 45 -3 0 -20 -5 -37 -10z"/>
<path d="M8190 5022 c-35 -28 -16 -48 21 -22 16 12 29 26 29 31 0 15 -26 10
-50 -9z"/>
<path d="M2268 4963 c-66 -20 -63 -40 5 -38 28 2 58 3 65 4 6 0 12 12 12 26 0
29 -11 30 -82 8z"/>
<path d="M8195 4950 c3 -5 8 -10 11 -10 2 0 4 5 4 10 0 6 -5 10 -11 10 -5 0
-7 -4 -4 -10z"/>
<path d="M6962 4858 c-27 -27 -8 -49 55 -63 25 -5 39 -2 57 12 l24 19 -34 22
c-37 24 -83 29 -102 10z"/>
<path d="M1880 4825 c-7 -9 -10 -19 -6 -22 4 -4 11 -1 17 7 8 13 10 13 19 0 5
-8 8 -21 5 -27 -3 -10 0 -10 15 0 24 14 26 27 5 27 -9 0 -18 7 -21 15 -8 19
-18 19 -34 0z"/>
<path d="M3563 4771 c-53 -25 -73 -62 -73 -138 0 -77 41 -158 120 -235 33 -32
61 -58 63 -58 3 0 -9 27 -26 61 -25 51 -30 72 -31 137 -1 91 21 145 85 211
l41 41 -69 0 c-45 0 -82 -7 -110 -19z"/>
<path d="M8215 4730 c-11 -18 13 -49 35 -43 25 7 25 15 2 36 -21 20 -28 21
-37 7z"/>
<path d="M6997 4713 c-14 -14 -6 -23 21 -23 39 0 73 11 66 21 -6 10 -77 12
-87 2z"/>
<path d="M2848 4529 c-58 -9 -114 -41 -132 -77 -62 -123 16 -296 177 -391 34
-20 39 -21 26 -5 -51 60 -83 163 -76 245 9 105 42 167 112 210 25 16 27 19 10
20 -11 0 -31 1 -45 2 -14 2 -46 -1 -72 -4z"/>
<path d="M1210 4332 c0 -11 18 -67 39 -124 77 -205 132 -356 190 -528 104
-309 131 -374 154 -383 43 -16 173 59 232 134 70 91 99 237 71 368 -16 78 -59
179 -93 220 -19 23 -20 23 -41 5 -12 -10 -22 -25 -22 -32 0 -8 -6 -12 -14 -9
-8 3 -20 -2 -28 -10 -11 -15 -11 -16 6 -10 17 7 17 5 -3 -25 -17 -28 -26 -33
-61 -34 -40 -1 -40 -1 -40 38 0 21 -4 38 -10 38 -5 0 -10 14 -10 31 0 26 3 29
20 24 24 -8 27 10 5 31 -17 18 -9 44 14 44 19 1 45 20 48 37 4 18 -63 78 -117
105 -24 13 -50 28 -58 35 -21 20 -142 54 -214 60 -64 5 -68 4 -68 -15z m440
-182 c0 -22 -16 -35 -25 -20 -3 5 -2 10 3 10 6 0 8 10 4 22 -3 14 -2 19 6 14
7 -4 12 -16 12 -26z m-50 -270 c0 -5 -18 -10 -40 -10 -22 0 -40 5 -40 10 0 6
18 10 40 10 22 0 40 -4 40 -10z"/>
<path d="M7420 4200 c0 -14 7 -20 24 -20 23 0 41 22 29 34 -4 3 -17 6 -30 6
-16 0 -23 -6 -23 -20z"/>
<path d="M6223 4194 c-16 -7 -17 -40 -3 -49 6 -4 44 -15 85 -24 61 -15 78 -16
92 -6 16 12 16 14 0 39 -10 14 -23 26 -30 27 -59 3 -86 6 -107 12 -14 3 -31 3
-37 1z"/>
<path d="M1683 4135 c0 -8 4 -15 9 -15 4 0 8 4 8 9 0 6 -4 12 -8 15 -5 3 -9
-1 -9 -9z"/>
<path d="M3885 4119 c-52 -12 -133 -74 -157 -121 -13 -25 -19 -58 -20 -108 0
-66 3 -80 42 -157 42 -81 72 -114 85 -93 3 5 2 10 -3 10 -25 0 -40 190 -21
267 7 29 15 53 20 53 4 0 9 10 13 23 5 21 54 75 106 116 l25 20 -25 0 c-14 -1
-43 -5 -65 -10z"/>
<path d="M7550 4110 c0 -23 34 -40 80 -40 38 0 48 28 12 36 -15 3 -40 10 -56
15 -38 12 -36 12 -36 -11z"/>
<path d="M1720 4070 c-8 -11 -20 -18 -27 -15 -7 2 -13 0 -13 -4 0 -5 6 -11 12
-13 16 -6 51 27 46 42 -2 6 -10 1 -18 -10z"/>
<path d="M1751 4051 c-8 -5 -9 -11 -3 -15 5 -3 12 1 16 9 6 17 6 18 -13 6z"/>
<path d="M7222 4010 c-10 -17 -10 -21 0 -24 7 -2 32 -9 54 -15 23 -6 47 -18
54 -26 7 -8 19 -15 27 -15 13 0 13 3 3 15 -10 12 -9 16 4 21 30 12 16 32 -33
48 -66 21 -94 20 -109 -4z"/>
<path d="M1710 4009 c0 -5 5 -7 10 -4 6 3 10 8 10 11 0 2 -4 4 -10 4 -5 0 -10
-5 -10 -11z"/>
<path d="M6056 3941 c-3 -5 -14 -7 -24 -4 -10 2 -26 -5 -37 -17 -30 -33 -10
-55 50 -55 44 0 50 3 67 34 l19 33 -27 -6 c-21 -6 -25 -4 -21 8 7 17 -18 23
-27 7z"/>
<path d="M5050 3921 c1 -18 18 -30 38 -24 31 8 27 20 -8 25 -16 3 -30 2 -30
-1z"/>
<path d="M6159 3905 c-4 -3 -5 -15 -2 -26 7 -24 70 -27 80 -4 3 9 3 18 0 21
-8 8 -72 16 -78 9z"/>
<path d="M7665 3891 c-8 -15 3 -31 21 -31 9 0 14 7 12 17 -4 20 -24 28 -33 14z"/>
<path d="M5565 3880 c-12 -20 6 -70 24 -70 10 0 30 -9 44 -20 33 -26 59 -25
86 4 19 20 22 29 14 53 -8 22 -18 29 -49 35 -58 10 -112 9 -119 -2z"/>
<path d="M3093 3859 c-18 -5 -35 -14 -38 -19 -3 -6 -14 -10 -24 -10 -26 0 -85
-69 -106 -124 -25 -65 -16 -169 22 -245 29 -57 135 -171 159 -171 8 0 14 -4
14 -10 0 -5 5 -10 11 -10 6 0 -4 18 -23 39 -64 75 -91 186 -76 309 12 98 65
185 143 233 l30 19 -40 -1 c-22 0 -54 -5 -72 -10z"/>
<path d="M5066 3798 c-19 -26 -8 -41 25 -36 18 2 24 9 24 28 0 33 -28 38 -49
8z"/>
<path d="M6567 3788 c-20 -11 -22 -31 -3 -47 14 -12 76 3 76 19 0 22 -50 41
-73 28z"/>
<path d="M7614 3705 c-4 -14 -4 -28 -1 -31 15 -15 85 -22 120 -13 33 9 37 13
31 32 -10 31 -22 37 -86 37 -53 0 -58 -2 -64 -25z"/>
<path d="M5407 3693 c-12 -11 -8 -21 24 -58 37 -42 69 -47 69 -10 0 15 -6 25
-15 25 -8 0 -17 11 -21 25 -4 17 -13 25 -28 25 -13 0 -26 -3 -29 -7z"/>
<path d="M6842 3628 c-18 -18 -14 -36 12 -54 30 -19 65 -15 80 9 22 36 -61 76
-92 45z"/>
<path d="M3840 3612 c0 -12 19 -26 26 -19 2 2 -2 10 -11 17 -9 8 -15 8 -15 2z"/>
<path d="M8576 3591 c-3 -4 1 -17 9 -27 14 -18 14 -18 15 9 0 26 -13 36 -24
18z"/>
<path d="M6532 3570 c-12 -12 -22 -24 -22 -28 0 -12 23 -32 36 -32 19 0 76 58
69 70 -11 17 -60 11 -83 -10z"/>
<path d="M7603 3538 c-14 -7 -23 -20 -23 -35 0 -20 5 -23 39 -23 26 0 41 5 45
16 8 21 8 20 -10 38 -18 18 -21 19 -51 4z"/>
<path d="M4510 3489 c0 -5 5 -7 10 -4 6 3 10 8 10 11 0 2 -4 4 -10 4 -5 0 -10
-5 -10 -11z"/>
<path d="M4515 3460 c-18 -20 -18 -21 5 -12 13 5 26 14 28 20 6 19 -13 14 -33
-8z"/>
<path d="M8378 3449 c-23 -13 -23 -36 1 -49 15 -7 25 -5 42 9 41 33 3 68 -43
40z"/>
<path d="M6530 3411 c-34 -9 -35 -46 -1 -46 27 0 51 29 36 43 -6 5 -21 6 -35
3z"/>
<path d="M7523 3409 c-29 -8 -33 -14 -35 -44 -1 -19 -2 -42 -2 -52 -1 -9 5
-18 12 -20 7 -3 12 4 12 15 0 36 12 52 52 73 60 31 35 49 -39 28z"/>
<path d="M4385 3360 c3 -5 8 -10 11 -10 2 0 4 5 4 10 0 6 -5 10 -11 10 -5 0
-7 -4 -4 -10z"/>
<path d="M8483 3362 c-31 -5 -29 -26 2 -40 36 -17 75 -15 75 3 0 19 -48 42
-77 37z"/>
<path d="M5958 3349 c-34 -19 -12 -65 28 -58 23 4 34 -3 34 -21 0 -13 -9 -21
-27 -26 -16 -3 -38 -9 -49 -14 -14 -6 -31 -3 -50 6 -23 12 -99 15 -130 4 -1 0
-1 -8 0 -17 1 -16 -7 -18 -54 -15 -69 4 -115 -4 -135 -24 -22 -22 -19 -31 17
-64 l32 -29 -12 -63 c-21 -109 -17 -204 11 -288 13 -41 27 -103 30 -137 4 -34
7 -65 8 -70 1 -4 1 -20 0 -34 -1 -26 -2 -26 -48 -18 -92 15 -143 17 -150 6 -4
-6 -6 -31 -4 -55 2 -35 -2 -47 -18 -59 -26 -17 -27 -38 -3 -55 9 -7 25 -25 34
-39 22 -35 53 -240 53 -359 0 -84 3 -101 28 -147 15 -29 27 -61 27 -71 0 -65
132 -236 214 -277 57 -28 75 -45 97 -88 l20 -39 112 8 c62 4 118 7 125 7 28 0
8 17 -65 57 -94 50 -183 139 -183 184 0 7 -6 16 -14 19 -7 3 -16 18 -19 34
-20 94 -32 123 -49 117 -15 -4 -16 -1 -8 23 5 15 10 82 12 148 3 66 1 109 -2
95 -17 -72 -27 89 -11 180 8 41 9 37 11 -40 2 -71 4 -79 10 -45 4 22 5 45 3
52 -5 12 11 181 23 243 4 24 7 25 77 23 39 -2 101 -6 136 -9 73 -7 69 -17 30
91 -11 33 -22 85 -23 116 l-1 56 -23 -15 c-21 -14 -26 -13 -50 5 -16 12 -33
40 -43 68 -8 27 -20 50 -25 52 -6 2 -23 -8 -37 -21 -46 -43 -71 -12 -80 94 -8
94 29 198 96 268 34 36 144 102 169 102 11 0 14 14 14 64 -1 35 -3 66 -6 69
-12 10 -116 15 -132 6z m-131 -1121 c-3 -8 -6 -5 -6 6 -1 11 2 17 5 13 3 -3 4
-12 1 -19z m-40 -415 c-3 -10 -5 -4 -5 12 0 17 2 24 5 18 2 -7 2 -21 0 -30z"/>
<path d="M7336 3281 c-3 -5 9 -22 28 -39 37 -33 70 -35 112 -7 19 12 22 19 14
34 -8 15 -22 19 -79 20 -39 0 -72 -3 -75 -8z"/>
<path d="M6990 3212 c0 -32 33 -52 82 -52 41 0 46 2 41 20 -8 30 -42 50 -85
50 -30 0 -38 -4 -38 -18z"/>
<path d="M4386 3211 c-4 -7 -5 -15 -2 -18 9 -9 19 4 14 18 -4 11 -6 11 -12 0z"/>
<path d="M8469 2966 c0 0 -2 -9 -4 -19 -3 -14 8 -23 40 -37 31 -13 46 -27 51
-45 3 -14 15 -30 25 -36 18 -9 19 -5 19 45 l0 56 -29 -6 c-23 -5 -32 -2 -40
14 -6 11 -22 22 -36 24 -14 3 -25 5 -26 4z"/>
<path d="M3140 2825 c0 -8 7 -15 15 -15 8 0 15 4 15 9 0 5 -7 11 -15 15 -9 3
-15 0 -15 -9z"/>
<path d="M8005 2800 c-3 -5 -1 -19 5 -30 10 -18 7 -25 -15 -46 -21 -19 -24
-27 -15 -43 20 -38 41 -51 84 -51 l43 0 -1 38 c-1 33 2 37 26 40 14 2 32 9 38
17 10 11 6 15 -17 20 -48 11 -73 24 -73 39 0 23 -62 37 -75 16z"/>
<path d="M8276 2785 c-3 -9 0 -18 9 -21 21 -8 47 3 43 19 -7 18 -45 20 -52 2z"/>
<path d="M6320 2696 c0 -20 98 -106 120 -106 40 0 14 48 -52 96 -35 26 -68 31
-68 10z"/>
<path d="M7137 2654 c-30 -20 -38 -31 -35 -51 3 -24 6 -25 68 -27 82 -2 110 9
110 43 0 19 -9 32 -29 44 -40 24 -70 21 -114 -9z"/>
<path d="M7361 2610 c-29 -16 -60 -35 -67 -41 -21 -17 -17 -57 6 -64 29 -9 57
2 118 47 40 30 52 45 50 61 -5 33 -45 32 -107 -3z"/>
<path d="M5195 2576 c-14 -14 -31 -26 -38 -26 -8 0 -13 -16 -13 -40 -2 -48 25
-60 43 -19 9 22 20 28 63 34 77 11 79 56 3 71 -26 5 -37 1 -58 -20z m12 -18
c-3 -8 -6 -5 -6 6 -1 11 2 17 5 13 3 -3 4 -12 1 -19z m-40 -60 c-3 -8 -6 -5
-6 6 -1 11 2 17 5 13 3 -3 4 -12 1 -19z"/>
<path d="M2190 2543 c0 -24 5 -43 10 -43 13 0 13 50 0 70 -7 11 -10 4 -10 -27z"/>
<path d="M8215 2550 c10 -11 24 -20 32 -20 7 0 13 9 13 20 0 16 -7 20 -32 20
-30 0 -31 0 -13 -20z"/>
<path d="M7085 2540 c-11 -5 -49 -9 -84 -9 -84 -1 -136 -18 -177 -57 -30 -27
-34 -38 -34 -82 0 -58 0 -58 100 -68 l72 -7 -4 44 c-4 41 -2 47 35 81 22 21
60 45 86 55 51 19 66 33 48 45 -14 9 -16 9 -42 -2z"/>
<path d="M1890 2515 c0 -8 5 -15 10 -15 6 0 10 6 10 13 0 8 4 7 10 -3 8 -13
10 -12 10 3 0 10 -8 17 -20 17 -11 0 -20 -7 -20 -15z"/>
<path d="M7156 2522 c-3 -6 -1 -14 5 -17 15 -10 25 3 12 16 -7 7 -13 7 -17 1z"/>
<path d="M7835 2420 c3 -5 8 -10 11 -10 2 0 4 5 4 10 0 6 -5 10 -11 10 -5 0
-7 -4 -4 -10z"/>
<path d="M1984 2325 c-4 -8 -4 -22 0 -30 7 -20 36 -8 36 15 0 23 -29 35 -36
15z"/>
<path d="M5256 2311 c-4 -7 -5 -15 -2 -18 9 -9 19 4 14 18 -4 11 -6 11 -12 0z"/>
<path d="M5280 2291 c0 -11 4 -21 9 -21 18 0 21 18 6 30 -13 10 -15 9 -15 -9z"/>
<path d="M1800 2195 c0 -8 9 -19 19 -24 15 -8 20 -7 25 5 3 9 4 20 0 25 -9 15
-44 10 -44 -6z"/>
<path d="M1920 2196 c0 -7 -7 -19 -15 -26 -8 -7 -15 -20 -14 -29 0 -10 2 -11
6 -3 2 6 11 12 18 12 7 0 15 14 17 30 3 17 1 30 -4 30 -4 0 -8 -6 -8 -14z"/>
<path d="M1777 2153 c-12 -11 -8 -23 8 -23 8 0 15 7 15 15 0 16 -12 20 -23 8z"/>
<path d="M1820 2106 c0 -15 18 -31 26 -23 7 7 -7 37 -17 37 -5 0 -9 -6 -9 -14z"/>
<path d="M8380 1986 c-9 -12 -5 -18 20 -31 30 -16 60 -15 60 2 -1 30 -60 52
-80 29z"/>
<path d="M2213 1975 c-8 -23 4 -30 22 -12 19 20 19 27 0 27 -9 0 -18 -7 -22
-15z"/>
<path d="M4717 1926 c-4 -11 -13 -16 -22 -12 -9 3 -16 -1 -16 -9 -1 -8 -2 -20
-3 -27 -1 -6 9 -13 22 -14 16 -3 22 1 22 16 0 12 7 20 18 20 13 0 14 -2 3 -9
-11 -7 -9 -11 8 -20 22 -12 41 -7 41 10 0 5 -5 9 -10 9 -6 0 -21 12 -34 27
-20 23 -23 24 -29 9z"/>
<path d="M4780 1909 c0 -5 5 -7 10 -4 6 3 10 8 10 11 0 2 -4 4 -10 4 -5 0 -10
-5 -10 -11z"/>
<path d="M747 1896 c-6 -16 11 -26 31 -19 10 4 10 8 1 19 -15 18 -25 18 -32 0z"/>
<path d="M8254 1896 c-15 -12 -17 -18 -8 -33 15 -23 70 -22 93 2 15 15 15 17
-3 31 -25 18 -57 18 -82 0z"/>
<path d="M1408 1882 c-27 -16 -37 -45 -19 -56 4 -3 8 -16 7 -28 -1 -17 -7 -23
-26 -23 -14 0 -25 -6 -24 -13 1 -6 2 -26 3 -43 1 -23 5 -30 19 -27 10 2 17 13
17 27 0 28 19 38 39 22 17 -15 27 6 32 70 3 33 0 50 -11 59 -8 7 -12 16 -9 21
7 12 3 11 -28 -9z"/>
<path d="M1057 1864 c-9 -31 -2 -87 11 -92 12 -4 16 19 12 68 -2 33 -17 47
-23 24z"/>
<path d="M4623 1783 c-18 -7 -16 -30 2 -37 11 -4 15 1 15 19 0 14 -1 25 -2 24
-2 0 -9 -3 -15 -6z"/>
<path d="M8028 1773 c7 -3 16 -2 19 1 4 3 -2 6 -13 5 -11 0 -14 -3 -6 -6z"/>
<path d="M1410 1666 c0 -9 5 -16 10 -16 6 0 10 4 10 9 0 6 -4 13 -10 16 -5 3
-10 -1 -10 -9z"/>
<path d="M3228 1433 c6 -2 18 -2 25 0 6 3 1 5 -13 5 -14 0 -19 -2 -12 -5z"/>
<path d="M4307 1424 c-4 -4 -7 -14 -7 -23 0 -11 3 -12 11 -4 6 6 10 16 7 23
-2 6 -7 8 -11 4z"/>
<path d="M4282 1364 c-9 -10 -10 -19 -3 -31 8 -15 10 -14 16 10 9 33 5 40 -13
21z"/>
<path d="M746 1351 c-5 -8 -3 -17 5 -22 17 -11 39 -12 23 -1 -6 4 -13 14 -16
22 -3 11 -6 11 -12 1z"/>
<path d="M790 1341 c0 -8 41 -23 47 -17 2 1 -8 8 -22 14 -14 6 -25 8 -25 3z"/>
<path d="M397 1310 c3 -11 9 -20 14 -20 5 0 9 9 9 20 0 11 -6 20 -14 20 -9 0
-12 -7 -9 -20z"/>
<path d="M1911 1304 c0 -11 3 -14 6 -6 3 7 2 16 -1 19 -3 4 -6 -2 -5 -13z"/>
<path d="M8193 1273 c-3 -10 -8 -21 -10 -25 -2 -5 0 -8 4 -8 14 0 34 38 23 45
-6 4 -13 -2 -17 -12z"/>
<path d="M656 1246 c3 -9 11 -16 16 -16 13 0 5 23 -10 28 -7 2 -10 -2 -6 -12z"/>
<path d="M6315 1240 c-8 -25 3 -47 28 -54 28 -7 41 7 33 37 -7 31 -53 43 -61
17z"/>
<path d="M690 1241 c0 -18 18 -21 30 -6 10 13 9 15 -9 15 -11 0 -21 -4 -21 -9z"/>
<path d="M6805 1240 c-3 -5 3 -20 15 -32 16 -17 20 -33 18 -68 -3 -44 -2 -45
29 -48 20 -2 34 -10 38 -20 7 -24 62 -56 70 -41 4 5 -1 13 -11 15 -33 9 -54
48 -45 82 8 25 5 34 -15 53 -13 12 -24 33 -24 46 0 20 -5 23 -34 23 -19 0 -38
-4 -41 -10z"/>
<path d="M7183 1194 c-36 -22 -41 -29 -33 -45 29 -53 117 -64 164 -20 12 12
28 21 34 21 16 0 15 35 -1 48 -7 6 -38 14 -68 17 -46 5 -60 2 -96 -21z"/>
<path d="M4757 1145 c-16 -22 -16 -26 -2 -31 16 -7 75 13 75 25 0 13 -24 31
-39 31 -9 0 -24 -12 -34 -25z"/>
<path d="M675 1120 c-3 -5 1 -10 9 -10 8 0 18 5 21 10 3 6 -1 10 -9 10 -8 0
-18 -4 -21 -10z"/>
<path d="M3688 1083 c6 -2 18 -2 25 0 6 3 1 5 -13 5 -14 0 -19 -2 -12 -5z"/>
<path d="M3573 1072 c-30 -5 -36 -28 -10 -44 34 -21 52 -16 49 12 -3 30 -11
37 -39 32z"/>
<path d="M720 1045 c0 -10 7 -15 18 -13 21 4 19 22 -2 26 -10 2 -16 -3 -16
-13z"/>
<path d="M4517 1053 c-11 -10 -8 -41 4 -49 17 -10 32 12 24 35 -6 21 -16 26
-28 14z"/>
<path d="M5982 1048 c6 -16 36 -34 44 -26 3 4 4 14 1 23 -7 17 -51 21 -45 3z"/>
<path d="M0 1010 c0 -28 2 -30 40 -30 l41 0 -2 -80 c-1 -45 1 -83 3 -86 8 -7
61 15 70 29 4 7 8 29 8 50 0 31 -3 37 -21 37 -19 0 -21 5 -17 45 3 41 1 45
-19 45 -13 0 -23 5 -23 10 0 6 -18 10 -40 10 -38 0 -40 -2 -40 -30z"/>
<path d="M7689 1020 c20 -17 71 -28 71 -16 0 8 -63 36 -79 36 -12 -1 -10 -5 8
-20z"/>
<path d="M8152 1028 c-13 -13 -4 -38 14 -38 15 0 19 35 6 44 -5 3 -14 0 -20
-6z"/>
<path d="M3591 974 c0 -11 3 -14 6 -6 3 7 2 16 -1 19 -3 4 -6 -2 -5 -13z"/>
<path d="M900 970 c0 -5 5 -10 10 -10 6 0 10 5 10 10 0 6 -4 10 -10 10 -5 0
-10 -4 -10 -10z"/>
<path d="M180 960 c0 -5 5 -10 10 -10 6 0 10 5 10 10 0 6 -4 10 -10 10 -5 0
-10 -4 -10 -10z"/>
<path d="M3437 931 c-3 -14 -1 -18 9 -14 16 6 18 19 5 27 -5 3 -11 -3 -14 -13z"/>
<path d="M3630 919 c0 -5 5 -7 10 -4 6 3 10 8 10 11 0 2 -4 4 -10 4 -5 0 -10
-5 -10 -11z"/>
<path d="M3955 891 c-7 -12 12 -24 25 -16 11 7 4 25 -10 25 -5 0 -11 -4 -15
-9z"/>
<path d="M2164 883 c4 -4 16 -8 28 -10 28 -4 18 6 -12 12 -12 2 -20 1 -16 -2z"/>
<path d="M3440 876 c0 -9 7 -16 16 -16 17 0 14 22 -4 28 -7 2 -12 -3 -12 -12z"/>
<path d="M4803 858 c-14 -17 -11 -84 5 -100 8 -8 44 -12 97 -13 47 0 85 0 85
1 0 22 -28 65 -48 74 -15 6 -38 17 -52 25 -41 22 -75 28 -87 13z"/>
<path d="M10 829 c0 -11 4 -17 10 -14 13 8 13 35 0 35 -5 0 -10 -9 -10 -21z"/>
<path d="M320 841 c0 -5 -3 -17 -7 -27 -4 -11 -3 -15 5 -10 6 3 27 -4 46 -18
29 -20 33 -25 18 -30 -9 -4 -28 -13 -42 -22 -24 -15 -24 -15 18 -9 43 7 48 2
43 -42 -1 -8 11 -13 34 -13 19 0 35 5 35 10 0 6 -7 10 -16 10 -8 0 -12 5 -9
11 27 42 -11 110 -67 124 -16 4 -28 11 -28 16 0 5 -7 9 -15 9 -8 0 -15 -4 -15
-9z"/>
<path d="M5211 823 l-22 -18 37 -35 c21 -20 39 -30 41 -23 2 6 13 21 24 34 23
27 24 45 3 53 -28 11 -61 6 -83 -11z"/>
<path d="M4020 811 c0 -10 -5 -21 -11 -23 -15 -5 -20 -76 -6 -85 6 -4 8 0 4
10 -3 9 1 18 10 21 9 4 17 -1 20 -14 7 -25 20 -26 28 -1 6 21 -3 51 -16 51 -5
0 -9 11 -9 24 0 14 -4 28 -10 31 -5 3 -10 -3 -10 -14z"/>
<path d="M257 802 c-20 -22 -21 -32 -6 -32 12 0 38 29 39 43 0 13 -17 7 -33
-11z"/>
<path d="M6000 786 c0 -16 27 -29 41 -20 19 11 9 34 -16 34 -15 0 -25 -6 -25
-14z"/>
<path d="M3510 759 c0 -11 4 -18 10 -14 5 3 7 12 3 20 -7 21 -13 19 -13 -6z"/>
<path d="M4096 744 c-4 -9 -4 -19 -1 -22 7 -8 35 19 29 29 -8 14 -21 11 -28
-7z"/>
<path d="M0 710 c0 -5 5 -10 10 -10 6 0 10 5 10 10 0 6 -4 10 -10 10 -5 0 -10
-4 -10 -10z"/>
<path d="M3736 705 c-15 -8 -33 -15 -38 -15 -10 0 -43 -30 -43 -39 -1 -3 -6
-16 -13 -27 -9 -18 -9 -24 3 -34 8 -7 12 -16 10 -20 -7 -11 -45 -8 -45 2 0 5
-9 4 -21 -3 -13 -7 -19 -17 -16 -29 3 -11 0 -21 -6 -23 -6 -2 -7 -9 -3 -16 6
-9 11 -9 22 0 10 8 14 8 14 0 0 -28 99 20 100 48 0 11 4 9 14 -4 14 -19 15
-19 45 13 31 31 34 59 13 97 -11 19 -8 45 5 45 7 0 13 5 13 10 0 14 -20 12
-54 -5z m-31 -112 c-9 -37 -18 -20 -9 19 4 18 9 27 11 20 3 -7 2 -24 -2 -39z"/>
<path d="M3553 690 c-4 -13 -14 -20 -30 -20 -13 0 -34 -11 -46 -24 -12 -13
-31 -25 -41 -27 -24 -5 -33 -29 -11 -29 9 0 13 5 10 10 -3 6 0 10 8 10 8 0 17
-7 21 -15 3 -8 10 -15 16 -15 5 0 10 7 10 15 0 8 7 15 15 15 8 0 15 -7 15 -15
0 -8 6 -15 14 -15 17 0 56 63 56 91 0 11 7 19 18 20 14 0 14 2 -3 9 -32 14
-47 11 -52 -10z"/>
<path d="M4100 700 c0 -5 7 -10 16 -10 8 0 12 5 9 10 -3 6 -10 10 -16 10 -5 0
-9 -4 -9 -10z"/>
<path d="M4244 693 c-7 -2 -9 -13 -7 -24 5 -16 8 -18 14 -7 7 10 9 8 9 -7 1
-20 1 -20 15 -1 8 11 15 25 15 30 0 6 -4 5 -9 -3 -7 -11 -10 -11 -17 1 -5 8
-14 13 -20 11z"/>
<path d="M311 666 c-7 -8 -8 -17 -3 -20 6 -3 15 1 21 8 7 8 8 17 3 20 -6 3
-15 -1 -21 -8z"/>
<path d="M40 640 c0 -31 16 -41 26 -15 4 10 14 13 33 9 l26 -6 -25 21 c-37 31
-60 27 -60 -9z"/>
<path d="M3987 620 c3 -11 7 -20 9 -20 2 0 4 9 4 20 0 11 -4 20 -9 20 -5 0 -7
-9 -4 -20z"/>
<path d="M350 591 c0 -11 5 -23 10 -26 6 -4 10 5 10 19 0 14 -4 26 -10 26 -5
0 -10 -9 -10 -19z"/>
<path d="M217 583 c-12 -11 -8 -23 8 -23 8 0 15 7 15 15 0 16 -12 20 -23 8z"/>
<path d="M3290 570 c0 -5 5 -10 10 -10 6 0 10 5 10 10 0 6 -4 10 -10 10 -5 0
-10 -4 -10 -10z"/>
<path d="M3340 551 c0 -11 26 -22 34 -14 3 3 3 10 0 14 -7 12 -34 11 -34 0z"/>
<path d="M4190 545 c0 -5 5 -17 10 -25 5 -8 10 -10 10 -5 0 6 -5 17 -10 25 -5
8 -10 11 -10 5z"/>
<path d="M175 504 c-20 -16 -20 -16 2 -10 17 5 26 1 40 -20 10 -15 16 -38 15
-52 -3 -21 -2 -22 18 -12 17 9 19 14 9 26 -9 11 -9 14 0 14 8 0 6 10 -6 30 -9
17 -20 30 -24 30 -4 0 -13 2 -21 5 -7 2 -22 -3 -33 -11z"/>
<path d="M3744 497 c-8 -24 14 -49 40 -45 16 2 21 10 21 33 0 26 -4 30 -27 30
-19 1 -30 -5 -34 -18z"/>
<path d="M4200 465 c0 -40 12 -45 34 -13 23 32 20 48 -9 48 -22 0 -25 -4 -25
-35z"/>
<path d="M0 399 c0 -51 3 -60 16 -57 30 6 40 35 20 57 -10 11 -16 27 -13 35 3
8 -1 17 -9 20 -11 4 -14 -7 -14 -55z"/>
<path d="M3732 399 c-10 -15 -11 -24 -3 -32 13 -13 18 -9 26 26 8 32 -5 36
-23 6z"/>
<path d="M4260 393 c0 -4 7 -17 15 -27 17 -23 34 -13 19 11 -12 19 -34 29 -34
16z"/>
<path d="M5333 349 c-47 -30 -43 -58 14 -109 55 -48 86 -50 91 -7 5 38 -23 69
-54 61 -15 -4 -24 -2 -24 5 0 6 6 11 14 11 8 0 22 7 31 16 12 12 13 19 4 30
-16 19 -38 17 -76 -7z"/>
<path d="M7203 360 c-13 -5 -23 -13 -23 -18 0 -16 55 -34 91 -30 29 2 34 7 34
28 0 22 -5 25 -40 27 -22 1 -50 -2 -62 -7z"/>
<path d="M6254 345 c-4 -9 -2 -21 4 -27 15 -15 54 1 50 20 -4 23 -46 28 -54 7z"/>
<path d="M8093 343 c-8 -20 52 -74 73 -66 25 9 15 43 -18 63 -40 24 -47 25
-55 3z"/>
<path d="M6437 322 c-3 -4 -3 -28 0 -54 5 -41 9 -47 32 -50 80 -10 149 71 86
100 -29 13 -111 16 -118 4z"/>
<path d="M0 221 c0 -30 1 -31 16 -16 16 15 16 18 0 33 -15 15 -16 14 -16 -17z"/>
<path d="M5790 220 c-12 -7 -12 -13 -4 -27 12 -20 35 -24 41 -8 6 20 -21 45
-37 35z"/>
<path d="M448 213 c6 -2 18 -2 25 0 6 3 1 5 -13 5 -14 0 -19 -2 -12 -5z"/>
<path d="M8218 213 c-33 -8 -21 -33 16 -33 43 0 67 25 34 34 -13 3 -25 5 -28
5 -3 -1 -13 -3 -22 -6z"/>
<path d="M4480 179 c0 -21 4 -27 15 -24 8 3 22 7 31 10 20 6 4 30 -26 38 -17
4 -20 0 -20 -24z"/>
<path d="M3380 181 c0 -5 7 -14 15 -21 9 -7 23 -28 31 -46 9 -19 21 -34 28
-34 6 0 23 -6 38 -14 23 -12 27 -12 32 1 11 28 6 42 -16 45 -13 2 -23 8 -24
13 0 6 -6 22 -12 38 -10 23 -17 27 -52 27 -22 0 -40 -4 -40 -9z"/>
<path d="M158 85 c2 -19 8 -35 13 -35 5 0 6 12 3 28 -10 41 -21 46 -16 7z"/>
<path d="M310 113 c0 -5 11 -13 25 -20 29 -13 33 -6 8 13 -20 15 -33 18 -33 7z"/>
<path d="M30 100 c0 -5 5 -10 11 -10 5 0 7 5 4 10 -3 6 -8 10 -11 10 -2 0 -4
-4 -4 -10z"/>
<path d="M1121 94 c0 -11 3 -14 6 -6 3 7 2 16 -1 19 -3 4 -6 -2 -5 -13z"/>
<path d="M350 64 c0 -5 11 -14 25 -21 20 -9 25 -8 25 3 0 8 -4 14 -9 14 -5 0
-16 3 -25 6 -9 3 -16 2 -16 -2z"/>
<path d="M244 52 c-14 -2 -24 -12 -27 -28 -4 -22 -1 -24 29 -24 29 0 34 3 34
24 0 28 -6 33 -36 28z"/>
<path d="M5002 48 c-7 -7 -12 -20 -12 -30 0 -15 9 -18 62 -18 l62 0 -29 30
c-30 31 -63 38 -83 18z"/>
<path d="M5170 49 c0 -5 5 -7 10 -4 6 3 10 8 10 11 0 2 -4 4 -10 4 -5 0 -10
-5 -10 -11z"/>
<path d="M6287 54 c-4 -4 -7 -18 -7 -31 0 -21 5 -23 45 -23 38 0 45 3 45 19 0
11 -3 22 -7 24 -17 10 -69 17 -76 11z"/>
<path d="M4327 23 c-15 -15 -5 -23 29 -23 31 0 35 2 24 15 -13 16 -42 20 -53
8z"/>
<path d="M145 10 c-3 -5 -1 -10 4 -10 6 0 11 5 11 10 0 6 -2 10 -4 10 -3 0 -8
-4 -11 -10z"/>
</g>
</svg>
