<?xml version="1.0" standalone="no"?>
<!DOCTYPE svg PUBLIC "-//W3C//DTD SVG 20010904//EN"
 "http://www.w3.org/TR/2001/REC-SVG-20010904/DTD/svg10.dtd">
<svg version="1.0" xmlns="http://www.w3.org/2000/svg"
 width="869.000000pt" height="865.000000pt" viewBox="0 0 869.000000 865.000000"
 preserveAspectRatio="xMidYMid meet">

<g transform="translate(0.000000,865.000000) scale(0.100000,-0.100000)"
fill="#000000" stroke="none">
<path d="M530 8628 c28 -13 79 -24 135 -29 50 -4 728 -7 1508 -7 781 -1 1420
-2 1422 -4 2 -2 5 -23 8 -48 3 -25 8 -70 12 -100 3 -30 26 -179 51 -331 l46
-275 -54 -80 c-29 -44 -63 -102 -75 -129 -27 -61 -123 -293 -123 -298 0 -3 29
-7 64 -11 155 -16 297 -93 439 -240 62 -65 72 -81 68 -114 -1 -6 2 -19 7 -27
6 -12 13 -7 31 25 29 53 52 52 167 -4 94 -45 168 -113 181 -164 7 -29 -32
-241 -59 -321 -21 -64 -39 -86 -93 -115 -33 -17 -57 -21 -135 -21 -145 1 -200
17 -200 58 -1 12 -7 33 -14 46 l-14 25 -16 -31 c-27 -54 -103 -55 -259 -6 -44
13 -81 23 -83 20 -2 -2 -11 -39 -19 -82 -16 -82 -12 -155 20 -425 8 -63 17
-153 21 -200 3 -47 11 -89 18 -93 6 -5 0 -6 -14 -2 -152 40 -240 31 -211 -23
9 -17 21 -20 80 -19 55 1 74 -3 91 -18 19 -17 19 -20 4 -36 -19 -21 -96 -49
-133 -49 -14 0 -43 5 -64 11 -30 8 -42 18 -53 45 -8 19 -12 39 -8 45 3 5 1 15
-4 22 -5 7 -13 55 -16 107 -3 52 -7 104 -8 115 -3 51 -29 328 -37 400 -15 130
-2 266 29 325 13 23 53 26 89 6 35 -19 52 -10 44 23 -6 25 -5 25 14 9 18 -17
43 -24 43 -14 0 3 -20 34 -44 70 -86 124 -99 163 -102 291 -3 155 -3 157 -23
85 -11 -40 -14 -67 -8 -71 6 -4 6 -15 2 -25 -13 -33 -24 28 -14 82 5 26 7 49
4 52 -6 6 -14 -32 -24 -123 -6 -44 -17 -125 -26 -180 -8 -55 -13 -113 -9 -128
3 -15 1 -33 -4 -40 -6 -7 -10 -45 -8 -85 2 -61 -2 -82 -21 -120 -13 -25 -33
-78 -44 -117 -42 -145 -142 -417 -162 -443 -8 -10 -24 36 -59 170 -26 101 -55
206 -63 233 -8 28 -22 75 -30 105 -9 30 -24 84 -35 120 -17 60 -47 172 -84
310 -39 151 -108 375 -117 387 -15 17 -38 17 -45 -1 -3 -7 7 -58 21 -112 15
-55 32 -124 40 -154 7 -30 38 -154 69 -275 32 -121 61 -238 66 -260 5 -22 16
-65 25 -95 17 -57 71 -259 86 -320 22 -90 61 -237 66 -250 15 -35 10 -66 -17
-119 -15 -31 -33 -77 -40 -101 -15 -56 -35 -95 -62 -122 -17 -17 -18 -24 -9
-45 9 -20 7 -38 -13 -96 -13 -40 -31 -106 -41 -147 -57 -252 -67 -300 -60
-300 3 0 26 16 52 36 113 86 222 123 391 131 128 6 423 -13 432 -28 6 -8 220
-41 345 -53 136 -13 548 -59 815 -91 161 -20 301 -32 323 -28 21 3 94 0 164
-7 125 -13 127 -13 144 8 9 12 24 22 33 22 22 0 20 -17 -1 -23 -11 -3 -7 -5
10 -6 15 0 27 4 27 10 0 6 7 9 15 5 8 -3 21 1 29 9 19 19 26 19 26 0 0 -8 4
-15 8 -15 13 0 46 39 39 46 -7 8 13 64 23 64 5 0 12 -5 15 -10 10 -16 25 -1
25 26 0 13 5 24 10 24 6 0 10 7 10 15 0 20 -49 32 -62 14 -7 -11 -8 -9 -6 6 3
17 38 33 86 37 22 2 12 14 -20 23 -35 11 -52 45 -23 45 11 0 15 5 12 14 -3 7
-1 18 5 24 6 6 2 15 -13 26 -23 16 -22 16 30 16 72 0 63 21 -15 36 -32 6 -53
12 -45 13 11 1 11 5 -2 19 -21 23 -21 32 -2 32 8 0 15 7 15 15 0 10 -10 15
-30 15 -20 0 -30 5 -30 15 0 8 -9 15 -20 15 -17 0 -20 7 -20 44 0 34 3 43 16
42 9 0 19 5 22 13 3 10 0 12 -13 8 -12 -5 -18 -1 -22 13 -3 11 -9 20 -13 20
-15 0 -40 -38 -40 -62 0 -46 -22 -51 -66 -16 -63 51 -133 121 -129 129 3 4 23
5 46 2 29 -4 44 -2 50 8 19 31 9 47 -41 65 -35 12 -49 23 -45 32 3 7 5 22 5
32 0 10 11 28 25 41 13 13 25 30 25 37 0 6 4 12 9 12 5 0 12 12 16 28 3 15 12
34 19 42 25 30 76 130 76 150 0 11 7 20 16 20 10 0 13 6 10 18 -4 11 4 28 20
45 14 15 23 31 20 36 -3 5 1 11 9 15 8 3 12 12 9 21 -4 9 -1 15 7 15 24 0 49
79 42 133 -8 65 -34 79 -151 77 -163 -2 -182 -1 -182 14 0 15 -21 26 -51 26
-10 0 -19 6 -19 14 0 7 -7 19 -15 26 -13 11 -14 10 -9 -4 8 -21 -19 -22 -36
-1 -20 24 -44 19 -35 -7 18 -58 14 -63 -50 -68 -53 -5 -57 -6 -29 -13 17 -4
35 -7 40 -6 27 6 44 -15 44 -53 0 -43 -18 -116 -32 -132 -4 -6 -8 -20 -8 -31
0 -12 -9 -40 -20 -63 -11 -22 -20 -45 -20 -50 0 -4 -11 -23 -25 -42 -14 -19
-25 -41 -25 -51 0 -9 -7 -22 -15 -29 -8 -7 -15 -21 -15 -31 0 -29 -55 -62 -93
-54 -26 5 -29 4 -14 -5 11 -7 17 -23 17 -46 0 -28 -5 -37 -27 -46 -39 -17 -39
-17 -15 -34 27 -19 28 -40 3 -54 -29 -15 -87 -12 -105 5 -8 8 -21 15 -30 15
-21 0 -30 19 -12 26 9 3 13 11 9 17 -3 5 -2 7 4 4 6 -4 19 0 29 8 18 14 17 15
-13 27 -26 10 -33 18 -33 39 0 22 4 26 20 22 17 -5 20 0 20 26 0 29 2 31 36
31 31 0 35 2 24 15 -7 8 -18 15 -25 15 -15 0 -45 32 -45 49 0 7 -6 19 -14 27
-8 7 -16 19 -18 25 -2 7 -15 13 -29 14 -16 1 -23 7 -21 19 3 19 -2 20 -29 6
-27 -15 -24 3 6 36 34 36 34 61 1 39 l-25 -16 11 35 c10 32 9 39 -10 59 -23
24 -21 40 4 30 8 -3 11 -9 8 -14 -3 -5 4 -19 15 -31 l21 -22 0 28 c0 25 2 27
30 21 26 -6 30 -4 30 15 0 12 5 30 11 41 13 25 3 56 -20 64 -19 6 -37 45 -21
45 4 0 10 8 12 18 5 17 16 18 149 15 133 -3 142 -2 111 11 -30 14 -91 56 -119
82 -7 7 -9 15 -5 19 4 5 2 5 -5 1 -7 -4 -19 4 -30 20 -23 36 -30 210 -13 307
14 82 47 125 123 163 54 28 160 54 221 54 37 0 38 -1 33 -27 -3 -16 -9 -36
-12 -45 -6 -14 -2 -18 19 -18 14 0 26 4 26 8 0 14 46 31 71 26 20 -4 21 -3 5
4 -17 7 -14 12 25 42 67 52 76 57 52 29 -27 -30 -29 -54 -6 -63 20 -8 209 82
237 112 12 14 16 29 12 46 -5 22 -2 25 37 34 93 23 152 42 155 52 2 5 10 10
18 10 8 0 14 4 14 9 0 17 49 63 59 56 6 -3 11 -1 11 4 0 6 -4 11 -10 11 -5 0
-10 9 -10 21 0 15 5 19 16 15 8 -3 12 -2 9 4 -3 6 4 25 17 42 26 38 32 66 18
83 -14 17 8 25 64 25 23 0 47 5 53 11 7 7 19 3 41 -15 16 -14 33 -26 38 -26
13 0 60 -58 87 -108 48 -90 60 -249 33 -464 -15 -116 -31 -309 -46 -553 -5
-77 -22 -295 -39 -485 -21 -229 -33 -437 -37 -620 -3 -151 -12 -333 -20 -405
-15 -122 -51 -292 -72 -332 -15 -29 -23 -101 -12 -108 6 -3 10 5 10 19 0 14 5
28 10 31 6 3 10 21 10 38 0 18 10 45 23 61 70 91 95 96 158 36 l42 -40 -13
-57 c-27 -115 -86 -275 -155 -418 -102 -212 -167 -396 -195 -555 -23 -126 -26
-135 -41 -131 -63 17 -77 7 -42 -31 15 -17 14 -18 -30 -12 -40 6 -47 4 -47
-11 0 -11 5 -15 16 -11 16 6 49 -8 72 -31 18 -17 7 -47 -21 -61 -22 -10 -22
-11 -1 -11 30 -1 87 19 100 36 10 12 12 12 17 -1 3 -8 3 -25 0 -38 -4 -18 -3
-20 6 -8 10 13 12 13 21 0 6 -10 10 -11 10 -2 0 20 40 14 61 -10 24 -29 24
-58 1 -58 -10 0 -23 5 -29 11 -12 12 -53 3 -53 -12 0 -6 5 -7 12 -3 8 5 9 2 3
-12 -4 -10 -10 -29 -12 -42 -8 -34 -20 -26 -17 11 3 29 3 30 -5 7 -14 -39 -13
-62 2 -54 8 5 8 2 -2 -9 -7 -9 -9 -17 -3 -17 12 0 6 -31 -14 -76 -10 -23 -11
-40 -3 -67 8 -29 7 -42 -4 -58 -18 -25 -24 -15 -21 35 4 70 -13 22 -20 -55 -5
-62 -4 -80 9 -92 9 -10 11 -18 5 -22 -5 -3 -10 -15 -10 -26 0 -13 4 -18 12
-13 11 7 9 -10 -8 -50 -5 -13 -4 -17 4 -12 6 4 11 -1 11 -11 -1 -10 1 -27 4
-38 2 -11 2 -14 0 -7 -7 19 -23 4 -23 -22 0 -15 9 -27 25 -34 33 -15 36 -15
33 1 -1 6 2 22 6 35 4 13 3 28 -2 35 -7 8 -5 16 4 25 8 7 14 8 14 2 0 -5 5
-10 10 -10 6 0 10 11 10 25 0 18 4 23 15 19 10 -4 15 0 15 15 0 13 6 21 17 21
13 0 14 3 5 12 -8 8 -15 8 -27 -2 -18 -15 -31 -7 -21 12 23 44 46 80 42 66 -3
-11 2 -19 15 -23 10 -4 19 -13 19 -21 0 -8 5 -14 10 -14 13 0 13 17 -1 26 -6
3 -9 19 -5 35 4 22 1 31 -14 39 -11 6 -20 15 -20 21 0 6 -7 17 -15 25 -20 20
-19 31 5 51 11 10 20 23 20 30 0 7 4 13 9 13 21 0 18 28 -5 39 -23 10 -24 9
-14 -8 13 -24 -4 -38 -25 -21 -8 6 -19 9 -25 5 -6 -3 -10 3 -10 15 0 13 9 24
26 30 15 6 22 14 18 22 -14 23 -12 63 4 81 11 13 28 17 55 15 29 -2 43 3 53
16 7 11 11 23 8 28 -3 5 2 15 11 22 17 12 16 14 -6 29 -28 21 -17 34 31 39 28
2 36 8 38 28 2 13 12 35 22 48 23 28 13 69 -15 64 -13 -3 -16 1 -11 13 3 9 6
21 6 26 0 6 5 7 11 4 6 -4 13 2 16 14 3 12 13 21 24 21 21 0 25 -15 8 -25 -6
-4 -7 -14 -3 -24 4 -9 6 -29 5 -44 -1 -26 0 -27 14 -14 8 9 15 29 15 45 0 16
3 32 8 36 4 4 12 31 18 59 l12 52 1 -42 c0 -24 5 -43 11 -43 14 0 30 35 30 65
0 15 9 38 20 52 11 14 20 36 20 49 0 13 5 24 11 24 7 0 8 16 4 45 -7 43 -5 47
36 90 34 35 44 54 45 81 1 18 -3 34 -7 34 -5 0 -9 4 -9 9 0 14 58 31 107 31
41 0 44 2 38 21 -6 19 -4 21 14 16 17 -4 24 0 30 16 10 25 -3 47 -28 47 -10 0
-26 7 -37 15 -13 11 -14 14 -4 13 9 -2 14 3 12 15 -3 20 18 23 36 5 22 -22 30
9 28 108 -2 75 -6 97 -21 114 -24 27 -29 59 -12 79 7 9 14 30 16 46 1 17 6 34
11 39 5 4 6 24 3 42 -5 29 -3 33 11 28 19 -7 22 12 4 19 -22 9 14 28 45 24 17
-2 27 1 27 10 0 7 -12 14 -27 14 -21 1 -23 2 -8 6 29 7 47 24 41 40 -3 7 3 21
14 30 16 14 18 25 13 74 -5 52 -4 57 16 64 21 6 22 7 4 21 -17 13 -17 13 5 14
12 0 22 -5 22 -11 0 -5 5 -7 10 -4 6 3 13 -1 16 -9 3 -9 13 -16 21 -16 8 0 11
5 8 11 -4 6 2 13 14 16 12 3 21 9 21 13 0 10 -80 50 -101 50 -8 0 -22 7 -32
14 -17 13 -16 15 12 32 33 19 34 28 11 138 -12 55 3 90 35 84 33 -7 51 10 59
53 5 28 3 38 -9 43 -12 4 -14 14 -9 42 6 34 5 36 -16 29 -19 -6 -21 -4 -15 14
4 12 1 28 -5 36 -15 18 -12 137 3 162 9 15 -2 45 -14 37 -5 -3 -9 -1 -9 4 0 6
7 12 15 16 21 8 19 26 -2 27 -10 1 1 5 25 11 37 8 41 12 31 24 -10 13 -10 17
0 23 10 7 10 13 -1 30 -12 20 -10 24 11 42 13 10 18 19 12 19 -6 0 -11 9 -11
20 0 13 7 20 20 20 11 0 20 6 20 13 0 7 9 19 20 27 11 8 20 24 21 35 1 16 2
16 8 -5 5 -18 15 -26 35 -28 27 -3 28 -2 23 25 -6 29 11 63 32 63 15 0 14 17
-1 27 -13 8 -18 9 -38 12 -19 2 -10 21 10 21 13 0 18 5 14 15 -10 24 95 -27
134 -66 41 -41 87 -136 108 -225 25 -107 25 -339 -1 -619 l-6 -70 58 -81 c113
-159 338 -440 407 -509 57 -57 71 -66 74 -51 2 10 -2 22 -10 27 -7 5 -9 9 -5
9 11 0 -41 75 -137 193 -117 147 -268 346 -295 390 -15 25 -21 46 -17 62 3 13
8 52 11 87 7 84 18 122 38 126 23 5 94 -53 202 -164 96 -99 198 -180 274 -219
51 -25 63 -44 80 -125 6 -28 7 -60 1 -85 -14 -59 -13 -118 2 -113 36 12 37
193 3 338 -14 58 -25 116 -25 130 0 35 -44 126 -80 167 -17 18 -30 38 -30 42
0 26 95 28 247 5 125 -19 181 -15 241 17 43 23 43 23 94 5 29 -10 69 -29 90
-42 21 -13 45 -24 53 -24 20 0 87 -34 142 -71 46 -32 56 -27 47 20 -6 29 -46
71 -167 177 -26 23 -47 46 -47 51 0 6 31 26 70 46 59 32 73 35 96 27 15 -6 33
-9 39 -7 8 4 11 254 13 918 2 896 -1 1066 -19 1038 -7 -11 -9 -11 -9 3 0 9 6
19 13 21 8 4 8 8 2 14 -6 4 -10 59 -10 124 0 142 -17 189 -77 213 -22 8 -40
10 -43 5 -11 -16 -41 -28 -54 -20 -10 7 -8 24 10 82 12 41 26 92 30 114 4 22
15 63 23 92 8 29 17 65 19 80 3 15 9 46 15 68 6 22 17 69 26 105 8 36 26 110
40 165 14 55 28 130 32 168 l7 67 -72 0 c-66 0 -87 -9 -59 -26 8 -5 9 -55 4
-183 -7 -201 -26 -331 -56 -393 l-20 -43 6 75 c12 165 15 465 4 450 -9 -11
-10 -5 -6 25 2 22 8 52 11 68 l7 27 -73 0 -74 0 -35 -103 c-33 -99 -68 -180
-113 -262 -18 -33 -22 -36 -25 -19 -2 17 29 112 67 199 5 11 14 36 21 55 12
36 20 55 39 103 l11 27 -3913 -1 -3912 -1 45 -20z m7542 -24 c8 -7 -28 -144
-41 -157 -22 -22 -17 92 5 135 14 27 25 34 36 22z m-698 -10 c9 -3 16 -17 16
-30 0 -41 49 -181 106 -302 31 -64 61 -129 67 -144 6 -16 14 -28 18 -28 5 0
23 71 36 148 3 19 0 38 -8 48 -7 8 -12 38 -11 66 0 29 -4 56 -11 62 -9 8 -11
37 -9 94 4 83 4 83 29 80 l26 -3 -2 -96 c-3 -132 7 -200 30 -206 22 -6 33 -32
19 -48 -6 -7 -8 -20 -4 -29 9 -23 -15 -77 -44 -102 -33 -27 -23 -32 81 -40 79
-6 88 -9 120 -40 19 -19 40 -49 47 -66 6 -18 16 -40 20 -49 15 -28 24 -189 12
-189 -18 0 -38 49 -52 123 -13 72 -25 86 -59 67 -25 -13 -26 -8 -6 30 14 27
13 29 -13 46 -35 23 -121 30 -153 13 -27 -15 -28 -15 -89 -28 -80 -18 -88 -14
-43 19 43 32 62 60 39 60 -32 0 -249 511 -230 542 6 9 45 11 68 2z m-3144 -14
c85 -3 140 -7 123 -8 -35 -2 -42 -12 -19 -31 24 -20 26 -51 5 -72 -10 -10 -19
-23 -19 -29 0 -5 -18 -10 -39 -10 -28 0 -41 -5 -46 -17 -3 -10 -2 -19 3 -21 5
-1 7 -15 4 -31 -3 -22 1 -29 17 -34 12 -3 19 0 18 6 -1 6 8 13 21 15 12 2 22
-1 22 -7 0 -6 -8 -11 -17 -11 -11 0 -14 -3 -7 -8 13 -8 26 -192 14 -192 -16 0
-21 -34 -5 -42 9 -6 15 -23 15 -48 0 -22 4 -40 10 -40 11 0 40 -52 40 -72 0
-7 -9 -19 -21 -26 -18 -12 -24 -11 -43 6 -18 17 -45 30 -154 73 -13 5 -61 9
-107 9 -68 0 -99 -6 -163 -29 -68 -25 -81 -28 -86 -15 -3 8 -13 63 -21 122 -9
59 -18 121 -21 137 -3 17 -10 62 -15 100 -5 39 -16 95 -24 126 -8 31 -17 80
-21 108 l-7 51 194 -1 c107 -1 264 -5 349 -9z m2210 -52 c0 -5 9 -8 20 -8 14
0 20 7 20 22 0 22 0 22 14 2 8 -11 16 -31 18 -44 3 -28 16 -30 103 -16 39 6
47 5 38 -4 -19 -21 -136 -25 -173 -6 -18 8 -36 13 -41 10 -5 -3 -9 1 -9 9 0 8
-7 17 -15 21 -8 3 -15 0 -15 -7 0 -6 -9 5 -20 26 -11 21 -18 42 -15 47 6 10
75 -39 75 -52z m1490 43 c0 -43 -32 -287 -38 -293 -7 -7 -4 278 3 300 7 19 35
14 35 -7z m-480 -21 c0 -5 -2 -10 -4 -10 -3 0 -8 5 -11 10 -3 6 -1 10 4 10 6
0 11 -4 11 -10z m-700 -30 c0 -5 -9 -10 -21 -10 -11 0 -17 5 -14 10 3 6 13 10
21 10 8 0 14 -4 14 -10z m1727 -47 c-3 -10 -5 -4 -5 12 0 17 2 24 5 18 2 -7 2
-21 0 -30z m-448 -155 c0 -24 -6 -61 -13 -83 -11 -36 -13 -38 -20 -18 -4 12
-2 40 4 63 6 22 8 45 5 50 -7 12 2 30 16 30 5 0 9 -19 8 -42z m-1691 -150 c16
-18 53 -60 83 -92 30 -33 72 -80 94 -105 22 -24 79 -86 128 -137 48 -51 87
-97 87 -104 0 -8 -4 -7 -15 2 -26 24 -40 34 -55 41 -44 22 -66 41 -133 114
-41 44 -107 111 -146 149 -73 69 -108 122 -97 149 8 23 23 18 54 -17z m-991
-9 c6 -6 21 -16 34 -23 12 -6 27 -20 33 -31 6 -11 13 -22 16 -25 13 -11 30
-90 36 -165 5 -66 2 -94 -16 -160 -12 -44 -28 -104 -35 -134 -8 -30 -19 -59
-24 -64 -6 -6 -11 -21 -11 -34 0 -21 -17 -64 -61 -158 -11 -22 -19 -48 -19
-58 0 -10 -9 -35 -19 -56 l-20 -38 -60 10 c-34 5 -61 14 -61 18 0 13 -45 11
-74 -2 -16 -8 -37 -8 -63 -2 -30 7 -45 19 -70 57 -17 27 -44 57 -60 67 -15 11
-22 19 -15 19 24 0 50 35 68 93 10 31 22 57 28 57 13 1 46 69 46 94 0 9 -5 26
-11 38 -6 11 -8 31 -4 45 5 21 10 24 30 19 19 -5 25 -2 25 10 0 9 -7 22 -16
29 -14 10 -15 19 -7 51 5 21 15 38 22 36 6 -1 14 11 17 28 4 16 10 30 15 30 5
0 9 7 9 15 0 8 4 15 9 15 11 0 27 44 30 80 1 17 65 45 80 36 4 -3 16 3 26 14
10 11 24 20 32 20 7 0 22 5 33 12 18 12 17 13 -13 23 -17 5 -33 18 -35 28 -3
14 4 17 45 17 27 0 54 -5 60 -11z m1808 -51 c-3 -13 -9 -131 -14 -263 -6 -184
-5 -249 5 -278 15 -46 -3 -47 -25 -2 -16 33 -44 381 -35 430 10 52 47 135 61
135 9 0 12 -8 8 -22z m435 -161 c14 -12 33 -45 43 -77 2 -8 1 -24 -4 -35 -6
-17 -8 -17 -8 -2 -1 9 -7 17 -13 17 -15 0 -38 45 -38 72 0 10 -4 18 -10 18 -5
0 -10 -12 -10 -26 0 -14 -4 -23 -10 -19 -22 14 -3 66 25 65 5 0 17 -6 25 -13z
m-3256 -161 c-3 -8 2 -30 10 -50 39 -93 11 -385 -46 -482 -10 -17 -22 -55 -28
-85 -6 -30 -17 -59 -25 -65 -8 -6 -12 -13 -10 -16 3 -3 -1 -17 -9 -32 -8 -16
-16 -22 -18 -15 -3 8 -9 9 -18 4 -21 -13 -60 -15 -60 -3 0 5 -6 8 -12 5 -10
-3 -12 14 -8 77 5 79 6 81 31 81 14 0 26 4 27 10 0 5 4 35 7 65 8 66 -6 110
-32 104 -12 -3 -25 8 -41 33 l-24 37 27 22 c32 25 26 44 -13 45 -26 1 -25 1 6
10 26 8 39 6 62 -8 16 -9 33 -13 37 -9 12 12 6 168 -7 176 -7 4 -1 16 15 34
14 15 28 38 31 52 6 23 10 25 45 19 27 -5 39 -3 39 5 0 6 4 9 10 5 5 -3 7 -12
4 -19z m3351 -29 c11 -17 25 -45 31 -62 6 -16 21 -46 33 -65 l21 -35 12 33
c25 64 33 35 49 -178 6 -74 16 -151 23 -171 10 -26 10 -41 3 -55 -12 -21 -10
-74 4 -88 12 -14 11 -86 -1 -86 -11 0 -30 42 -30 66 0 9 5 12 11 8 6 -3 4 5
-5 18 -9 14 -19 41 -21 59 -10 82 -18 110 -33 122 -34 25 -126 335 -134 447
-2 31 14 25 37 -13z m248 -60 c3 -8 1 -20 -4 -28 -6 -10 -9 -7 -9 14 0 29 5
35 13 14z m-1298 -113 c43 -83 106 -245 119 -306 9 -43 -12 -43 -23 0 -12 43
-97 215 -130 260 -11 17 -21 36 -21 44 0 8 -5 19 -11 25 -7 7 -9 19 -5 28 6
15 9 16 29 3 12 -8 31 -33 42 -54z m1375 -50 c0 -22 -39 -153 -53 -179 -10
-19 -11 -19 -17 5 -4 14 -4 30 0 35 4 6 10 31 13 56 3 25 11 57 16 72 11 29
41 37 41 11z m630 -246 c0 -16 -3 -19 -11 -11 -6 6 -8 16 -5 22 11 17 16 13
16 -11z m-24 -86 c-12 -11 -18 7 -10 30 l8 23 4 -23 c2 -13 1 -26 -2 -30z
m-1042 -43 c9 -45 7 -70 -3 -44 -15 39 -21 75 -12 75 4 0 11 -14 15 -31z
m-862 0 c7 -11 28 -27 46 -34 17 -8 32 -21 32 -30 0 -8 16 -47 35 -85 19 -38
35 -79 35 -91 l0 -22 -25 23 c-14 13 -25 29 -25 37 0 7 -4 13 -10 13 -5 0 -10
6 -10 14 0 7 -15 29 -32 48 -97 104 -120 148 -78 148 11 0 25 -9 32 -21z
m1356 -49 c-10 -30 -28 -50 -28 -31 0 17 23 61 31 61 4 0 3 -14 -3 -30z
m-1788 -26 c10 -27 33 -54 46 -54 9 0 33 -32 34 -45 0 -6 -4 -5 -8 1 -4 6 -18
14 -32 18 -18 5 -21 5 -10 -3 8 -5 11 -13 7 -17 -12 -12 -69 50 -82 90 -12 35
-12 36 11 36 17 0 28 -8 34 -26z m-919 -30 c-29 -13 -56 -24 -60 -23 -9 1 93
49 104 48 6 0 -14 -11 -44 -25z m989 -124 c0 -5 -2 -10 -4 -10 -3 0 -8 5 -11
10 -3 6 -1 10 4 10 6 0 11 -4 11 -10z m943 -116 c13 -13 -13 -42 -33 -37 -25
7 -26 19 -2 32 20 12 27 13 35 5z m828 -121 c-28 -56 -61 -97 -61 -75 0 5 7
15 15 22 8 7 12 16 9 21 -9 14 16 81 40 107 20 23 21 23 24 4 2 -11 -10 -47
-27 -79z m-4905 -5 c-3 -13 -6 -30 -7 -38 0 -10 -3 -8 -8 5 -9 23 -3 55 11 55
6 0 8 -10 4 -22z m4800 -214 c-19 -19 -21 -2 -4 29 11 19 13 20 16 5 2 -10 -4
-25 -12 -34z m-625 -77 c16 -13 139 -199 139 -211 0 -4 9 -17 21 -29 21 -22
43 -67 36 -73 -2 -3 -18 17 -36 43 -65 98 -128 184 -159 216 -43 44 -44 87 -1
54z m-4214 -89 c-2 -13 -4 -5 -4 17 -1 22 1 32 4 23 2 -10 2 -28 0 -40z m4833
23 c49 -13 -1 -24 -128 -27 -159 -4 -164 -6 -150 -47 6 -18 16 -35 22 -39 20
-13 -9 -9 -48 7 -21 9 -36 11 -36 5 0 -5 -5 -10 -11 -10 -6 0 -8 7 -5 16 5 12
2 15 -12 12 -17 -5 -42 13 -42 29 0 18 39 41 86 50 56 12 286 15 324 4z
m-4070 -17 c0 -11 6 -14 20 -9 19 6 20 4 14 -22 -4 -15 -10 -30 -13 -33 -3 -3
-7 -27 -9 -55 -3 -49 -27 -131 -44 -149 -4 -6 -8 -36 -8 -67 0 -32 -4 -61 -10
-64 -5 -3 -10 -15 -10 -26 0 -30 -41 -203 -51 -213 -5 -6 -9 -18 -9 -28 0 -10
-7 -18 -17 -18 -14 0 -18 -10 -20 -47 -1 -26 2 -50 7 -53 6 -4 6 -30 0 -65 -5
-33 -10 -76 -11 -95 -2 -19 -8 -46 -14 -60 -7 -14 -18 -70 -24 -125 -15 -123
-44 -175 -99 -181 -15 -2 -46 -6 -70 -10 -36 -6 -42 -4 -36 9 4 12 -2 18 -20
23 -15 3 -30 13 -35 21 -6 12 -12 13 -29 4 -22 -12 -85 -15 -95 -5 -3 4 0 12
7 20 8 7 11 24 9 38 -3 16 -1 26 6 26 6 0 11 -11 11 -25 0 -14 4 -25 9 -25 18
0 22 39 6 70 -8 16 -11 30 -6 30 5 0 16 3 25 6 11 4 16 0 17 -12 0 -15 3 -13
11 6 5 14 11 30 13 35 2 6 6 20 10 32 4 12 6 24 4 26 -7 6 31 38 39 33 4 -2 8
4 8 14 0 10 -4 17 -7 14 -4 -2 -7 6 -5 20 1 13 19 38 39 56 27 23 36 38 32 51
-9 28 12 59 40 59 14 0 25 6 25 13 0 6 6 24 14 39 16 30 8 38 -42 38 -25 1
-26 2 -9 15 11 7 26 11 35 8 10 -3 7 3 -7 15 l-24 20 21 7 c12 3 20 11 17 16
-4 5 1 9 9 9 28 0 28 22 0 45 -22 17 -26 26 -18 36 16 21 23 69 10 70 -6 0 -1
4 12 9 26 11 30 32 5 24 -15 -5 -15 -3 2 10 11 9 25 14 32 12 16 -7 17 6 1 22
-9 9 -8 16 5 30 23 25 21 32 -8 32 -25 0 -35 23 -15 35 14 9 12 52 -2 58 -10
4 -10 7 -1 14 13 9 7 53 -8 53 -4 0 -13 -8 -18 -17 -17 -29 -13 5 4 37 12 23
23 30 45 30 20 0 31 6 35 20 3 11 11 20 17 20 6 0 8 9 5 20 -6 24 8 36 53 43
19 3 51 10 70 15 49 14 50 14 50 -4z m-749 -86 c-3 -21 -6 -26 -9 -15 -3 17 3
47 11 47 2 0 1 -15 -2 -32z m1347 -41 c2 -12 -3 -17 -17 -17 -12 0 -21 6 -21
13 0 31 32 34 38 4z m-1341 -64 c-3 -10 -5 -2 -5 17 0 19 2 27 5 18 2 -10 2
-26 0 -35z m1203 -18 c0 -8 -4 -15 -9 -15 -13 0 -22 16 -14 24 11 11 23 6 23
-9z m-1195 -15 c3 -5 1 -10 -4 -10 -6 0 -11 5 -11 10 0 6 2 10 4 10 3 0 8 -4
11 -10z m15 -92 c0 -5 -4 -8 -10 -8 -5 0 -10 10 -10 23 0 18 2 19 10 7 5 -8
10 -18 10 -22z m3780 -28 c13 -8 13 -10 -2 -10 -9 0 -20 5 -23 10 -8 13 5 13
25 0z m-3773 -122 c-2 -13 -4 -3 -4 22 0 25 2 35 4 23 2 -13 2 -33 0 -45z
m3273 22 c0 -5 -2 -10 -4 -10 -3 0 -8 5 -11 10 -3 6 -1 10 4 10 6 0 11 -4 11
-10z m440 -10 c0 -5 -7 -10 -15 -10 -8 0 -15 5 -15 10 0 6 7 10 15 10 8 0 15
-4 15 -10z m846 -83 c4 -4 -2 -7 -14 -7 -12 0 -22 4 -22 9 0 10 26 9 36 -2z
m-4549 -39 c-3 -7 -5 -2 -5 12 0 14 2 19 5 13 2 -7 2 -19 0 -25z m251 -100 c3
-14 -3 -18 -27 -18 -25 0 -31 4 -31 21 0 16 5 20 27 17 17 -2 29 -10 31 -20z
m1232 -118 c0 -6 11 -16 25 -22 14 -6 25 -17 25 -25 0 -7 7 -16 15 -19 8 -4
15 -12 15 -19 0 -8 11 -22 23 -32 13 -10 29 -29 36 -42 7 -12 15 -20 18 -17 3
3 12 -7 20 -22 24 -46 -8 -204 -52 -252 -10 -11 -15 -20 -11 -20 3 0 0 -10 -8
-22 -7 -13 -21 -47 -31 -76 -9 -29 -23 -56 -31 -59 -8 -3 -14 -12 -14 -19 0
-26 -45 -39 -89 -26 -21 7 -52 12 -68 12 -23 0 -32 6 -36 21 -5 19 -11 21 -41
15 -26 -5 -36 -3 -37 6 0 10 -2 10 -6 1 -7 -19 -41 -15 -63 7 -11 11 -27 20
-35 20 -9 0 -12 6 -8 16 3 8 12 13 19 10 11 -4 14 6 14 44 0 38 4 50 15 50 8
0 15 3 15 6 0 37 25 151 36 161 8 8 14 10 14 4 0 -28 27 -6 37 29 8 32 8 40
-3 40 -8 0 -14 5 -14 11 0 6 8 8 19 4 15 -4 20 2 29 37 7 28 8 46 1 54 -7 8 0
18 25 34 20 12 35 24 35 28 -3 19 15 49 34 59 29 14 77 16 77 3z m300 -187
c-11 -17 -11 -17 -6 0 3 10 7 28 7 40 2 22 2 22 6 0 2 -12 -1 -30 -7 -40z
m405 -33 c3 -6 -1 -7 -9 -4 -18 7 -21 14 -7 14 6 0 13 -4 16 -10z m-425 -57
c-11 -17 -11 -17 -6 0 3 10 7 26 7 35 1 15 2 15 6 0 2 -10 -1 -25 -7 -35z
m-1546 19 c6 -11 -34 -56 -42 -48 -3 4 3 12 13 20 10 7 15 18 11 24 -4 7 -3
12 3 12 5 0 12 -4 15 -8z m4140 -7 c-7 -17 -20 -20 -28 -6 -7 10 3 21 20 21 8
0 11 -6 8 -15z m-3244 -55 c0 -5 -4 -10 -10 -10 -5 0 -10 5 -10 10 0 6 5 10
10 10 6 0 10 -4 10 -10z m57 -122 c-3 -8 -6 -5 -6 6 -1 11 2 17 5 13 3 -3 4
-12 1 -19z m-207 -48 c0 -11 -4 -20 -10 -20 -5 0 -10 9 -10 20 0 11 5 20 10
20 6 0 10 -9 10 -20z m190 -35 c0 -14 -4 -25 -9 -25 -5 0 -8 11 -8 25 0 14 3
25 8 25 5 0 9 -11 9 -25z m-855 -53 c-3 -3 -11 0 -18 7 -9 10 -8 11 6 5 10 -3
15 -9 12 -12z m1895 -142 c0 -5 -7 -10 -15 -10 -8 0 -15 5 -15 10 0 6 7 10 15
10 8 0 15 -4 15 -10z m740 -1278 c0 -64 -13 -82 -27 -37 -8 25 -8 43 0 64 15
41 27 29 27 -27z m-30 -117 c0 -14 -4 -25 -10 -25 -11 0 -14 33 -3 43 11 11
13 8 13 -18z m-313 -497 c-3 -8 -6 -5 -6 6 -1 11 2 17 5 13 3 -3 4 -12 1 -19z
m41 -203 c2 -22 -2 -25 -31 -24 -17 1 -24 3 -14 6 9 2 15 9 12 14 -8 12 3 29
18 29 7 0 14 -11 15 -25z"/>
<path d="M7575 8060 c-3 -5 1 -10 9 -10 9 0 16 5 16 10 0 6 -4 10 -9 10 -6 0
-13 -4 -16 -10z"/>
<path d="M5058 7843 c-24 -6 -23 -23 2 -23 11 0 20 7 20 15 0 8 -1 14 -2 14
-2 -1 -11 -3 -20 -6z"/>
<path d="M5220 7846 c0 -2 7 -7 16 -10 8 -3 12 -2 9 4 -6 10 -25 14 -25 6z"/>
<path d="M3465 5140 c-3 -5 1 -10 10 -10 9 0 13 5 10 10 -3 6 -8 10 -10 10 -2
0 -7 -4 -10 -10z"/>
<path d="M3431 5064 c0 -11 3 -14 6 -6 3 7 2 16 -1 19 -3 4 -6 -2 -5 -13z"/>
<path d="M3390 5060 c0 -5 5 -10 10 -10 6 0 10 5 10 10 0 6 -4 10 -10 10 -5 0
-10 -4 -10 -10z"/>
<path d="M1884 8529 c-7 -11 24 -38 43 -39 26 0 22 19 -7 33 -19 10 -32 12
-36 6z"/>
<path d="M2 8210 l4 -135 56 -135 c30 -74 65 -166 78 -205 12 -38 27 -81 32
-95 24 -59 68 -207 68 -225 0 -12 5 -26 10 -31 7 -7 8 -28 4 -53 -5 -29 -10
-38 -15 -29 -5 7 -9 11 -10 8 0 -3 -2 -21 -5 -40 -5 -37 -24 -67 -24 -36 0 40
-18 3 -18 -39 -1 -54 -7 -65 -33 -65 -16 0 -19 -7 -19 -40 0 -22 -4 -40 -9
-40 -5 0 -12 -18 -16 -40 -4 -22 -11 -40 -16 -40 -5 0 -9 -11 -9 -25 0 -14 -6
-25 -13 -25 -33 0 -74 -100 -55 -135 7 -11 6 -21 -1 -28 -15 -15 -14 -235 1
-295 9 -35 9 -47 0 -50 -9 -3 -12 -682 -12 -2820 l0 -2815 23 20 c34 30 63 18
58 -24 -3 -19 -51 -68 -51 -52 0 10 -3 10 -12 1 -10 -10 -14 -84 -16 -282 l-3
-270 28 0 c16 0 34 5 41 12 7 7 12 9 12 5 0 -4 9 -3 20 3 15 8 18 17 13 43 -3
17 -12 41 -19 52 -7 11 -22 54 -33 95 -16 61 -18 86 -10 135 13 85 24 102 60
97 16 -2 29 -8 29 -12 0 -4 8 -10 18 -12 10 -3 25 -20 34 -39 42 -90 68 -150
68 -157 0 -4 9 -18 20 -32 12 -16 20 -41 20 -67 0 -24 5 -43 11 -43 7 0 8 -11
4 -31 -6 -26 -4 -31 14 -36 27 -7 51 -62 55 -121 1 -24 9 -48 17 -53 8 -5 201
-9 429 -9 l415 0 19 60 c10 33 22 57 27 54 5 -3 12 3 15 13 13 42 29 63 41 59
7 -3 13 1 13 10 0 11 8 14 28 12 16 -2 27 -9 27 -18 0 -9 -7 -14 -18 -12 -17
3 -17 2 -2 -22 19 -29 12 -68 -13 -65 -51 5 -72 -1 -72 -21 0 -11 -6 -23 -14
-26 -8 -3 -16 -14 -19 -25 -5 -19 -1 -20 76 -17 l82 3 3 68 c2 42 -1 67 -8 67
-5 0 -10 7 -10 15 0 8 5 15 10 15 6 0 10 14 10 30 0 23 -4 30 -20 30 -31 0
-22 62 14 95 6 6 9 9 7 7 -2 -1 -12 5 -22 14 -11 10 -19 12 -24 4 -13 -21 -25
2 -19 37 6 34 6 34 -27 31 -31 -3 -34 -6 -40 -43 -8 -45 3 -57 38 -48 30 7 31
-20 3 -44 -11 -10 -20 -23 -20 -30 0 -7 -7 -10 -15 -7 -8 4 -15 1 -15 -5 0 -6
5 -11 10 -11 6 0 10 -9 10 -20 0 -11 -3 -20 -8 -20 -4 0 -13 -14 -20 -30 -8
-17 -21 -30 -32 -30 -9 0 -23 -7 -30 -15 -16 -19 -30 -19 -30 0 0 8 7 15 15
15 17 0 20 16 4 25 -16 10 21 34 54 35 20 0 27 5 27 20 0 11 -4 20 -9 20 -4 0
-6 23 -3 50 3 36 1 50 -8 50 -20 0 -52 -43 -47 -62 3 -10 2 -18 -2 -18 -3 0
-11 -10 -16 -21 -13 -29 -29 -29 -33 -2 -4 24 -18 27 -103 23 -48 -2 -59 29
-23 65 13 13 24 36 24 50 0 16 4 24 11 20 6 -4 13 2 16 14 3 11 9 19 13 16 5
-3 11 -1 15 5 3 5 14 10 25 10 17 0 32 21 27 38 -1 4 -15 7 -32 7 -23 0 -31 5
-33 22 -5 32 15 63 41 63 16 0 19 3 8 9 -11 7 -9 10 8 16 25 7 27 30 6 52 -8
8 -13 19 -9 24 11 18 -7 47 -36 59 -23 10 -30 19 -30 40 0 16 -7 36 -16 45
-12 11 -14 25 -10 50 5 27 3 35 -12 39 -11 4 -26 4 -34 1 -23 -9 -32 62 -12
83 14 13 17 13 25 1 7 -11 10 -9 15 9 5 17 10 20 19 12 16 -13 28 12 18 36 -6
16 -7 16 -18 0 -12 -15 -13 -15 -20 1 -7 17 -8 17 -15 -2 -7 -17 -9 -17 -9 -2
-1 9 -5 17 -11 17 -5 0 -10 8 -10 18 0 10 -15 23 -39 33 -34 14 -37 19 -34 46
4 26 8 29 34 25 24 -4 31 0 36 17 3 14 13 21 29 21 13 0 24 5 24 11 0 7 9 9
21 6 12 -3 30 0 41 6 16 10 22 8 38 -13 10 -14 22 -21 26 -17 4 4 2 7 -5 7 -7
0 -11 6 -9 12 3 7 13 13 24 13 12 0 19 7 18 18 -4 94 -2 87 -30 77 -34 -13
-50 -13 -66 4 -8 7 -24 17 -36 20 -23 8 -29 30 -12 41 16 10 12 52 -6 59 -26
10 -29 8 -49 -39 -15 -33 -26 -45 -42 -45 -17 0 -24 8 -28 34 -4 19 -4 43 -1
54 4 12 0 24 -9 32 -14 12 -12 15 17 28 62 27 86 31 92 17 3 -8 0 -15 -6 -17
-7 -3 -5 -13 6 -30 19 -30 46 -28 46 3 0 10 7 19 15 19 8 0 17 11 20 25 3 14
7 36 10 50 4 21 11 25 39 25 30 0 33 -2 28 -25 -4 -26 4 -33 49 -40 44 -6 69
-17 69 -30 0 -23 25 -22 48 1 17 18 19 24 7 24 -9 0 -15 9 -15 25 0 18 -5 25
-19 25 -11 0 -23 5 -27 11 -3 6 -15 9 -25 6 -15 -4 -19 0 -19 21 0 19 -9 33
-30 47 -16 11 -30 23 -30 28 0 4 26 7 58 7 32 0 63 5 70 12 9 9 12 9 12 -2 0
-9 9 -5 25 10 14 13 25 31 25 41 0 9 7 22 15 29 8 7 15 19 15 26 0 8 7 14 15
14 20 0 19 24 0 40 -11 9 -13 16 -5 24 5 5 10 18 10 28 0 13 10 20 30 24 17 4
30 11 30 16 0 6 11 3 25 -6 15 -10 45 -16 79 -16 30 0 56 -5 58 -10 2 -7 14
-6 36 3 35 14 33 27 -5 27 -12 0 -23 6 -23 13 0 8 -4 7 -10 -3 -6 -10 -10 -11
-10 -2 0 7 -13 12 -31 12 -31 0 -59 19 -59 40 0 12 36 5 57 -12 7 -6 19 -5 32
1 25 14 91 14 91 1 0 -5 17 -10 38 -10 21 0 43 -5 48 -10 6 -6 42 -15 80 -21
53 -8 103 -27 219 -84 83 -40 179 -83 215 -94 110 -35 195 -66 198 -72 1 -3
13 -4 26 -2 13 3 39 -2 57 -10 24 -11 80 -17 184 -20 l150 -4 -90 22 c-131 32
-352 121 -363 148 -2 4 -9 7 -16 7 -7 0 -21 7 -32 15 -18 14 -17 15 11 9 17
-4 39 -14 50 -23 31 -25 66 -43 72 -37 3 3 -6 11 -21 17 -14 7 -26 16 -26 21
0 4 -6 8 -12 8 -18 1 -58 36 -58 50 0 7 -20 31 -45 54 -31 29 -45 51 -45 68 0
14 -6 31 -14 37 -8 7 -24 37 -37 69 -12 31 -27 63 -32 70 -5 6 -6 12 -1 12 5
0 4 4 -2 8 -9 6 -46 112 -63 177 -14 55 12 527 30 551 8 10 23 171 34 374 3
47 7 102 9 123 3 27 1 37 -9 37 -21 0 -106 47 -121 67 -13 17 -14 17 -20 -2
-5 -18 -42 -51 -98 -89 -15 -10 -20 -26 -21 -77 -1 -51 -7 -73 -29 -108 -15
-24 -49 -87 -75 -141 -27 -53 -73 -131 -104 -173 -32 -42 -57 -80 -57 -83 0
-3 -21 -38 -47 -78 -67 -100 -178 -223 -232 -256 -25 -16 -52 -38 -59 -49 -20
-33 -71 -28 -113 12 -71 65 -113 136 -131 222 -10 44 -31 143 -48 220 -17 77
-33 162 -36 189 -3 27 -12 65 -20 84 -19 46 -19 76 1 68 8 -3 15 -1 15 4 0 19
49 10 60 -10 7 -13 21 -20 40 -20 28 0 30 2 30 40 0 33 -3 40 -19 40 -34 0
-51 12 -51 34 0 26 -18 46 -41 46 -9 0 -20 7 -23 16 -8 21 3 64 17 64 6 0 24
12 39 27 21 20 28 36 28 64 0 44 -19 54 -81 44 -31 -5 -45 -3 -60 11 -17 15
-18 19 -4 34 8 9 16 27 17 41 2 19 -2 25 -21 27 -15 3 -30 -3 -37 -13 -19 -26
-30 -11 -26 34 3 26 11 45 21 50 20 10 111 2 111 -10 0 -5 24 -9 53 -9 41 1
58 6 80 25 15 13 27 29 27 35 0 27 58 60 93 53 15 -3 56 0 92 7 55 10 70 18
94 47 25 30 35 35 87 39 74 6 120 29 136 66 7 15 21 31 31 34 11 3 28 15 38
25 24 24 95 26 127 3 12 -8 22 -10 22 -5 0 6 7 11 15 11 17 0 39 36 30 50 -3
6 -38 10 -77 10 -65 0 -75 3 -119 35 -27 19 -61 35 -77 35 -32 0 -64 19 -45
27 19 7 16 24 -8 49 -26 28 -19 41 30 54 23 6 43 19 51 35 14 26 21 28 83 25
35 -1 37 0 37 29 0 16 -6 36 -14 43 -16 17 -47 74 -45 85 4 22 -2 47 -9 38 -4
-5 -25 -11 -46 -12 -25 -2 -63 -18 -110 -46 -39 -24 -79 -47 -90 -51 -10 -3
-45 -25 -77 -49 -44 -32 -61 -51 -69 -79 -6 -21 -20 -46 -31 -57 -21 -19 -11
-39 12 -25 6 3 21 1 34 -6 20 -11 28 -9 61 14 30 20 51 26 91 26 49 0 67 -10
43 -25 -5 -3 -10 -21 -10 -39 0 -32 1 -34 50 -40 34 -5 50 -11 50 -21 0 -10
-10 -15 -31 -15 -50 0 -111 -22 -117 -42 -2 -10 -8 -18 -12 -18 -4 0 -13 -20
-20 -45 -20 -73 -104 -114 -130 -65 -14 26 -19 25 -60 -11 -32 -27 -40 -30
-93 -26 -32 2 -61 7 -64 11 -4 4 7 18 25 32 40 32 77 98 77 141 1 37 20 63 47
63 13 0 18 5 15 14 -4 10 2 16 16 19 12 2 6 3 -13 2 -19 -1 -45 2 -57 6 -18 7
-28 3 -47 -16 -14 -14 -29 -25 -34 -25 -5 0 -22 -11 -38 -25 -16 -14 -41 -25
-56 -25 -15 0 -30 -4 -33 -10 -3 -6 -16 -10 -29 -10 -12 0 -33 -11 -46 -25
-13 -14 -34 -25 -46 -25 -17 0 -21 -5 -17 -19 5 -20 -23 -55 -38 -45 -5 3 -21
-4 -35 -15 -19 -15 -41 -21 -73 -21 -51 1 -74 14 -85 47 -4 13 -15 30 -23 39
-11 11 -18 39 -20 82 -3 36 -8 73 -13 81 -6 11 -1 22 16 38 22 20 24 30 24
113 0 49 4 90 9 90 5 0 12 36 16 80 6 73 17 99 28 68 2 -7 7 11 11 40 4 28 11
52 16 52 6 0 10 18 10 40 0 22 5 40 10 40 6 0 10 18 10 40 0 22 5 40 10 40 6
0 10 11 10 25 0 23 2 24 20 15 17 -9 22 -7 29 12 7 19 5 24 -10 26 -26 5 -25
65 2 103 25 36 39 37 39 4 0 -14 5 -25 11 -25 6 0 9 7 5 15 -3 8 -2 15 2 15 5
0 7 20 5 45 -2 26 1 45 7 45 5 0 10 -5 10 -11 0 -26 18 5 24 42 8 48 31 88 39
67 3 -7 6 -3 6 10 1 13 8 36 16 52 13 25 13 29 0 34 -17 6 -22 86 -6 86 14 0
56 41 70 68 7 13 12 40 11 60 -3 63 -1 72 19 72 12 0 25 13 35 35 10 19 28 42
42 51 29 19 31 34 5 34 -22 0 -19 31 5 51 10 8 14 37 14 100 l0 89 28 1 c16 1
20 3 10 6 -13 3 -18 15 -18 39 0 31 3 34 30 34 28 0 30 2 30 39 0 30 -4 40
-20 44 -29 8 -29 77 0 77 27 0 25 14 -5 34 -34 22 -58 69 -42 85 18 18 27 13
27 -14 0 -15 6 -25 14 -25 9 0 15 17 18 50 6 57 9 63 41 65 12 1 23 9 25 20 4
19 77 95 92 95 5 0 7 7 4 15 -4 11 2 17 22 21 20 4 38 20 57 50 18 27 36 44
48 44 12 0 19 7 19 20 0 18 -7 20 -89 20 -48 0 -102 -5 -119 -11 -27 -9 -36
-8 -62 11 -28 20 -30 25 -30 91 0 62 2 69 20 69 18 0 20 7 20 68 0 83 17 203
30 216 7 7 10 2 10 -12 0 -12 5 -22 10 -22 6 0 10 14 10 30 0 32 34 110 53
122 6 4 12 46 14 95 7 186 9 198 34 198 12 0 24 6 27 13 2 6 12 12 21 12 10 0
30 14 44 30 15 17 36 30 47 30 11 0 20 4 20 9 0 5 16 16 35 25 39 19 42 27 20
46 -8 7 -15 25 -15 41 0 26 -4 29 -40 35 -22 4 -40 10 -40 15 0 5 -8 9 -18 9
-10 0 -23 5 -29 11 -8 8 -20 9 -43 1 -25 -9 -36 -8 -54 3 -28 19 -142 23 -158
7 -15 -15 -178 -17 -178 -2 0 6 18 10 40 10 22 0 40 5 40 10 0 6 -18 10 -40
10 -22 0 -40 -3 -40 -8 0 -11 -57 -38 -110 -51 -25 -7 -58 -17 -75 -23 -16 -5
-38 -11 -47 -12 -26 -3 -34 -16 -18 -26 12 -8 9 -10 -10 -10 -15 0 -42 -16
-69 -40 -31 -29 -51 -40 -70 -38 -20 2 -26 -1 -25 -15 1 -10 -7 -19 -22 -23
-17 -4 -23 -11 -19 -23 4 -14 -2 -17 -32 -19 -21 -2 -39 -5 -42 -7 -2 -3 -10
0 -18 7 -10 8 -12 8 -8 -4 6 -15 -51 -48 -84 -48 -10 0 -24 -7 -31 -15 -7 -8
-19 -15 -26 -15 -8 0 -14 -10 -14 -25 0 -24 -3 -25 -45 -23 -33 2 -44 7 -40
16 3 8 -3 16 -12 19 -10 2 -25 17 -33 33 -64 124 -229 460 -280 570 -35 74
-65 137 -67 140 -3 3 -3 -56 -1 -130z m423 -4460 c4 -6 -8 -10 -29 -10 -19 0
-38 5 -41 10 -4 6 8 10 29 10 19 0 38 -4 41 -10z m21 -30 c19 0 34 -4 34 -10
0 -14 -40 -11 -75 6 -16 8 -22 12 -12 9 10 -3 34 -5 53 -5z m-53 -37 c-7 -2
-19 -2 -25 0 -7 3 -2 5 12 5 14 0 19 -2 13 -5z m112 -14 c-41 -7 -66 -2 -46
10 6 4 28 5 48 2 l38 -5 -40 -7z m-260 -9 c-3 -5 -10 -10 -16 -10 -5 0 -9 5
-9 10 0 6 7 10 16 10 8 0 12 -4 9 -10z m65 -20 c-7 -4 -9 -13 -6 -19 8 -13
-25 -13 -64 -1 -25 8 -25 8 8 15 18 4 35 11 38 16 2 4 12 5 20 2 12 -4 12 -8
4 -13z m235 0 c-3 -5 -19 -10 -36 -10 -16 0 -29 -4 -29 -10 0 -5 11 -10 24
-10 13 0 26 -7 30 -15 3 -8 13 -15 22 -15 25 0 11 -23 -17 -26 -52 -5 -205
-35 -224 -44 -34 -15 -81 -17 -93 -3 -17 18 -15 22 10 15 12 -3 19 -1 15 5 -3
5 12 19 34 30 32 16 37 22 23 27 -16 6 -16 8 2 21 10 8 33 14 49 13 23 0 25
-2 8 -5 -27 -5 -31 -21 -5 -19 11 1 16 -5 14 -16 -5 -28 8 -21 19 11 6 16 20
32 32 36 12 5 31 11 42 15 30 12 87 12 80 0z m-298 -36 c-3 -3 -12 -4 -19 -1
-8 3 -5 6 6 6 11 1 17 -2 13 -5z m83 -114 c-10 -7 15 -9 81 -4 92 6 96 6 102
-15 3 -14 13 -21 29 -21 18 0 20 -2 8 -10 -12 -8 -11 -10 8 -10 12 0 22 -4 22
-10 0 -5 -8 -10 -18 -10 -10 0 -27 -7 -38 -15 -18 -14 -18 -14 9 -15 22 0 27
-4 27 -25 0 -16 6 -25 16 -25 11 0 14 -5 10 -16 -3 -8 1 -22 9 -30 8 -9 15
-24 15 -34 0 -27 18 -34 22 -8 2 12 8 23 13 25 20 6 90 -71 103 -114 7 -23 21
-48 32 -56 15 -10 19 -26 20 -78 1 -35 -2 -75 -6 -89 -7 -22 -6 -24 9 -11 16
12 19 9 16 -15 0 -4 5 -11 13 -15 10 -7 10 -13 2 -27 -8 -12 -9 -24 -2 -35 6
-12 5 -17 -3 -17 -7 0 -8 -7 -4 -17 4 -10 9 -29 10 -43 1 -14 3 -31 4 -38 1
-10 10 -12 30 -7 33 7 45 -11 35 -51 -4 -16 -2 -24 6 -24 8 0 11 -11 8 -31 -4
-23 1 -34 18 -48 19 -15 32 -54 36 -111 3 -32 -5 -124 -8 -110 -7 25 -42 42
-62 31 -15 -8 -18 -21 -16 -73 2 -35 1 -55 -2 -46 -4 13 -13 15 -40 11 -27 -4
-38 -1 -48 13 -9 11 -26 18 -49 18 -31 0 -34 2 -26 18 7 14 6 18 -6 18 -9 0
-13 5 -10 10 4 6 1 18 -6 26 -10 12 -14 11 -27 -7 -15 -22 -16 -22 -23 -3 -7
17 -8 17 -8 2 -1 -10 -7 -18 -15 -18 -8 0 -19 -13 -24 -30 -8 -21 -16 -28 -26
-24 -11 4 -16 1 -16 -10 0 -25 -29 -19 -36 8 -6 26 -36 45 -42 27 -6 -18 -18
-12 -30 13 -13 29 6 92 34 113 15 11 20 10 35 -3 19 -17 39 -11 39 12 0 8 9
14 20 14 19 0 28 24 12 33 -10 7 -112 -14 -112 -23 0 -5 -10 -6 -21 -3 -14 4
-25 0 -31 -11 -6 -11 -16 -15 -29 -11 -12 4 -21 1 -25 -9 -3 -9 -12 -16 -20
-16 -16 0 -20 76 -4 82 6 2 6 8 0 18 -8 13 -10 12 -10 -2 0 -10 -4 -18 -10
-18 -5 0 -10 7 -10 16 0 10 -6 14 -14 11 -20 -8 -39 19 -33 45 7 27 0 41 -31
57 -12 6 -22 20 -22 29 0 12 -13 24 -35 32 -33 13 -35 16 -28 45 4 16 7 42 8
58 0 16 6 27 14 27 9 0 11 6 6 18 -4 9 -7 26 -7 36 1 19 -32 56 -51 56 -5 0
-7 11 -5 24 3 15 -1 27 -13 34 -14 9 -16 22 -12 81 4 61 3 71 -12 71 -12 0
-15 5 -9 23 3 12 7 22 8 23 0 0 13 8 28 17 15 9 41 17 58 17 18 0 30 5 30 13
0 8 9 22 20 32 11 10 20 14 20 10 0 -5 3 -6 6 -2 4 3 -1 13 -10 23 -10 10 -14
24 -10 36 3 11 7 28 8 37 2 10 14 17 37 19 64 4 99 13 99 23 0 13 -94 2 -123
-13 -14 -7 -24 -3 -44 18 -19 21 -22 29 -11 35 7 4 23 6 35 3 16 -4 25 -1 29
11 4 9 21 23 38 31 37 16 57 18 36 4z m-132 -188 c2 -7 -3 -12 -12 -12 -9 0
-16 7 -16 16 0 17 22 14 28 -4z m2039 -44 c-3 -7 -5 -2 -5 12 0 14 2 19 5 13
2 -7 2 -19 0 -25z m-2057 7 c0 -17 -16 -20 -25 -5 -3 5 -12 7 -19 4 -8 -3 -17
-1 -21 5 -4 7 7 11 29 11 25 0 36 -4 36 -15z m750 -489 c0 -3 -4 -8 -10 -11
-5 -3 -10 -1 -10 4 0 6 5 11 10 11 6 0 10 -2 10 -4z m1242 -158 c-9 -36 -18
-16 -16 35 3 99 7 112 14 47 3 -36 4 -73 2 -82z m-1927 -98 c-3 -6 -10 -10
-16 -10 -10 0 -12 33 -2 44 9 9 26 -22 18 -34z m45 -71 c0 -7 -10 -20 -22 -31
-19 -16 -24 -17 -36 -4 -15 14 -8 41 8 31 5 -3 11 -1 15 5 8 14 35 13 35 -1z
m2 -71 c-8 -8 -9 -4 -5 13 4 13 8 18 11 10 2 -7 -1 -18 -6 -23z m265 -310 c-3
-8 -6 -5 -6 6 -1 11 2 17 5 13 3 -3 4 -12 1 -19z m727 -242 c-3 -9 -10 -16
-15 -16 -14 0 -11 28 4 33 16 6 19 3 11 -17z m-324 -12 c0 -2 -9 -4 -21 -4
-11 0 -18 4 -14 10 5 8 35 3 35 -6z m405 -36 c7 -7 0 -9 -24 -4 -18 3 -40 6
-47 6 -8 0 -14 5 -14 11 0 14 70 3 85 -13z m-85 -43 c0 -16 -35 -20 -65 -9
-13 5 -14 8 -3 15 22 15 68 11 68 -6z m-214 -50 c10 -8 27 -15 37 -15 11 0 17
-8 17 -25 0 -14 -4 -25 -9 -25 -5 0 -11 -11 -13 -25 -3 -28 -23 -30 -22 -2 0
9 -3 17 -7 17 -4 0 -9 12 -11 28 -2 15 -7 25 -12 24 -9 -4 -26 16 -26 31 0 12
25 8 46 -8z m-136 -430 c0 -8 -7 -15 -15 -15 -16 0 -20 12 -8 23 11 12 23 8
23 -8z m42 -261 c3 -12 2 -28 -3 -35 -6 -9 -9 -2 -9 23 0 20 -4 40 -10 43 -5
3 -10 11 -10 18 0 16 26 -23 32 -49z m5 -174 c-1 -13 -8 -20 -22 -19 -11 0
-14 3 -7 6 6 2 12 11 12 19 0 8 4 14 9 14 6 0 9 -9 8 -20z"/>
<path d="M330 3560 c0 -5 5 -10 10 -10 6 0 10 5 10 10 0 6 -4 10 -10 10 -5 0
-10 -4 -10 -10z"/>
<path d="M390 3441 c0 -5 9 -7 20 -4 11 3 20 7 20 9 0 2 -9 4 -20 4 -11 0 -20
-4 -20 -9z"/>
<path d="M380 3400 c0 -5 14 -10 31 -10 17 0 28 4 24 10 -3 6 -17 10 -31 10
-13 0 -24 -4 -24 -10z"/>
<path d="M262 2755 c0 -16 2 -22 5 -12 2 9 2 23 0 30 -3 6 -5 -1 -5 -18z"/>
<path d="M305 2690 c-11 -17 5 -32 21 -19 7 6 11 15 8 20 -7 12 -21 11 -29 -1z"/>
<path d="M496 2345 c-3 -9 0 -15 9 -15 9 0 12 6 9 15 -4 8 -7 15 -9 15 -2 0
-5 -7 -9 -15z"/>
<path d="M540 2323 c0 -5 5 -15 10 -23 8 -12 10 -11 10 8 0 12 -4 22 -10 22
-5 0 -10 -3 -10 -7z"/>
<path d="M8644 8198 c-6 -29 -27 -114 -47 -188 -19 -74 -38 -158 -42 -187 l-7
-52 39 -11 c23 -7 46 -23 55 -37 14 -23 15 -17 21 98 9 168 9 429 -1 429 -4 0
-13 -24 -18 -52z"/>
<path d="M1769 8147 c-15 -5 -34 -23 -43 -39 -16 -27 -16 -32 -1 -81 28 -85
39 -97 89 -97 36 0 50 6 74 30 32 31 32 36 13 85 -23 58 -36 78 -66 97 -33 20
-30 20 -66 5z"/>
<path d="M641 7724 c0 -11 3 -14 6 -6 3 7 2 16 -1 19 -3 4 -6 -2 -5 -13z"/>
<path d="M3633 7164 c-3 -8 3 -27 14 -42 19 -26 166 -132 183 -132 5 0 16 7
24 16 29 28 -10 74 -134 157 -31 22 -79 22 -87 1z"/>
<path d="M5165 6930 c-3 -5 -1 -10 4 -10 6 0 11 5 11 10 0 6 -2 10 -4 10 -3 0
-8 -4 -11 -10z"/>
<path d="M3956 6704 c-4 -14 -5 -28 -3 -31 3 -2 8 8 11 23 4 14 5 28 3 31 -3
2 -8 -8 -11 -23z"/>
<path d="M3932 6601 c-7 -29 -12 -62 -11 -74 0 -12 7 7 15 43 8 36 13 69 11
74 -2 5 -8 -15 -15 -43z"/>
<path d="M1701 6116 c-26 -27 -32 -40 -29 -67 3 -29 7 -34 31 -37 49 -6 124
97 94 127 -22 22 -63 12 -96 -23z"/>
<path d="M4545 5960 c-3 -5 -1 -10 4 -10 6 0 11 5 11 10 0 6 -2 10 -4 10 -3 0
-8 -4 -11 -10z"/>
<path d="M6960 5796 c0 -9 5 -16 10 -16 6 0 10 4 10 9 0 6 -4 13 -10 16 -5 3
-10 -1 -10 -9z"/>
<path d="M1415 5776 c-14 -14 -25 -32 -25 -39 0 -46 127 -64 156 -23 21 30 17
42 -18 59 -64 29 -86 30 -113 3z"/>
<path d="M1233 5763 c-7 -3 -13 -12 -13 -21 0 -15 2 -15 17 1 18 18 16 27 -4
20z"/>
<path d="M6980 5760 c0 -5 5 -10 10 -10 6 0 10 5 10 10 0 6 -4 10 -10 10 -5 0
-10 -4 -10 -10z"/>
<path d="M6890 5740 c0 -5 12 -10 26 -10 14 0 23 4 19 10 -3 6 -15 10 -26 10
-10 0 -19 -4 -19 -10z"/>
<path d="M6870 5700 c-12 -7 -12 -12 -2 -22 14 -14 16 -32 3 -24 -5 3 -12 -5
-15 -19 -4 -14 -11 -25 -16 -25 -6 0 -10 -4 -10 -10 0 -5 11 -10 25 -10 20 0
25 5 25 25 0 14 5 33 11 44 15 24 0 54 -21 41z"/>
<path d="M6802 5513 c-26 -5 -20 -23 9 -23 10 0 19 7 19 15 0 8 -1 14 -2 14
-2 -1 -13 -4 -26 -6z"/>
<path d="M1358 5435 c-23 -13 -28 -22 -28 -56 0 -36 22 -94 42 -109 3 -3 0
-14 -7 -24 -11 -14 -22 -17 -47 -13 -33 6 -75 -13 -60 -27 4 -4 -7 -4 -23 0
-17 4 -33 11 -36 16 -8 12 -40 -2 -33 -13 9 -15 -15 -39 -32 -32 -10 4 -14 -3
-14 -26 0 -30 2 -31 40 -31 22 0 57 -7 77 -15 46 -19 82 -19 90 0 3 9 18 22
33 30 29 15 47 70 26 79 -12 5 32 45 49 46 18 1 61 44 74 74 11 27 10 33 -16
70 -25 35 -35 41 -68 43 -22 2 -52 -4 -67 -12z m-182 -290 c18 -14 17 -14 -13
-15 -25 0 -31 4 -27 15 8 19 15 19 40 0z"/>
<path d="M5452 5308 c2 -12 8 -23 14 -25 7 -2 10 6 7 22 -6 30 -26 34 -21 3z"/>
<path d="M2182 4960 c-34 -8 -51 -24 -78 -73 -15 -27 -12 -47 7 -47 6 0 34
-11 63 -25 30 -14 60 -23 68 -20 8 3 23 33 33 66 l18 59 -23 25 c-25 26 -34
28 -88 15z"/>
<path d="M6765 4860 c3 -5 8 -10 11 -10 2 0 4 5 4 10 0 6 -5 10 -11 10 -5 0
-7 -4 -4 -10z"/>
<path d="M5520 4801 c0 -5 8 -17 17 -27 18 -18 30 -6 19 21 -6 16 -36 21 -36
6z"/>
<path d="M5370 4710 c8 -5 22 -9 30 -9 10 0 8 3 -5 9 -27 12 -43 12 -25 0z"/>
<path d="M2503 4623 c-7 -2 -13 -11 -13 -19 0 -9 -4 -12 -10 -9 -5 3 -10 0
-10 -8 0 -31 27 -25 43 9 16 33 15 38 -10 27z"/>
<path d="M6687 4544 c-4 -4 -7 -17 -7 -28 1 -19 1 -20 11 -3 11 19 8 43 -4 31z"/>
<path d="M2175 4431 l-70 -6 -5 -52 c-3 -29 -3 -54 0 -54 9 -3 153 -10 190
-10 26 0 42 7 63 31 32 36 34 53 7 80 -21 21 -42 22 -185 11z"/>
<path d="M6570 4370 c0 -5 5 -10 10 -10 6 0 10 5 10 10 0 6 -4 10 -10 10 -5 0
-10 -4 -10 -10z"/>
<path d="M1420 4310 c0 -5 7 -10 15 -10 8 0 15 5 15 10 0 6 -7 10 -15 10 -8 0
-15 -4 -15 -10z"/>
<path d="M2215 4172 c-47 -6 -60 -21 -36 -43 16 -15 23 -16 45 -6 27 13 42 36
29 47 -4 3 -21 4 -38 2z"/>
<path d="M785 4160 c3 -5 8 -10 11 -10 2 0 4 5 4 10 0 6 -5 10 -11 10 -5 0 -7
-4 -4 -10z"/>
<path d="M2416 4088 c-86 -159 -135 -255 -151 -298 -10 -25 -25 -63 -35 -85
-9 -22 -20 -50 -24 -61 -7 -22 -6 -22 36 -6 36 14 89 17 338 17 283 -1 448
-13 703 -52 35 -5 51 -21 25 -24 -17 -2 45 -12 219 -34 127 -16 143 -16 157
-2 14 13 13 15 -4 20 -31 8 -23 27 11 27 45 0 201 -19 290 -36 42 -8 86 -14
98 -14 14 0 25 -7 28 -19 3 -11 12 -20 21 -20 10 0 31 -2 47 -6 27 -5 26 -3
-10 15 l-40 20 35 -4 c19 -3 91 -10 159 -16 132 -12 171 -22 170 -42 0 -10 -2
-10 -6 0 -7 17 -23 15 -23 -2 0 -8 -9 -17 -20 -21 -21 -7 -192 3 -225 12 -35
11 -65 11 -65 2 0 -5 -4 -9 -10 -9 -5 0 -10 7 -10 15 0 8 -4 15 -10 15 -5 0
-10 -6 -10 -14 0 -7 -9 -16 -20 -19 -11 -3 -20 -11 -20 -19 0 -8 3 -9 8 -2 15
22 272 12 587 -21 77 -9 155 -18 173 -21 25 -4 32 -1 32 11 0 13 8 15 43 11
23 -3 123 -15 222 -26 99 -11 191 -22 205 -25 14 -2 63 -10 110 -18 47 -8 90
-16 95 -17 30 -7 38 0 21 19 -19 21 -14 28 32 36 20 3 36 0 46 -10 8 -8 16
-15 18 -15 2 0 3 37 4 83 0 46 4 96 8 111 l7 28 -38 -22 c-62 -37 -65 -41 -48
-74 8 -15 15 -36 14 -45 0 -10 -2 -11 -6 -3 -6 15 -44 16 -78 0 -21 -10 -29
-9 -43 6 -15 15 -15 18 -2 26 13 9 13 10 -1 10 -8 0 -19 -4 -25 -9 -13 -13
-258 -35 -250 -23 2 4 -6 8 -17 8 -39 2 -261 35 -292 43 -29 7 -30 9 -30 67
l0 59 -240 82 c-308 106 -315 108 -539 134 -170 19 -202 20 -320 10 -72 -7
-187 -16 -256 -22 -145 -11 -190 -17 -190 -27 -1 -4 -7 -29 -14 -57 -13 -50
-13 -50 -52 -47 -94 7 -266 36 -344 58 -219 62 -374 193 -427 361 -9 29 -19
53 -22 53 -4 0 -24 -33 -45 -72z m1297 -398 c49 -13 60 -25 30 -33 -11 -3 -7
-5 10 -6 15 0 27 4 27 9 0 6 14 10 30 10 17 0 30 -4 30 -9 0 -5 10 -12 23 -16
57 -20 59 -23 11 -18 -28 3 -86 6 -130 8 -70 2 -124 11 -124 21 0 18 22 52 32
50 7 -2 34 -9 61 -16z m307 -30 c0 -5 -4 -10 -10 -10 -5 0 -10 5 -10 10 0 6 5
10 10 10 6 0 10 -4 10 -10z m-97 -7 c-7 -2 -21 -2 -30 0 -10 3 -4 5 12 5 17 0
24 -2 18 -5z m52 -34 c-15 -5 -33 -5 -39 -2 -14 9 34 21 54 14 9 -3 4 -7 -15
-12z m128 14 c-7 -2 -21 -2 -30 0 -10 3 -4 5 12 5 17 0 24 -2 18 -5z m-46 -19
c-3 -3 -12 -4 -19 -1 -8 3 -5 6 6 6 11 1 17 -2 13 -5z m366 -11 c-7 -2 -19 -2
-25 0 -7 3 -2 5 12 5 14 0 19 -2 13 -5z m-40 -30 c-7 -2 -21 -2 -30 0 -10 3
-4 5 12 5 17 0 24 -2 18 -5z m149 -124 c5 -4 3 -9 -6 -12 -13 -5 -16 1 -15 31
1 28 3 31 6 12 3 -14 9 -28 15 -31z"/>
<path d="M8530 4126 c0 -21 11 -25 38 -15 28 11 20 29 -14 29 -14 0 -24 -6
-24 -14z"/>
<path d="M5250 4121 c0 -5 5 -11 12 -13 7 -3 12 -22 12 -49 -1 -39 0 -40 3 -6
2 20 9 37 14 37 6 0 6 8 -1 20 -11 20 -40 28 -40 11z"/>
<path d="M7014 4037 c-3 -8 -4 -30 -2 -49 3 -33 3 -33 62 -36 96 -6 99 28 7
70 -25 11 -49 22 -54 25 -4 2 -10 -2 -13 -10z"/>
<path d="M5295 4000 c3 -5 10 -10 16 -10 5 0 9 5 9 10 0 6 -7 10 -16 10 -8 0
-12 -4 -9 -10z"/>
<path d="M6565 3919 c-10 -14 -1 -21 19 -13 9 3 13 10 10 15 -7 12 -21 11 -29
-2z"/>
<path d="M5220 3860 c0 -5 5 -10 10 -10 6 0 10 5 10 10 0 6 -4 10 -10 10 -5 0
-10 -4 -10 -10z"/>
<path d="M6420 3789 c0 -5 5 -7 10 -4 6 3 10 8 10 11 0 2 -4 4 -10 4 -5 0 -10
-5 -10 -11z"/>
<path d="M6402 3730 c0 -14 2 -19 5 -12 2 6 2 18 0 25 -3 6 -5 1 -5 -13z"/>
<path d="M6946 3724 c-8 -20 1 -34 20 -34 20 0 30 30 13 41 -20 12 -26 11 -33
-7z"/>
<path d="M1806 3585 c-17 -16 -26 -32 -22 -41 3 -9 6 -20 6 -25 0 -14 38 -11
47 4 4 8 16 16 26 20 24 9 32 34 17 52 -18 22 -43 18 -74 -10z"/>
<path d="M1495 3544 c-55 -13 -62 -18 -79 -55 -23 -46 -26 -49 -67 -56 -19 -3
-29 0 -29 9 -1 7 -9 3 -20 -10 -16 -19 -18 -28 -9 -44 9 -17 9 -20 -4 -15 -11
4 -13 0 -10 -14 4 -15 9 -17 19 -9 9 8 19 7 38 -5 16 -11 35 -15 50 -11 35 9
68 -10 86 -47 19 -40 41 -45 72 -15 36 35 55 70 56 104 0 26 -3 31 -18 27 -29
-8 -34 16 -6 27 14 5 26 13 26 18 0 5 11 14 25 20 17 8 25 20 25 36 0 49 -56
64 -155 40z"/>
<path d="M4003 3468 c20 -5 37 -14 37 -19 0 -5 4 -9 9 -9 5 0 8 8 7 18 -2 13
-13 17 -47 19 l-44 2 38 -11z"/>
<path d="M3832 3456 c2 -10 -3 -21 -9 -23 -7 -3 -13 0 -13 6 0 20 -16 11 -17
-9 -1 -16 4 -20 28 -20 31 0 39 20 18 50 -8 13 -9 12 -7 -4z"/>
<path d="M3670 3444 c-25 -8 -59 -19 -76 -24 -17 -6 -46 -10 -65 -10 -26 0
-30 -3 -19 -10 18 -12 240 -13 258 -2 14 9 6 42 -12 54 -15 11 -34 9 -86 -8z"/>
<path d="M5442 3274 c-17 -8 -87 -26 -155 -40 -182 -38 -181 -38 -82 -44 161
-10 332 14 343 48 2 6 -3 12 -12 12 -8 0 -20 9 -26 20 -12 23 -23 24 -68 4z"/>
<path d="M6071 3134 c0 -11 3 -14 6 -6 3 7 2 16 -1 19 -3 4 -6 -2 -5 -13z"/>
<path d="M6135 3140 c-3 -5 -2 -10 4 -10 5 0 18 -3 28 -7 17 -6 17 -6 1 10
-19 20 -24 21 -33 7z"/>
<path d="M6180 3046 c0 -2 7 -9 15 -16 12 -10 15 -10 15 4 0 9 -7 16 -15 16
-8 0 -15 -2 -15 -4z"/>
<path d="M6230 3035 c0 -8 4 -15 10 -15 5 0 7 7 4 15 -4 8 -8 15 -10 15 -2 0
-4 -7 -4 -15z"/>
<path d="M5782 2915 c0 -16 2 -22 5 -12 2 9 2 23 0 30 -3 6 -5 -1 -5 -18z"/>
<path d="M5900 2911 c0 -5 7 -12 16 -15 24 -9 28 -7 14 9 -14 17 -30 20 -30 6z"/>
<path d="M1545 2890 c-4 -6 7 -10 27 -9 27 0 30 2 13 9 -27 12 -33 12 -40 0z"/>
<path d="M1475 2836 c-31 -22 -43 -50 -26 -60 13 -9 71 24 71 40 0 8 9 14 20
14 24 0 27 15 4 24 -24 9 -36 6 -69 -18z"/>
<path d="M7144 2825 c-19 -14 -18 -14 4 -15 13 0 22 6 22 15 0 19 -1 19 -26 0z"/>
<path d="M8253 2757 c-3 -4 -2 -19 1 -33 5 -20 12 -24 47 -24 43 0 60 20 42
49 -11 17 -80 23 -90 8z"/>
<path d="M6815 2722 c-3 -3 -5 -13 -5 -23 0 -25 59 -51 109 -47 l41 3 -23 29
c-17 21 -35 30 -70 36 -26 4 -49 5 -52 2z"/>
<path d="M7255 2453 c-11 -3 -26 -12 -32 -21 -19 -24 3 -42 52 -42 45 0 69 17
59 43 -5 13 -38 29 -54 26 -3 -1 -14 -3 -25 -6z"/>
<path d="M5720 2281 c0 -5 7 -11 15 -15 9 -3 15 0 15 9 0 8 -7 15 -15 15 -8 0
-15 -4 -15 -9z"/>
<path d="M7208 2249 c-25 -14 -22 -36 5 -43 35 -9 39 -8 35 21 -3 30 -15 37
-40 22z"/>
<path d="M7975 2200 c3 -5 10 -10 16 -10 5 0 9 5 9 10 0 6 -7 10 -16 10 -8 0
-12 -4 -9 -10z"/>
<path d="M8100 2126 c0 -9 5 -16 10 -16 6 0 10 4 10 9 0 6 -4 13 -10 16 -5 3
-10 -1 -10 -9z"/>
<path d="M5690 2040 c0 -16 -1 -33 -2 -37 -3 -13 66 -55 70 -44 2 6 15 11 28
11 13 0 24 4 24 9 0 12 -54 51 -69 51 -6 0 -11 9 -11 20 0 13 -7 20 -20 20
-16 0 -20 -7 -20 -30z"/>
<path d="M7044 1993 c-42 -4 -53 -17 -54 -64 0 -47 103 -36 112 12 5 29 -1 60
-10 57 -4 -1 -26 -3 -48 -5z"/>
<path d="M1760 1960 c0 -11 -5 -20 -12 -20 -6 0 -9 -2 -6 -5 3 -3 13 -3 22 1
17 7 23 44 6 44 -5 0 -10 -9 -10 -20z"/>
<path d="M5641 1951 c-24 -49 -24 -50 5 -47 24 3 29 8 31 34 3 39 -19 48 -36
13z"/>
<path d="M5587 1851 c-16 -28 -99 -134 -122 -156 -38 -38 -150 -118 -202 -144
-92 -46 -222 -80 -332 -87 -106 -7 -224 6 -531 55 -36 6 -117 13 -182 16 -64
3 -127 8 -140 11 -34 7 -320 44 -418 54 -47 5 -103 12 -124 16 -26 5 -37 4
-33 -3 4 -6 24 -13 44 -16 21 -3 56 -10 78 -16 75 -19 156 -35 191 -35 19 -1
34 -4 34 -7 0 -13 59 -32 130 -41 122 -16 132 -19 172 -57 19 -19 29 -40 34
-79 6 -50 5 -53 -28 -85 -40 -38 -57 -84 -34 -93 9 -3 18 -21 22 -40 5 -29 8
-32 21 -19 24 24 42 17 58 -21 21 -52 20 -58 -22 -77 -35 -16 -61 -14 -35 2 7
4 10 15 6 24 -8 21 -64 24 -64 3 0 -8 -3 -22 -6 -31 -5 -13 -2 -15 20 -9 20 5
26 3 26 -11 0 -9 4 -14 9 -11 4 3 17 -1 27 -9 10 -8 28 -15 39 -15 15 0 17 -2
6 -9 -18 -11 -5 -31 20 -31 10 0 19 -4 19 -10 0 -5 -11 -10 -25 -10 -14 0 -25
-4 -25 -10 0 -5 -6 -10 -14 -10 -9 0 -12 7 -9 20 6 22 -7 26 -25 8 -9 -9 -12
-5 -12 21 0 38 -16 33 -25 -9 -4 -16 -13 -33 -20 -38 -10 -5 -11 -12 -5 -22 7
-10 10 -11 10 -2 0 6 11 12 25 12 14 0 25 -4 25 -10 0 -5 -7 -10 -15 -10 -7 0
-18 -6 -22 -14 -4 -7 -23 -21 -40 -30 -18 -9 -33 -20 -33 -25 0 -5 -9 -11 -20
-14 -12 -3 -20 -14 -20 -26 0 -12 -6 -21 -15 -21 -8 0 -15 -8 -15 -17 0 -15 2
-16 10 -3 6 10 10 11 10 3 0 -19 -4 -28 -11 -26 -4 1 -14 -6 -24 -17 -9 -10
-23 -16 -31 -13 -8 3 -17 -5 -24 -21 -5 -14 -16 -26 -25 -26 -19 0 -19 14 0
30 17 14 21 60 5 60 -13 0 -29 -40 -23 -56 2 -6 -10 -25 -27 -42 -16 -17 -33
-44 -36 -61 -4 -17 -13 -36 -20 -42 -8 -6 -14 -17 -14 -24 0 -6 -9 -20 -20
-30 -11 -10 -20 -26 -20 -35 0 -9 -7 -25 -15 -36 -8 -10 -15 -29 -15 -40 0
-12 -17 -36 -38 -55 -41 -36 -68 -77 -58 -87 12 -11 61 14 65 33 4 25 21 36
43 29 22 -7 33 13 17 33 -11 13 -10 17 6 29 10 8 22 14 27 14 4 0 8 7 8 15 0
8 5 15 10 15 6 0 10 -7 10 -16 0 -12 6 -15 24 -10 20 5 23 3 19 -14 -5 -18 0
-20 38 -22 112 -4 119 -5 119 -23 0 -33 17 -12 29 35 l13 50 51 1 c29 1 71 1
94 1 28 -1 43 3 47 13 8 23 53 18 66 -6 7 -11 9 -27 6 -34 -3 -8 -1 -17 4 -20
6 -4 10 -2 10 4 0 5 13 12 30 16 32 7 51 25 26 25 -9 0 -16 5 -16 10 0 6 9 10
20 10 23 0 27 17 5 22 -13 3 -13 6 0 32 19 36 19 36 -4 36 -11 0 -23 5 -26 10
-11 17 5 50 25 50 10 0 20 9 23 21 13 48 57 -31 57 -101 0 -22 4 -40 8 -40 4
0 16 -13 25 -30 27 -45 37 -37 37 30 0 45 4 62 15 66 8 4 15 11 15 18 0 15 38
38 50 31 6 -4 10 -15 10 -26 0 -24 16 -23 55 1 40 26 94 50 111 50 23 0 16 41
-11 66 -33 30 -24 54 21 54 21 0 37 6 40 15 5 11 11 12 25 4 25 -13 25 -39 0
-32 -15 4 -18 0 -14 -20 3 -14 12 -27 21 -30 10 -3 25 -8 35 -12 13 -6 20 0
28 24 6 17 15 31 19 31 4 0 15 19 24 42 14 33 15 43 4 49 -7 5 -14 4 -16 -1
-2 -6 -9 -10 -15 -10 -8 0 -7 4 1 12 7 7 12 20 12 29 0 10 7 24 15 32 12 13
12 15 -5 20 -11 3 -20 2 -20 -1 0 -4 -11 -12 -25 -18 -23 -11 -24 -10 -18 16
3 15 1 36 -4 45 -6 9 -8 28 -5 41 6 31 50 45 64 20 10 -18 64 -22 88 -6 10 6
11 10 3 10 -9 0 -13 15 -12 43 1 31 3 36 7 19 13 -44 27 -17 23 45 -3 65 10
103 35 103 8 0 14 6 13 13 -4 30 3 36 44 39 26 2 41 7 40 15 -2 9 6 11 27 6
35 -6 39 6 10 32 -22 20 -26 41 -8 47 21 7 0 41 -22 35 -11 -3 -20 -1 -20 4 0
5 27 16 60 26 51 14 60 20 60 39 0 23 33 54 59 54 7 0 19 7 26 17 7 9 28 17
51 18 40 1 40 1 31 48 -2 10 14 20 60 38 23 10 32 21 36 42 2 16 -2 31 -10 35
-9 6 -10 16 -5 37 5 17 8 47 7 68 -1 23 1 33 6 25 12 -19 28 1 33 40 2 17 9
39 16 47 10 12 10 15 -2 15 -7 0 -21 -13 -31 -29z m-1830 -1513 c-3 -8 -6 -5
-6 6 -1 11 2 17 5 13 3 -3 4 -12 1 -19z"/>
<path d="M7190 1773 c-18 -4 -60 -63 -60 -85 0 -31 27 -41 87 -33 71 9 87 19
71 48 -25 48 -67 77 -98 70z"/>
<path d="M8185 1695 c-17 -7 -24 -14 -17 -14 6 -1 12 -7 12 -14 0 -12 56 -67
69 -67 3 0 17 -6 31 -13 35 -18 94 -16 98 4 2 11 -17 26 -57 48 -33 17 -63 36
-66 41 -14 22 -41 28 -70 15z"/>
<path d="M3035 1680 c3 -5 12 -7 20 -3 21 7 19 13 -6 13 -11 0 -18 -4 -14 -10z"/>
<path d="M7685 1522 c-20 -14 -41 -57 -43 -89 -2 -23 4 -36 20 -47 49 -34 110
-4 104 51 -2 15 0 33 5 39 16 19 -64 62 -86 46z"/>
<path d="M1193 1491 c-15 -24 -5 -35 15 -15 9 9 11 19 6 24 -6 6 -14 2 -21 -9z"/>
<path d="M6581 1461 c-16 -29 9 -45 37 -25 12 8 22 21 21 27 0 9 -2 9 -6 0 -2
-7 -11 -13 -19 -13 -8 0 -11 6 -8 15 9 22 -13 18 -25 -4z"/>
<path d="M8350 1344 c0 -8 35 -44 42 -44 18 0 6 26 -17 37 -14 6 -25 9 -25 7z"/>
<path d="M1784 1299 c-3 -6 -1 -16 5 -22 6 -6 11 -19 11 -30 0 -23 24 -17 28
8 2 10 -2 21 -10 26 -10 7 -10 9 2 9 13 0 13 1 0 10 -20 13 -27 12 -36 -1z"/>
<path d="M1672 1258 c-9 -9 -8 -16 5 -30 15 -16 15 -18 0 -18 -9 0 -19 5 -22
10 -4 6 -11 7 -18 3 -7 -4 -4 -9 9 -13 11 -4 19 -16 19 -31 0 -19 6 -25 28
-27 23 -3 27 -8 27 -33 0 -16 3 -29 6 -29 9 0 30 24 37 42 3 10 22 20 44 24
31 6 34 8 18 14 -20 8 -54 -4 -68 -24 -5 -7 -13 -4 -24 12 -8 12 -22 22 -29
22 -16 0 -19 16 -4 25 6 3 10 19 10 36 0 30 -17 38 -38 17z"/>
<path d="M1780 1210 c0 -13 18 -22 24 -11 3 5 -1 11 -9 15 -8 3 -15 1 -15 -4z"/>
<path d="M1579 1196 c16 -19 55 -22 49 -3 -3 6 -17 14 -33 15 -25 3 -27 2 -16
-12z"/>
<path d="M1280 1188 c0 -5 6 -8 13 -8 15 0 14 -51 -1 -84 -33 -72 -40 -106
-22 -106 6 0 10 7 10 15 0 9 6 12 16 8 19 -7 34 13 34 48 0 15 7 32 15 39 17
14 21 70 5 70 -5 0 -10 6 -10 14 0 8 -11 13 -30 12 -16 -1 -30 -4 -30 -8z"/>
<path d="M1740 1180 c0 -5 5 -10 10 -10 6 0 10 5 10 10 0 6 -4 10 -10 10 -5 0
-10 -4 -10 -10z"/>
<path d="M6460 1131 c-17 -33 -11 -48 27 -71 35 -21 39 -21 70 -6 36 17 42 39
17 74 -21 30 -98 32 -114 3z"/>
<path d="M5145 1120 c3 -5 10 -10 16 -10 5 0 9 5 9 10 0 6 -7 10 -16 10 -8 0
-12 -4 -9 -10z"/>
<path d="M1772 1105 c0 -11 3 -29 8 -40 11 -25 11 1 0 35 -6 20 -8 21 -8 5z"/>
<path d="M1843 1070 c-31 -13 -29 -20 7 -20 20 0 30 5 30 15 0 17 -5 18 -37 5z"/>
<path d="M1797 1013 c-3 -5 -8 -23 -12 -41 -5 -24 -3 -33 9 -38 23 -9 20 -24
-4 -24 -21 0 -28 -16 -10 -22 7 -2 5 -11 -4 -23 -12 -17 -16 -18 -31 -5 -15
12 -19 12 -31 -4 -7 -11 -11 -22 -8 -27 9 -15 64 -37 70 -28 3 5 0 9 -5 9 -19
0 -12 17 9 23 11 3 20 13 20 24 0 10 11 31 25 47 20 24 24 36 19 60 -9 45 -34
70 -47 49z"/>
<path d="M1887 1014 c-15 -15 -7 -44 13 -44 11 0 20 4 20 8 0 15 -26 43 -33
36z"/>
<path d="M1230 985 c0 -8 4 -15 10 -15 5 0 7 7 4 15 -4 8 -8 15 -10 15 -2 0
-4 -7 -4 -15z"/>
<path d="M1196 893 c-6 -14 -5 -15 5 -6 7 7 10 15 7 18 -3 3 -9 -2 -12 -12z"/>
<path d="M4975 869 c-10 -15 3 -25 16 -12 7 7 7 13 1 17 -6 3 -14 1 -17 -5z"/>
<path d="M7178 833 c7 -3 16 -2 19 1 4 3 -2 6 -13 5 -11 0 -14 -3 -6 -6z"/>
<path d="M5022 814 c-10 -11 -9 -17 7 -33 21 -21 31 -18 31 9 0 27 -22 41 -38
24z"/>
<path d="M1837 784 c-4 -4 -7 -19 -6 -33 l0 -26 10 24 c10 26 8 47 -4 35z"/>
<path d="M1190 740 c-8 -5 -11 -12 -7 -16 4 -4 13 -2 19 4 15 15 7 24 -12 12z"/>
<path d="M1860 714 c0 -17 22 -14 28 4 2 7 -3 12 -12 12 -9 0 -16 -7 -16 -16z"/>
<path d="M1400 680 c-18 -25 -19 -34 -10 -45 29 -35 76 2 64 50 -8 33 -28 31
-54 -5z"/>
<path d="M1825 678 c-4 -10 -4 -26 0 -35 8 -17 8 -17 12 0 3 9 3 25 0 35 -4
16 -4 16 -12 0z"/>
<path d="M8014 619 c-3 -6 -1 -16 5 -22 8 -8 11 -5 11 11 0 24 -5 28 -16 11z"/>
<path d="M1860 605 c0 -9 5 -15 11 -13 6 2 11 8 11 13 0 5 -5 11 -11 13 -6 2
-11 -4 -11 -13z"/>
<path d="M4841 552 c-6 -11 -11 -30 -11 -41 0 -12 -4 -21 -10 -21 -5 0 -10 -8
-11 -17 0 -11 -3 -13 -6 -5 -7 17 -23 5 -23 -18 0 -11 8 -24 18 -29 27 -14 42
5 35 42 -5 25 -3 29 9 24 19 -7 33 46 19 71 -7 13 -10 12 -20 -6z"/>
<path d="M1477 473 c-12 -11 -8 -23 8 -23 8 0 15 7 15 15 0 16 -12 20 -23 8z"/>
<path d="M1487 323 c-4 -3 -7 -17 -7 -30 0 -27 -26 -32 -33 -5 -3 10 -5 6 -6
-10 -1 -25 2 -28 33 -28 34 0 35 0 29 38 -7 43 -7 44 -16 35z"/>
<path d="M4520 303 c0 -22 2 -25 10 -13 13 20 13 40 0 40 -5 0 -10 -12 -10
-27z"/>
<path d="M6707 280 c-17 -16 -37 -70 -37 -97 0 -20 18 -15 44 10 29 27 40 69
23 89 -11 15 -14 14 -30 -2z"/>
<path d="M4087 252 c-32 -3 -37 -6 -32 -23 3 -10 8 -28 11 -39 8 -28 -12 -25
-21 3 -7 21 -7 21 -12 2 -3 -10 0 -21 6 -23 6 -2 11 -14 11 -27 0 -13 5 -27
10 -30 10 -6 13 5 11 35 0 8 3 22 9 30 8 13 13 13 31 2 18 -12 23 -11 35 5 19
26 17 60 -3 64 -10 2 -35 3 -56 1z"/>
<path d="M3762 233 c-1 -13 -6 -23 -12 -23 -13 0 -13 -37 0 -45 14 -9 22 17
17 57 -2 19 -4 23 -5 11z"/>
<path d="M4545 217 c-4 -10 -5 -21 -1 -24 10 -10 18 4 13 24 -4 17 -4 17 -12
0z"/>
<path d="M3961 184 c0 -11 3 -14 6 -6 3 7 2 16 -1 19 -3 4 -6 -2 -5 -13z"/>
<path d="M3873 174 c-15 -16 -16 -24 -4 -24 8 0 24 30 19 35 -2 2 -9 -3 -15
-11z"/>
<path d="M4068 84 c-22 -43 -22 -54 -3 -54 8 0 15 7 15 15 0 25 14 17 28 -15
13 -28 52 -43 52 -20 0 6 -4 10 -10 10 -5 0 -19 20 -30 44 -11 25 -23 47 -27
49 -5 3 -16 -11 -25 -29z"/>
<path d="M4560 105 c0 -8 4 -15 9 -15 5 0 13 -9 16 -20 4 -11 11 -18 16 -15
11 7 -17 65 -31 65 -6 0 -10 -7 -10 -15z"/>
<path d="M4020 100 c0 -5 5 -10 11 -10 5 0 7 5 4 10 -3 6 -8 10 -11 10 -2 0
-4 -4 -4 -10z"/>
<path d="M6982 77 c-7 -8 -17 -29 -22 -46 l-9 -31 105 0 104 0 -16 26 c-32 48
-137 81 -162 51z"/>
<path d="M4058 3 c7 -3 16 -2 19 1 4 3 -2 6 -13 5 -11 0 -14 -3 -6 -6z"/>
<path d="M6388 3 c7 -3 16 -2 19 1 4 3 -2 6 -13 5 -11 0 -14 -3 -6 -6z"/>
</g>
</svg>
